<svg width="133" height="133" viewBox="0 0 133 133" fill="none" xmlns="http://www.w3.org/2000/svg">
<path d="M118.184 86.4766H16.8378L26.1212 37.9316H108.049L118.184 86.4766Z" fill="#F2F2F2"/>
<path d="M106.852 39.5808L98.1806 63.9198L39.501 65.2764L26.467 39.6606L106.852 39.5808Z" fill="#EDEDED"/>
<path d="M98.1806 63.9198L101.186 84.9338H36.4952L40.166 63.6006C40.166 63.6006 98.686 64.4518 98.1806 63.9198Z" fill="white"/>
<path d="M119.833 86.6629V86.6097C119.833 86.4501 119.833 86.2905 119.806 86.1309L109.672 37.5859C109.512 36.8145 108.821 36.2559 108.049 36.2559H26.1212C25.3232 36.2559 24.6316 36.8145 24.472 37.6125L15.1886 86.1575C15.162 86.3171 15.162 86.4501 15.162 86.6097L15.1886 86.6895C15.1886 86.7161 15.1886 86.7427 15.2152 86.7693L21.2534 122.094H112.571L119.78 86.9555C119.806 86.8491 119.833 86.7693 119.833 86.6629ZM27.5044 39.5809H106.693L116.136 84.8009H18.8328L27.5044 39.5809Z" fill="white"/>
<path d="M112.89 122.493H20.9076L14.7896 86.849C14.7896 86.7958 14.7896 86.7692 14.763 86.7426L14.6832 86.2106H14.763C14.763 86.184 14.763 86.1308 14.7896 86.1042L24.073 37.5592C24.2592 36.575 25.1104 35.8834 26.0946 35.8834H108.023C109.007 35.8834 109.858 36.575 110.044 37.5326L120.179 86.0776C120.179 86.1308 120.205 86.184 120.205 86.2372H120.312L120.205 86.7692C120.205 86.8756 120.179 86.982 120.152 87.0884L112.89 122.493ZM21.5726 121.695H112.225L119.381 86.8224C119.407 86.7426 119.407 86.6628 119.434 86.6096V86.5564C119.434 86.4234 119.434 86.317 119.407 86.2106L109.273 37.6656C109.14 37.0804 108.634 36.6548 108.023 36.6548H26.0946C25.4828 36.6548 24.9508 37.0804 24.8444 37.6922L15.5876 86.2372C15.561 86.3436 15.561 86.45 15.561 86.583L15.5876 86.6894L21.5726 121.695ZM116.614 85.1998H18.354L27.1586 39.1818H107.012L107.065 39.501L116.614 85.1998ZM19.3382 84.4018H115.657L106.373 39.9798H27.8236L19.3382 84.4018Z" fill="#E6E6E6"/>
<path d="M59.1305 20.9978L26.017 32.597L43.0509 81.2256L76.1644 69.6263L59.1305 20.9978Z" fill="white"/>
<path d="M43.0388 81.6088C42.8792 81.6088 42.7196 81.5024 42.6664 81.3428L25.6424 32.718C25.5626 32.5052 25.669 32.2924 25.8818 32.2126L58.9988 20.615C59.1052 20.5884 59.2116 20.5884 59.2914 20.6416C59.3978 20.6948 59.451 20.7746 59.5042 20.881L76.5282 69.5058C76.5548 69.6122 76.5548 69.7186 76.5016 69.7984C76.4484 69.9048 76.3686 69.958 76.2622 70.0112L43.1452 81.6088C43.1186 81.6088 43.092 81.6088 43.0388 81.6088ZM26.5202 32.8244L43.2782 80.6778L75.6238 69.3462L58.8658 21.4928L26.5202 32.8244Z" fill="#E6E6E6"/>
<path d="M105.897 13.5004L79.8421 8.28137L72.1781 46.5426L98.2333 51.7617L105.897 13.5004Z" fill="white"/>
<path d="M98.2072 52.136C98.1806 52.136 98.154 52.136 98.1274 52.136L72.086 46.9224C71.8732 46.8692 71.7402 46.6564 71.7668 46.4436L79.4276 8.19281C79.4808 7.98001 79.6936 7.84701 79.9064 7.87361L105.948 13.0872C106.054 13.1138 106.134 13.167 106.214 13.2468C106.294 13.3266 106.294 13.433 106.267 13.5394L98.6062 51.7902C98.5796 51.8966 98.5264 51.9764 98.4466 52.0562C98.3668 52.1094 98.287 52.136 98.2072 52.136ZM72.6446 46.2042L97.9146 51.2582L105.416 13.7788L80.1458 8.72481L72.6446 46.2042Z" fill="#E6E6E6"/>
</svg>