<svg width="14" height="14" viewBox="0 0 14 14" fill="none" xmlns="http://www.w3.org/2000/svg">
<mask id="path-1-inside-1" fill="white">
<path d="M7 0.777778C8.23064 0.777778 9.43364 1.1427 10.4569 1.82641C11.4801 2.51012 12.2776 3.4819 12.7486 4.61886C13.2195 5.75582 13.3428 7.0069 13.1027 8.21389C12.8626 9.42089 12.27 10.5296 11.3998 11.3998C10.5296 12.27 9.42089 12.8626 8.2139 13.1027C7.0069 13.3427 5.75582 13.2195 4.61886 12.7486C3.4819 12.2776 2.51012 11.4801 1.82641 10.4569C1.14271 9.43364 0.777781 8.23064 0.777781 7C0.779634 5.35033 1.43578 3.76876 2.60227 2.60227C3.76877 1.43578 5.35034 0.77963 7 0.777778ZM7 0C5.61553 0 4.26215 0.410543 3.11101 1.17971C1.95987 1.94888 1.06266 3.04213 0.532846 4.32122C0.003033 5.6003 -0.13559 7.00776 0.134506 8.36563C0.404603 9.7235 1.07129 10.9708 2.05026 11.9497C3.02922 12.9287 4.2765 13.5954 5.63437 13.8655C6.99224 14.1356 8.3997 13.997 9.67879 13.4672C10.9579 12.9373 12.0511 12.0401 12.8203 10.889C13.5895 9.73785 14 8.38447 14 7C14 6.08075 13.8189 5.17049 13.4672 4.32122C13.1154 3.47194 12.5998 2.70026 11.9497 2.05025C11.2997 1.40024 10.5281 0.884626 9.67879 0.532843C8.82951 0.18106 7.91925 0 7 0Z"/>
</mask>
<path d="M7 0.777778C8.23064 0.777778 9.43364 1.1427 10.4569 1.82641C11.4801 2.51012 12.2776 3.4819 12.7486 4.61886C13.2195 5.75582 13.3428 7.0069 13.1027 8.21389C12.8626 9.42089 12.27 10.5296 11.3998 11.3998C10.5296 12.27 9.42089 12.8626 8.2139 13.1027C7.0069 13.3427 5.75582 13.2195 4.61886 12.7486C3.4819 12.2776 2.51012 11.4801 1.82641 10.4569C1.14271 9.43364 0.777781 8.23064 0.777781 7C0.779634 5.35033 1.43578 3.76876 2.60227 2.60227C3.76877 1.43578 5.35034 0.77963 7 0.777778ZM7 0C5.61553 0 4.26215 0.410543 3.11101 1.17971C1.95987 1.94888 1.06266 3.04213 0.532846 4.32122C0.003033 5.6003 -0.13559 7.00776 0.134506 8.36563C0.404603 9.7235 1.07129 10.9708 2.05026 11.9497C3.02922 12.9287 4.2765 13.5954 5.63437 13.8655C6.99224 14.1356 8.3997 13.997 9.67879 13.4672C10.9579 12.9373 12.0511 12.0401 12.8203 10.889C13.5895 9.73785 14 8.38447 14 7C14 6.08075 13.8189 5.17049 13.4672 4.32122C13.1154 3.47194 12.5998 2.70026 11.9497 2.05025C11.2997 1.40024 10.5281 0.884626 9.67879 0.532843C8.82951 0.18106 7.91925 0 7 0Z" fill="#FFBF00"/>
<path d="M0.777781 7L-0.222219 6.99888V7H0.777781ZM14 7H13H14ZM7 1.77778C8.03286 1.77778 9.04252 2.08406 9.90131 2.65788L11.0125 0.994941C9.82477 0.201354 8.42842 -0.222222 7 -0.222222V1.77778ZM9.90131 2.65788C10.7601 3.23171 11.4294 4.0473 11.8247 5.00154L13.6725 4.23617C13.1258 2.91649 12.2001 1.78853 11.0125 0.994941L9.90131 2.65788ZM11.8247 5.00154C12.22 5.95578 12.3234 7.00579 12.1219 8.0188L14.0835 8.40898C14.3621 7.00801 14.2191 5.55586 13.6725 4.23617L11.8247 5.00154ZM12.1219 8.0188C11.9204 9.03182 11.423 9.96233 10.6927 10.6927L12.1069 12.1069C13.1169 11.0968 13.8048 9.80996 14.0835 8.40898L12.1219 8.0188ZM10.6927 10.6927C9.96233 11.423 9.03182 11.9204 8.01881 12.1219L8.40899 14.0834C9.80996 13.8048 11.0968 13.1169 12.1069 12.1069L10.6927 10.6927ZM8.01881 12.1219C7.0058 12.3234 5.95578 12.22 5.00154 11.8247L4.23618 13.6725C5.55587 14.2191 7.00801 14.3621 8.40899 14.0834L8.01881 12.1219ZM5.00154 11.8247C4.04731 11.4294 3.23171 10.7601 2.65788 9.90131L0.994945 11.0125C1.78853 12.2001 2.91649 13.1258 4.23618 13.6725L5.00154 11.8247ZM2.65788 9.90131C2.08406 9.04252 1.77778 8.03286 1.77778 7H-0.222219C-0.222219 8.42842 0.201357 9.82476 0.994945 11.0125L2.65788 9.90131ZM1.77778 7.00112C1.77934 5.61628 2.33015 4.28861 3.30938 3.30938L1.89517 1.89516C0.541414 3.24892 -0.220068 5.08438 -0.222219 6.99888L1.77778 7.00112ZM3.30938 3.30938C4.28861 2.33015 5.61629 1.77933 7.00112 1.77778L6.99888 -0.222222C5.08438 -0.220072 3.24892 0.541411 1.89517 1.89516L3.30938 3.30938ZM7 -1C5.41775 -1 3.87103 -0.530808 2.55544 0.348243L3.66658 2.01118C4.65328 1.35189 5.81331 1 7 1V-1ZM2.55544 0.348243C1.23985 1.22729 0.214468 2.47672 -0.391033 3.93853L1.45673 4.7039C1.91085 3.60754 2.67989 2.67047 3.66658 2.01118L2.55544 0.348243ZM-0.391033 3.93853C-0.996534 5.40034 -1.15496 7.00887 -0.846279 8.56072L1.11529 8.17054C0.88378 7.00665 1.0026 5.80025 1.45673 4.7039L-0.391033 3.93853ZM-0.846279 8.56072C-0.537597 10.1126 0.224329 11.538 1.34315 12.6569L2.75736 11.2426C1.91825 10.4035 1.3468 9.33443 1.11529 8.17054L-0.846279 8.56072ZM1.34315 12.6569C2.46197 13.7757 3.88743 14.5376 5.43928 14.8463L5.82946 12.8847C4.66557 12.6532 3.59648 12.0818 2.75736 11.2426L1.34315 12.6569ZM5.43928 14.8463C6.99113 15.155 8.59966 14.9965 10.0615 14.391L9.2961 12.5433C8.19975 12.9974 6.99335 13.1162 5.82946 12.8847L5.43928 14.8463ZM10.0615 14.391C11.5233 13.7855 12.7727 12.7602 13.6518 11.4446L11.9888 10.3334C11.3295 11.3201 10.3925 12.0892 9.2961 12.5433L10.0615 14.391ZM13.6518 11.4446C14.5308 10.129 15 8.58225 15 7H13C13 8.18669 12.6481 9.34673 11.9888 10.3334L13.6518 11.4446ZM15 7C15 5.94942 14.7931 4.90914 14.391 3.93853L12.5433 4.7039C12.8448 5.43185 13 6.21207 13 7H15ZM14.391 3.93853C13.989 2.96793 13.3997 2.08601 12.6569 1.34315L11.2426 2.75736C11.7998 3.31451 12.2418 3.97595 12.5433 4.7039L14.391 3.93853ZM12.6569 1.34315C11.914 0.600277 11.0321 0.0110012 10.0615 -0.391036L9.2961 1.45672C10.0241 1.75825 10.6855 2.20021 11.2426 2.75736L12.6569 1.34315ZM10.0615 -0.391036C9.09086 -0.793074 8.05058 -1 7 -1V1C7.78793 1 8.56815 1.15519 9.2961 1.45672L10.0615 -0.391036Z" fill="#FFBF00" mask="url(#path-1-inside-1)"/>
<path d="M7.14944 11.2793H7.08721C6.38666 11.2677 5.70032 11.0798 5.09149 10.7331C4.48266 10.3863 3.97095 9.89182 3.60355 9.29522C3.5495 9.20735 3.53258 9.1016 3.5565 9.00125C3.58042 8.9009 3.64323 8.81416 3.7311 8.76011C3.81898 8.70607 3.92472 8.68914 4.02508 8.71306C4.12543 8.73699 4.21217 8.79979 4.26622 8.88767C4.61127 9.45021 5.11328 9.89958 5.71044 10.1805C6.30761 10.4614 6.97388 10.5615 7.62724 10.4687C8.28061 10.3758 8.89255 10.0939 9.38776 9.65764C9.88297 9.22143 10.2398 8.64994 10.4144 8.01352C10.589 7.3771 10.5737 6.70352 10.3704 6.07568C10.1671 5.44785 9.78465 4.89315 9.27015 4.47988C8.75564 4.0666 8.13153 3.81278 7.47462 3.74965C6.81771 3.68651 6.15668 3.81683 5.57288 4.12456C5.52763 4.14971 5.47782 4.16557 5.42636 4.17122C5.3749 4.17687 5.32284 4.17219 5.27321 4.15745C5.22359 4.14271 5.1774 4.11821 5.13737 4.08539C5.09734 4.05256 5.06426 4.01208 5.04008 3.96631C5.0159 3.92053 5.0011 3.87039 4.99655 3.81883C4.992 3.76726 4.9978 3.7153 5.01359 3.666C5.02938 3.6167 5.05486 3.57105 5.08853 3.53173C5.1222 3.49241 5.16338 3.4602 5.20966 3.437C6.09536 2.97036 7.11958 2.83862 8.09454 3.06591C9.0695 3.29321 9.92987 3.86431 10.5179 4.67452C11.1059 5.48473 11.3822 6.47975 11.2961 7.47714C11.2099 8.47454 10.7672 9.40747 10.049 10.1049C9.27369 10.8612 8.2325 11.2829 7.14944 11.2793Z" fill="#FFBF00"/>
</svg>