<svg width="20" height="20" viewBox="0 0 20 20" fill="none" xmlns="http://www.w3.org/2000/svg">
<path d="M10 1.11111C11.7581 1.11111 13.4766 1.63244 14.9384 2.60916C16.4002 3.58588 17.5395 4.97414 18.2123 6.59837C18.885 8.2226 19.0611 10.0099 18.7181 11.7341C18.3751 13.4584 17.5285 15.0423 16.2854 16.2854C15.0423 17.5285 13.4584 18.3751 11.7341 18.7181C10.0099 19.0611 8.22261 18.885 6.59837 18.2123C4.97414 17.5395 3.58589 16.4002 2.60916 14.9384C1.63244 13.4766 1.11112 11.7581 1.11112 10C1.11376 7.64333 2.05112 5.38395 3.71753 3.71753C5.38395 2.05111 7.64334 1.11376 10 1.11111ZM10 0C8.02219 0 6.08879 0.58649 4.4443 1.6853C2.79981 2.78412 1.51809 4.3459 0.761209 6.17316C0.00433286 8.00042 -0.1937 10.0111 0.192152 11.9509C0.578004 13.8907 1.53041 15.6725 2.92894 17.0711C4.32746 18.4696 6.10929 19.422 8.0491 19.8078C9.98891 20.1937 11.9996 19.9957 13.8268 19.2388C15.6541 18.4819 17.2159 17.2002 18.3147 15.5557C19.4135 13.9112 20 11.9778 20 10C20 8.68678 19.7413 7.38642 19.2388 6.17316C18.7362 4.95991 17.9997 3.85752 17.0711 2.92893C16.1425 2.00035 15.0401 1.26375 13.8268 0.761204C12.6136 0.258658 11.3132 0 10 0Z" fill="white"/>
<path d="M8.12444 14.8722C8.0012 14.8741 7.88081 14.8351 7.78222 14.7611L4.62666 12.2944C4.56679 12.2504 4.51636 12.1948 4.47835 12.131C4.44033 12.0671 4.41552 11.9963 4.40536 11.9227C4.3952 11.8491 4.39992 11.7742 4.41922 11.7025C4.43852 11.6307 4.47203 11.5636 4.51774 11.505C4.56346 11.4464 4.62046 11.3976 4.68538 11.3614C4.75029 11.3253 4.8218 11.3025 4.89567 11.2945C4.96954 11.2865 5.04427 11.2933 5.11543 11.3147C5.1866 11.3361 5.25276 11.3715 5.30999 11.4189L8.04222 13.55L14.3033 6.03997C14.3501 5.98394 14.4074 5.93767 14.4721 5.9038C14.5367 5.86993 14.6074 5.84913 14.6801 5.84258C14.7528 5.83602 14.8261 5.84385 14.8957 5.86562C14.9654 5.88738 15.0301 5.92265 15.0861 5.96942C15.1421 6.01618 15.1884 6.07353 15.2223 6.13817C15.2561 6.20282 15.2769 6.2735 15.2835 6.34619C15.2901 6.41888 15.2822 6.49215 15.2605 6.56181C15.2387 6.63147 15.2034 6.69616 15.1567 6.75219L8.5511 14.6755C8.49867 14.7375 8.4333 14.7872 8.35958 14.8212C8.28587 14.8552 8.20561 14.8726 8.12444 14.8722Z" fill="white"/>
</svg>