<svg width="25" height="17" viewBox="0 0 25 17" fill="none" xmlns="http://www.w3.org/2000/svg">
<path d="M24.6891 7.21916H24.2143V4.12023C24.2325 4.08 24.2416 4.03977 24.2416 3.99824C24.2416 3.95672 24.2325 3.91519 24.2143 3.87626V0.285496C24.2143 0.128473 24.0842 0 23.9242 0H0.999063C0.839057 0 0.708971 0.128473 0.708971 0.285496V3.82046C0.676449 3.86977 0.659538 3.92557 0.659538 3.98397C0.659538 4.04237 0.676449 4.09817 0.708971 4.14748V7.20489H0.310906C0.139192 7.20489 0 7.34115 0 7.50985V9.18779C0 9.35649 0.139192 9.49275 0.310906 9.49275H0.708971V12.6423C0.676449 12.6916 0.659538 12.7474 0.659538 12.8058C0.659538 12.8642 0.676449 12.92 0.708971 12.9693V16.7145C0.708971 16.8715 0.839057 17 0.999063 17H23.9255C24.0035 17 24.0803 16.9676 24.1336 16.9118C24.187 16.8573 24.2156 16.7846 24.2143 16.7145V12.9421C24.2312 12.9031 24.2403 12.8629 24.2416 12.8201C24.2416 12.7785 24.2325 12.737 24.2143 12.6981V9.50832H24.6878C24.8569 9.50832 24.9961 9.37206 25 9.20336V7.52412C25 7.35542 24.8608 7.21916 24.6891 7.21916ZM24.3782 7.82908V8.8984H24.2143V7.82908H24.3782ZM19.4765 8.35855C19.4765 7.83947 19.6157 7.52672 19.764 7.34244V9.35908C19.6157 9.1826 19.4765 8.87763 19.4765 8.35855ZM19.764 3.99824V6.5716C19.5065 6.69618 18.8547 7.13092 18.8547 8.35855C18.8547 9.56023 19.4609 9.98069 19.764 10.1169V12.8201C19.764 12.9888 19.9032 13.125 20.0749 13.125H23.6341V16.4277H12.66V10.3869C13.6604 10.2493 14.4084 9.42657 14.4084 8.44939C14.4084 7.47221 13.6604 6.64947 12.66 6.51191V0.57229H23.6341V3.69328H20.0749C19.9032 3.69328 19.764 3.82954 19.764 3.99824ZM12.66 9.8055V7.09328C13.33 7.22305 13.8269 7.79405 13.8269 8.44939C13.8269 9.10473 13.33 9.67572 12.66 9.8055ZM22.2955 6.34191V10.3739C22.2955 10.5426 22.4347 10.6789 22.6064 10.6789H23.6341V12.5151H20.3858V4.30321H23.6341V6.03695H22.6064C22.4347 6.03695 22.2955 6.17321 22.2955 6.34191ZM23.6341 6.64687V10.0689H22.9173V6.64687H23.6341ZM12.0798 7.09328V9.80679C11.4099 9.67702 10.9129 9.10603 10.9129 8.45069C10.9129 7.79405 11.4099 7.22305 12.0798 7.09328ZM5.4259 8.34298C5.4259 8.85947 5.28541 9.16443 5.13711 9.34221V7.32428C5.28541 7.50855 5.4259 7.8213 5.4259 8.34298ZM5.13711 12.8058V10.1001C5.44021 9.96511 6.04642 9.54336 6.04642 8.34168C6.04642 7.11405 5.39468 6.67931 5.13711 6.55473V3.98397C5.13711 3.81527 4.99792 3.67901 4.8262 3.67901H1.29046V0.57229H12.0798V6.51191C11.0795 6.64947 10.3315 7.47221 10.3315 8.44939C10.3315 9.42657 11.0795 10.2493 12.0798 10.3869V16.4277H1.29046V13.1108H4.8262C4.99662 13.1108 5.13321 12.9771 5.13711 12.8058ZM2.63815 10.3596V6.32763C2.63815 6.15893 2.49896 6.02267 2.32725 6.02267H1.29046V4.28893H4.5153V12.5008H1.29046V10.6646H2.32725C2.49766 10.6646 2.63425 10.5309 2.63815 10.3596ZM1.29046 10.0547V6.6326H2.01634V10.0547H1.29046ZM0.708971 7.81481V8.88412H0.621813V7.81481H0.708971Z" fill="white"/>
</svg>