<svg width="20" height="20" viewBox="0 0 20 20" fill="none" xmlns="http://www.w3.org/2000/svg">
<path d="M10.0004 20C4.48563 20 0.000366211 15.5137 0.000366211 10C0.000366211 4.48526 4.48668 0 10.0004 0C15.5151 0 20.0004 4.48632 20.0004 10C20.0004 15.5147 15.5151 20 10.0004 20ZM10.0004 0.696842C4.87089 0.696842 0.697208 4.87053 0.697208 10C0.697208 15.1295 4.87089 19.3032 10.0004 19.3032C15.1298 19.3032 19.3035 15.1295 19.3035 10C19.3035 4.87053 15.1298 0.696842 10.0004 0.696842Z" fill="white"/>
<path d="M5.72961 18.9884C5.56435 18.9884 5.41803 18.8705 5.38646 18.7032C5.34014 18.4505 4.24646 12.4863 4.23488 10.4063C4.22435 8.12842 5.33803 1.56316 5.3854 1.28527C5.41803 1.09579 5.59803 0.96737 5.78751 1C5.97698 1.03263 6.1054 1.21263 6.07277 1.40211C6.06119 1.46948 4.92224 8.18527 4.93277 10.4032C4.9433 12.4221 6.06119 18.5158 6.07277 18.5768C6.10751 18.7663 5.98224 18.9484 5.79277 18.9832C5.77172 18.9874 5.75067 18.9884 5.72961 18.9884Z" fill="white"/>
<path d="M7.10436 10.7537C6.94857 10.7537 6.80541 10.7526 6.67699 10.7505C4.68751 10.72 0.362251 10.3505 0.319093 10.3474C0.127514 10.3305 -0.0145913 10.1621 0.00119812 9.97052C0.0180402 9.77894 0.186461 9.63578 0.37804 9.65262C0.421198 9.65683 4.72225 10.0231 6.68751 10.0537C9.48646 10.0937 19.5349 9.65578 19.6359 9.65157C19.8275 9.6442 19.9917 9.79262 20.0001 9.98525C20.0086 10.1779 19.8591 10.341 19.6665 10.3495C19.5707 10.3526 10.3907 10.7537 7.10436 10.7537Z" fill="white"/>
<path d="M6.85802 6.05263C3.78118 6.05263 2.50749 3.88842 2.45381 3.79578C2.35802 3.62842 2.41591 3.41578 2.58328 3.31999C2.7496 3.22421 2.96223 3.2821 3.05907 3.44842C3.10433 3.52631 4.19907 5.35473 6.85802 5.35473C9.87276 5.35473 16.5275 2.77473 16.5949 2.74947C16.7749 2.67999 16.977 2.76842 17.0464 2.94736C17.1159 3.12736 17.0275 3.32947 16.8485 3.39894C16.5696 3.50842 10.0033 6.05263 6.85802 6.05263Z" fill="white"/>
<path d="M2.91489 16.76C2.78752 16.76 2.66541 16.6905 2.60331 16.5695C2.51594 16.3979 2.58436 16.1874 2.75594 16.1C2.86015 16.0474 5.33594 14.8 7.48331 14.881C10.6212 14.9989 17.2528 15.9958 17.3191 16.0053C17.5096 16.0337 17.6412 16.2116 17.6117 16.4021C17.5823 16.5926 17.4054 16.7231 17.2149 16.6947C17.1486 16.6842 10.5559 15.6937 7.45699 15.5768C5.49383 15.5021 3.09594 16.7084 3.07278 16.72C3.02225 16.7484 2.96857 16.76 2.91489 16.76Z" fill="white"/>
</svg>