<svg width="19" height="20" viewBox="0 0 19 20" fill="none" xmlns="http://www.w3.org/2000/svg">
<path d="M18.3333 1.33333H16V0.333333C16 0.149 15.851 0 15.6667 0H13.3333C13.149 0 13 0.149 13 0.333333V1.33333H5.66667V0.333333C5.66667 0.149 5.51767 0 5.33333 0H3C2.81567 0 2.66667 0.149 2.66667 0.333333V1.33333H0.333333C0.149 1.33333 0 1.48233 0 1.66667V5.33333V19.6667C0 19.851 0.149 20 0.333333 20H18.3333C18.5177 20 18.6667 19.851 18.6667 19.6667V5.33333V1.66667C18.6667 1.48233 18.5177 1.33333 18.3333 1.33333ZM13.6667 0.666667H15.3333V1.66667V2.66667H13.6667V1.66667V0.666667ZM3.33333 0.666667H5V1.66667V2.66667H3.33333V1.66667V0.666667ZM0.666667 2H2.66667V3C2.66667 3.18433 2.81567 3.33333 3 3.33333H5.33333C5.51767 3.33333 5.66667 3.18433 5.66667 3V2H13V3C13 3.18433 13.149 3.33333 13.3333 3.33333H15.6667C15.851 3.33333 16 3.18433 16 3V2H18V5H0.666667V2ZM0.666667 19.3333V5.66667H18V19.3333H0.666667Z" fill="white"/>
<path d="M12 7.66675H9.66667H9H6.66667H6H3V10.6667V11.3334V13.6667V14.3334V17.3334H6H6.66667H9H9.66667H12H12.6667H15.6667V14.3334V13.6667V11.3334V10.6667V7.66675H12.6667H12ZM9.66667 8.33341H12V10.6667H9.66667V8.33341ZM12 13.6667H9.66667V11.3334H12V13.6667ZM6.66667 11.3334H9V13.6667H6.66667V11.3334ZM6.66667 8.33341H9V10.6667H6.66667V8.33341ZM3.66667 8.33341H6V10.6667H3.66667V8.33341ZM3.66667 11.3334H6V13.6667H3.66667V11.3334ZM6 16.6667H3.66667V14.3334H6V16.6667ZM9 16.6667H6.66667V14.3334H9V16.6667ZM12 16.6667H9.66667V14.3334H12V16.6667ZM15 16.6667H12.6667V14.3334H15V16.6667ZM15 13.6667H12.6667V11.3334H15V13.6667ZM15 8.33341V10.6667H12.6667V8.33341H15Z" fill="white"/>
</svg>