<svg width="20" height="20" viewBox="0 0 20 20" fill="none" xmlns="http://www.w3.org/2000/svg">
<path d="M10 0C4.47686 0 0 4.47686 0 10C0 15.5231 4.47686 20 10 20C15.5231 20 20 15.5231 20 10C20 4.4786 15.5231 0 10 0ZM15.2961 7.68559L8.28646 13.3153C8.19214 13.3904 8.07686 13.4306 7.95808 13.4306C7.93886 13.4306 7.91965 13.4288 7.89869 13.4271C7.7607 13.4114 7.63319 13.3415 7.54585 13.2314L4.62183 9.53362C4.44192 9.30655 4.48035 8.97642 4.70742 8.79825C4.9345 8.61834 5.26463 8.65677 5.44279 8.88384L8.04017 12.1677L14.6376 6.86987C14.8629 6.68821 15.193 6.72489 15.3747 6.95022C15.5563 7.17555 15.5214 7.50393 15.2961 7.68559Z" fill="white"/>
</svg>