<svg width="18" height="20" viewBox="0 0 18 20" fill="none" xmlns="http://www.w3.org/2000/svg">
<path d="M16.7586 3.27618H15.8028V1.93003C15.8028 1.769 15.6719 1.63809 15.5109 1.63809H14.5551V0.291937C14.5551 0.130908 14.4242 0 14.2632 0H0.291937C0.130908 0 0 0.130908 0 0.291937V16.4307C0 16.5918 0.130908 16.7227 0.291937 16.7227H1.24768V18.0688C1.24768 18.2298 1.37859 18.3608 1.53962 18.3608H2.49537V19.7081C2.49537 19.8691 2.62627 20 2.7873 20H16.7586C16.9196 20 17.0505 19.8691 17.0505 19.7081V3.56812C17.0505 3.40709 16.9196 3.27618 16.7586 3.27618ZM0.583874 16.1388V0.583874H13.9713V1.93003V16.1388H1.53962H0.583874ZM1.83156 17.7769V16.7227H14.2632C14.4242 16.7227 14.5551 16.5918 14.5551 16.4307V2.22196H15.219V3.55653C15.219 3.56001 15.2178 3.56348 15.2178 3.56812V17.7769H2.7873H1.83156ZM3.07924 18.3608H15.5109C15.6719 18.3608 15.8028 18.2298 15.8028 18.0688V3.86006H16.4666V19.4161H3.07924V18.3608Z" fill="white"/>
<path d="M13.0144 1.63809H1.53962C1.37859 1.63809 1.24768 1.769 1.24768 1.93003C1.24768 2.09106 1.37859 2.22197 1.53962 2.22197H13.0144C13.1754 2.22197 13.3063 2.09106 13.3063 1.93003C13.3063 1.769 13.1754 1.63809 13.0144 1.63809Z" fill="white"/>
<path d="M13.0144 3.47543H1.53962C1.37859 3.47543 1.24768 3.60634 1.24768 3.76737C1.24768 3.9284 1.37859 4.05931 1.53962 4.05931H13.0144C13.1754 4.05931 13.3063 3.9284 13.3063 3.76737C13.3063 3.60634 13.1754 3.47543 13.0144 3.47543Z" fill="white"/>
<path d="M13.0144 5.31393H1.53962C1.37859 5.31393 1.24768 5.44484 1.24768 5.60587C1.24768 5.7669 1.37859 5.89781 1.53962 5.89781H13.0144C13.1754 5.89781 13.3063 5.7669 13.3063 5.60587C13.3063 5.44484 13.1754 5.31393 13.0144 5.31393Z" fill="white"/>
<path d="M13.0144 7.15131H1.53962C1.37859 7.15131 1.24768 7.28221 1.24768 7.44324C1.24768 7.60427 1.37859 7.73518 1.53962 7.73518H13.0144C13.1754 7.73518 13.3063 7.60427 13.3063 7.44324C13.3063 7.28221 13.1754 7.15131 13.0144 7.15131Z" fill="white"/>
<path d="M13.0144 8.98865H1.53962C1.37859 8.98865 1.24768 9.11956 1.24768 9.28058C1.24768 9.44161 1.37859 9.57252 1.53962 9.57252H13.0144C13.1754 9.57252 13.3063 9.44161 13.3063 9.28058C13.3063 9.11956 13.1754 8.98865 13.0144 8.98865Z" fill="white"/>
<path d="M13.0144 10.826H1.53962C1.37859 10.826 1.24768 10.9569 1.24768 11.1179C1.24768 11.279 1.37859 11.4099 1.53962 11.4099H13.0144C13.1754 11.4099 13.3063 11.279 13.3063 11.1179C13.3063 10.9569 13.1754 10.826 13.0144 10.826Z" fill="white"/>
<path d="M13.0144 12.6645H1.53962C1.37859 12.6645 1.24768 12.7954 1.24768 12.9564C1.24768 13.1175 1.37859 13.2484 1.53962 13.2484H13.0144C13.1754 13.2484 13.3063 13.1175 13.3063 12.9564C13.3063 12.7954 13.1754 12.6645 13.0144 12.6645Z" fill="white"/>
</svg>