<svg width="20" height="20" viewBox="0 0 20 20" fill="none" xmlns="http://www.w3.org/2000/svg">
<path d="M8.50267 7.01674H9.49064V11.3412C9.49064 11.3974 9.53877 11.4434 9.59759 11.4434H10.3997C10.4586 11.4434 10.5067 11.3974 10.5067 11.3412V7.01674H11.4973C11.5869 7.01674 11.6364 6.91831 11.5816 6.85184L10.0842 5.03924C10.0742 5.02701 10.0614 5.01713 10.0468 5.01033C10.0323 5.00353 10.0162 5 10 5C9.98377 5 9.96775 5.00353 9.95316 5.01033C9.93856 5.01713 9.92578 5.02701 9.91578 5.03924L8.41845 6.85056C8.36364 6.91831 8.4131 7.01674 8.50267 7.01674ZM14.893 10.9577H14.0909C14.0321 10.9577 13.984 11.0037 13.984 11.0599V13.0285H6.01604V11.0599C6.01604 11.0037 5.96791 10.9577 5.90909 10.9577H5.10695C5.04813 10.9577 5 11.0037 5 11.0599V13.5909C5 13.8172 5.19118 14 5.42781 14H14.5722C14.8088 14 15 13.8172 15 13.5909V11.0599C15 11.0037 14.9519 10.9577 14.893 10.9577Z" fill="white"/>
<path d="M10 1.11111C11.7581 1.11111 13.4766 1.63244 14.9384 2.60916C16.4002 3.58588 17.5395 4.97414 18.2123 6.59837C18.885 8.2226 19.0611 10.0099 18.7181 11.7341C18.3751 13.4584 17.5285 15.0423 16.2854 16.2854C15.0423 17.5285 13.4584 18.3751 11.7341 18.7181C10.0099 19.0611 8.22261 18.885 6.59837 18.2123C4.97414 17.5395 3.58589 16.4002 2.60916 14.9384C1.63244 13.4766 1.11112 11.7581 1.11112 10C1.11376 7.64333 2.05112 5.38395 3.71753 3.71753C5.38395 2.05111 7.64334 1.11376 10 1.11111ZM10 0C8.02219 0 6.08879 0.58649 4.4443 1.6853C2.79981 2.78412 1.51809 4.3459 0.761209 6.17316C0.00433286 8.00042 -0.1937 10.0111 0.192152 11.9509C0.578004 13.8907 1.53041 15.6725 2.92894 17.0711C4.32746 18.4696 6.10929 19.422 8.0491 19.8078C9.98891 20.1937 11.9996 19.9957 13.8268 19.2388C15.6541 18.4819 17.2159 17.2002 18.3147 15.5557C19.4135 13.9112 20 11.9778 20 10C20 7.34783 18.9464 4.8043 17.0711 2.92893C15.1957 1.05357 12.6522 0 10 0Z" fill="white"/>
</svg>