<svg width="23" height="20" viewBox="0 0 23 20" fill="none" xmlns="http://www.w3.org/2000/svg">
<path d="M22.8086 8.58068L11.9078 0.13454C11.6777 -0.0448468 11.3196 -0.0448468 11.0896 0.13454L0.190744 8.58068C0.0106978 8.72021 -0.0493173 8.9378 0.0427066 9.12715C0.13273 9.31816 0.354787 9.44274 0.60085 9.44274H3.52161V19.5017C3.52161 19.7774 3.78968 20 4.12176 20H18.8796C19.2117 20 19.4797 19.7774 19.4797 19.5017V9.44274H22.4005C22.6466 9.44274 22.8686 9.31816 22.9586 9.12715C23.0487 8.93614 22.9886 8.72021 22.8086 8.58068ZM18.2794 19.0034H4.72192V9.44274H18.2794V19.0034ZM18.8796 8.44614H4.12176H2.12324L11.4997 1.1793L20.8781 8.44614H18.8796Z" fill="white"/>
</svg>