<svg width="20" height="20" viewBox="0 0 20 20" fill="none" xmlns="http://www.w3.org/2000/svg">
<path d="M19.3772 8.84421L14.5624 5.37942C14.4204 5.27676 14.2339 5.26307 14.0782 5.34348C13.9225 5.4239 13.825 5.58303 13.825 5.75755V7.45487H13.2158V0.465394C13.2158 0.208743 13.0071 0 12.7504 0H0.465395C0.208743 0 0 0.208743 0 0.465394V19.5346C0 19.7913 0.208743 20 0.465395 20H12.7522C13.0088 20 13.2176 19.7913 13.2176 19.5346V10.9881H13.8267V12.7333C13.8267 12.9079 13.9242 13.0687 14.0816 13.1474C14.1483 13.1816 14.2202 13.197 14.2921 13.197C14.3896 13.197 14.4854 13.1662 14.5658 13.1081L19.3806 9.59535C19.5004 9.50809 19.5723 9.36778 19.5723 9.21892C19.5723 9.07007 19.497 8.93147 19.3772 8.84421ZM12.2868 19.0692H0.930789V0.930789H12.2868V7.45487H4.90547C4.64882 7.45487 4.44007 7.66362 4.44007 7.92027V10.5244C4.44007 10.7811 4.64882 10.9898 4.90547 10.9898H12.2868V19.0692ZM14.7558 11.8197V10.5244C14.7558 10.2678 14.547 10.059 14.2904 10.059H12.7504H5.37086V8.38566H12.7522H14.2921C14.5487 8.38566 14.7575 8.17692 14.7575 7.92027V6.6661L18.3147 9.22577L14.7558 11.8197Z" fill="white"/>
</svg>