<svg width="20" height="20" viewBox="0 0 20 20" fill="none" xmlns="http://www.w3.org/2000/svg">
<path d="M10 1.11111C11.7581 1.11111 13.4766 1.63244 14.9384 2.60916C16.4002 3.58588 17.5395 4.97414 18.2123 6.59837C18.885 8.2226 19.0611 10.0099 18.7181 11.7341C18.3751 13.4584 17.5285 15.0423 16.2854 16.2854C15.0423 17.5285 13.4584 18.3751 11.7341 18.7181C10.0099 19.0611 8.22261 18.885 6.59837 18.2123C4.97414 17.5395 3.58589 16.4002 2.60916 14.9384C1.63244 13.4766 1.11112 11.7581 1.11112 10C1.11376 7.64333 2.05112 5.38395 3.71753 3.71753C5.38395 2.05111 7.64334 1.11376 10 1.11111ZM10 0C8.02219 0 6.08879 0.58649 4.4443 1.6853C2.79981 2.78412 1.51809 4.3459 0.761209 6.17316C0.00433286 8.00042 -0.1937 10.0111 0.192152 11.9509C0.578004 13.8907 1.53041 15.6725 2.92894 17.0711C4.32746 18.4696 6.10929 19.422 8.0491 19.8078C9.98891 20.1937 11.9996 19.9957 13.8268 19.2388C15.6541 18.4819 17.2159 17.2002 18.3147 15.5557C19.4135 13.9112 20 11.9778 20 10C20 8.68678 19.7413 7.38642 19.2388 6.17316C18.7362 4.95991 17.9997 3.85752 17.0711 2.92893C16.1425 2.00035 15.0401 1.26375 13.8268 0.761204C12.6136 0.258658 11.3132 0 10 0Z" fill="white"/>
<path d="M10.2133 16.1134H10.1245C9.12366 16.0967 8.14317 15.8283 7.27342 15.333C6.40366 14.8376 5.67265 14.1312 5.14779 13.2789C5.07058 13.1534 5.0464 13.0023 5.08058 12.8589C5.11475 12.7156 5.20447 12.5917 5.33001 12.5145C5.45554 12.4373 5.60661 12.4131 5.74997 12.4473C5.89333 12.4814 6.01725 12.5711 6.09445 12.6967C6.58739 13.5003 7.30454 14.1423 8.15764 14.5436C9.01073 14.9448 9.96254 15.0879 10.8959 14.9552C11.8293 14.8225 12.7035 14.4198 13.4109 13.7966C14.1184 13.1735 14.6282 12.3571 14.8776 11.4479C15.127 10.5387 15.1052 9.57648 14.8147 8.67957C14.5243 7.78266 13.9779 6.99024 13.2429 6.39984C12.5079 5.80945 11.6163 5.44684 10.6779 5.35665C9.73945 5.26647 8.79511 5.45263 7.96112 5.89224C7.89648 5.92817 7.82532 5.95084 7.75181 5.95891C7.67829 5.96697 7.60391 5.96028 7.53302 5.93923C7.46213 5.91817 7.39615 5.88317 7.33896 5.83628C7.28177 5.7894 7.23452 5.73156 7.19997 5.66617C7.16543 5.60078 7.14429 5.52915 7.13779 5.45548C7.13129 5.38182 7.13957 5.30759 7.16213 5.23716C7.1847 5.16674 7.22109 5.10152 7.26919 5.04535C7.31729 4.98917 7.37612 4.94316 7.44223 4.91002C8.70751 4.2434 10.1707 4.05518 11.5635 4.37989C12.9563 4.7046 14.1854 5.52046 15.0254 6.67791C15.8654 7.83535 16.2601 9.2568 16.1371 10.6817C16.0141 12.1065 15.3816 13.4393 14.3556 14.4356C13.248 15.516 11.7606 16.1184 10.2133 16.1134Z" fill="white"/>
<path d="M5.45777 8.19555C5.3619 8.19549 5.26767 8.17061 5.18426 8.12335C5.10085 8.07608 5.03108 8.00804 4.98176 7.92583C4.93243 7.84362 4.90522 7.75004 4.90277 7.6542C4.90032 7.55835 4.92271 7.46351 4.96777 7.37888C5.4745 6.43151 6.2267 5.63787 7.14555 5.08111C7.27168 5.00493 7.4229 4.98198 7.56594 5.0173C7.70899 5.05262 7.83215 5.14332 7.90833 5.26944C7.9845 5.39557 8.00746 5.54679 7.97214 5.68983C7.93682 5.83288 7.84612 5.95604 7.72 6.03222C6.97156 6.48471 6.35866 7.13024 5.94555 7.90111C5.8984 7.98965 5.82816 8.06378 5.74228 8.11562C5.6564 8.16746 5.55809 8.19508 5.45777 8.19555Z" fill="white"/>
<path d="M4.71554 9.3922C4.61867 9.39147 4.52368 9.36543 4.43998 9.31665C4.37217 9.27795 4.31327 9.2254 4.26713 9.16241C4.22099 9.09943 4.18865 9.02742 4.17221 8.95109L3.67998 6.6722C3.64889 6.5281 3.67632 6.37755 3.75623 6.25368C3.83615 6.1298 3.96199 6.04274 4.10609 6.01165C4.2502 5.98056 4.40074 6.00799 4.52462 6.0879C4.6485 6.16781 4.73556 6.29366 4.76665 6.43776L5.12443 8.11332L6.71332 7.58332C6.85315 7.53676 7.00574 7.54765 7.13754 7.6136C7.26933 7.67955 7.36953 7.79515 7.41609 7.93498C7.46265 8.07481 7.45176 8.22741 7.38581 8.3592C7.31986 8.491 7.20426 8.5912 7.06443 8.63776L4.89109 9.36331C4.83447 9.38216 4.77522 9.39192 4.71554 9.3922Z" fill="white"/>
</svg>