<svg width="30" height="14" viewBox="0 0 30 14" fill="none" xmlns="http://www.w3.org/2000/svg">
<path d="M29.5671 1.54616C29.8051 1.54616 30 1.35129 30 1.1133V0.437653C30 0.199659 29.8051 0.00479163 29.5671 0.00479163H25.3599C25.3439 0.00319435 25.3296 0 25.3136 0C25.2976 0 25.2817 0.00319435 25.2673 0.00479163H4.83016C4.81418 0.00319435 4.79981 0 4.78384 0C4.76786 0 4.75189 0.00319435 4.73751 0.00479163H0.432861C0.194867 0.00479163 0 0.199659 0 0.437653V1.12288C0 1.34331 0.164519 1.52699 0.384943 1.55255C0.942392 1.61644 1.36088 2.08923 1.36088 2.65147C1.36088 3.21372 0.940794 3.68491 0.384943 3.7504C0.166117 3.77596 0 3.96124 0 4.18007V5.3317C0 5.55212 0.164519 5.73741 0.384943 5.76137C0.940794 5.82366 1.36088 6.29645 1.36088 6.85869C1.36088 7.42093 0.940794 7.89213 0.384943 7.95762C0.166117 7.98317 0 8.16846 0 8.38728V9.53892C0 9.75934 0.164519 9.94303 0.384943 9.96859C0.942392 10.0325 1.36088 10.5053 1.36088 11.0675C1.36088 11.6282 0.940794 12.0993 0.384943 12.1648C0.166117 12.1904 0 12.3757 0 12.5945V13.2813C0 13.5193 0.194867 13.7142 0.432861 13.7142H29.5671C29.8051 13.7142 30 13.5209 30 13.2829V12.6073C30 12.3693 29.8051 12.1744 29.5671 12.1744C28.957 12.1744 28.4618 11.6793 28.4618 11.0691C28.4618 10.4589 28.957 9.9622 29.5671 9.9622C29.8051 9.9622 30 9.76733 30 9.52934V8.40006C30 8.16207 29.8051 7.9672 29.5671 7.9672C28.957 7.9672 28.4618 7.47045 28.4618 6.86029C28.4618 6.25013 28.957 5.75498 29.5671 5.75498C29.8051 5.75498 30 5.56011 30 5.32212V4.19284C30 3.95485 29.8051 3.75998 29.5671 3.75998C28.957 3.75998 28.4618 3.26323 28.4618 2.65307C28.4618 2.04291 28.957 1.54616 29.5671 1.54616ZM27.5945 2.64828C27.5945 3.56991 28.2462 4.37333 29.1327 4.57459V4.93238C28.2462 5.13364 27.5945 5.93707 27.5945 6.8571C27.5945 7.77872 28.2462 8.58215 29.1327 8.78341V9.1412C28.2462 9.34245 27.5945 10.1459 27.5945 11.0675C27.5945 11.8374 28.0513 12.5274 28.7206 12.8485H25.7465V0.865722H28.7222C28.0529 1.18677 27.5945 1.8768 27.5945 2.64828ZM2.2266 11.0675C2.2266 10.2082 1.67235 9.45267 0.865723 9.19071V8.73389C1.67235 8.47354 2.2266 7.71803 2.2266 6.8571C2.2266 5.99617 1.67235 5.24225 0.865723 4.9819V4.52508C1.67235 4.26312 2.2266 3.50761 2.2266 2.64828C2.2266 1.8752 1.77936 1.18677 1.10212 0.865722H4.35097V12.8485H1.10372C1.77936 12.5274 2.2266 11.8406 2.2266 11.0675ZM5.2167 0.865722H24.8807V12.8485H5.2167V0.865722Z" fill="white"/>
<path d="M15.0479 2.14673C10.1762 2.14673 6.35876 4.14971 6.35876 6.70854C6.35876 9.26578 10.1762 11.2704 15.0479 11.2704C19.9196 11.2704 23.7371 9.26738 23.7371 6.70854C23.7371 4.15131 19.9196 2.14673 15.0479 2.14673ZM22.8714 6.70854C22.8714 8.71152 19.2887 10.403 15.0479 10.403C10.7337 10.403 7.22449 8.74507 7.22449 6.70854C7.22449 4.70556 10.8072 3.01405 15.0479 3.01405C19.2887 3.01405 22.8714 4.70556 22.8714 6.70854Z" fill="white"/>
<path d="M10.0756 7.53915L9.71781 7.02163H9.69704H9.32328V7.53915H8.89362V5.68152H9.69704C9.86156 5.68152 10.0037 5.70867 10.1251 5.76298C10.2465 5.81729 10.3391 5.89555 10.4046 5.99618C10.4701 6.09681 10.5021 6.21661 10.5021 6.35397C10.5021 6.49134 10.4685 6.61113 10.403 6.71016C10.336 6.81079 10.2433 6.88586 10.1203 6.94017L10.5372 7.53755H10.0756V7.53915ZM9.96698 6.11598C9.8999 6.06007 9.80087 6.03292 9.67308 6.03292H9.32328V6.67981H9.67308C9.80246 6.67981 9.8999 6.65106 9.96698 6.59516C10.0341 6.53925 10.0676 6.45939 10.0676 6.35717C10.0676 6.25175 10.0341 6.17188 9.96698 6.11598Z" fill="white"/>
<path d="M12.2799 7.19414V7.53915H10.8423V5.68152H12.2464V6.02653H11.2704V6.42904H12.1329V6.76287H11.2704V7.19254H12.2799V7.19414Z" fill="white"/>
<path d="M12.807 7.51201C12.6696 7.47208 12.5594 7.42096 12.4763 7.35707L12.6217 7.03283C12.7015 7.09193 12.7958 7.13825 12.906 7.17339C13.0162 7.20853 13.1248 7.2261 13.235 7.2261C13.3564 7.2261 13.4475 7.20853 13.505 7.17179C13.5641 7.13505 13.5928 7.08713 13.5928 7.02644C13.5928 6.98171 13.5752 6.94498 13.5417 6.91622C13.5066 6.88747 13.4634 6.86351 13.4091 6.84594C13.3548 6.82837 13.2829 6.80921 13.1903 6.78844C13.0481 6.7549 12.9331 6.72136 12.8421 6.68781C12.7526 6.65427 12.6744 6.59996 12.6105 6.52649C12.5466 6.45301 12.5131 6.35398 12.5131 6.2294C12.5131 6.12078 12.5418 6.02335 12.6009 5.9355C12.66 5.84765 12.7479 5.77897 12.8645 5.72785C12.9827 5.67674 13.1264 5.65118 13.2957 5.65118C13.4139 5.65118 13.5305 5.66556 13.6439 5.69431C13.7573 5.72306 13.8564 5.76299 13.941 5.8157L13.8084 6.14155C13.6375 6.04411 13.465 5.99619 13.2941 5.99619C13.1743 5.99619 13.0849 6.01536 13.0274 6.0537C12.9699 6.09203 12.9411 6.14314 12.9411 6.20703C12.9411 6.27093 12.9747 6.31884 13.0402 6.34919C13.1072 6.37954 13.2079 6.41149 13.3436 6.44024C13.4858 6.47378 13.6008 6.50732 13.6918 6.54087C13.7813 6.57441 13.8596 6.62712 13.9234 6.70059C13.9873 6.77247 14.0209 6.8715 14.0209 6.99449C14.0209 7.09991 13.9905 7.19734 13.9314 7.28519C13.8723 7.37304 13.7829 7.44173 13.6647 7.49284C13.5465 7.54395 13.4027 7.56951 13.2318 7.56951C13.0865 7.57111 12.9443 7.55034 12.807 7.51201Z" fill="white"/>
<path d="M15.7523 7.19414V7.53915H14.3148V5.68152H15.7188V6.02653H14.7428V6.42904H15.6054V6.76287H14.7428V7.19254H15.7523V7.19414Z" fill="white"/>
<path d="M17.2777 7.53915L16.92 7.02163H16.8992H16.5254V7.53915H16.0958V5.68152H16.8992C17.0637 5.68152 17.2059 5.70867 17.3273 5.76298C17.4487 5.81729 17.5413 5.89555 17.6068 5.99618C17.6723 6.09681 17.7042 6.21661 17.7042 6.35397C17.7042 6.49134 17.6707 6.61113 17.6052 6.71016C17.5381 6.81079 17.4455 6.88586 17.3225 6.94017L17.7394 7.53755H17.2777V7.53915ZM17.1691 6.11598C17.102 6.06007 17.003 6.03292 16.8752 6.03292H16.5254V6.67981H16.8752C17.0046 6.67981 17.102 6.65106 17.1691 6.59516C17.2362 6.53925 17.2698 6.45939 17.2698 6.35717C17.2698 6.25175 17.2362 6.17188 17.1691 6.11598Z" fill="white"/>
<path d="M19.8302 5.68152L19.0268 7.53915H18.6019L17.8 5.68152H18.2649L18.8303 7.00726L19.4037 5.68152C19.4037 5.68152 19.8302 5.68152 19.8302 5.68152Z" fill="white"/>
<path d="M21.4211 7.19414V7.53915H19.9835V5.68152H21.3875V6.02653H20.4116V6.42904H21.2741V6.76287H20.4116V7.19254H21.4211V7.19414Z" fill="white"/>
</svg>