<svg width="20" height="20" viewBox="0 0 20 20" fill="none" xmlns="http://www.w3.org/2000/svg">
<path d="M10 20C4.48586 20 0 15.5141 0 10C0 4.48586 4.48586 0 10 0C15.5141 0 20 4.48586 20 10C20 15.5141 15.5141 20 10 20ZM10 1.17408C5.13376 1.17408 1.17408 5.13376 1.17408 10C1.17408 14.8662 5.13376 18.8259 10 18.8259C14.8662 18.8259 18.8259 14.8662 18.8259 10C18.8259 5.13376 14.8662 1.17408 10 1.17408Z" fill="white"/>
<path d="M9.43708 10.8089C9.11249 10.8089 8.85004 10.5465 8.85004 10.2219V6.38518C8.85004 6.0606 9.11249 5.79814 9.43708 5.79814C9.76166 5.79814 10.0241 6.0606 10.0241 6.38518V10.2219C10.0241 10.5465 9.76166 10.8089 9.43708 10.8089Z" fill="white"/>
<path d="M16.091 10.9788H9.53467C9.21009 10.9788 8.94763 10.7164 8.94763 10.3918C8.94763 10.0672 9.21009 9.80473 9.53467 9.80473H16.091C16.4156 9.80473 16.6781 10.0672 16.6781 10.3918C16.6781 10.7164 16.4156 10.9788 16.091 10.9788Z" fill="white"/>
</svg>