<svg width="20" height="20" viewBox="0 0 20 20" fill="none" xmlns="http://www.w3.org/2000/svg">
<path d="M10 1.11111C11.7581 1.11111 13.4766 1.63244 14.9384 2.60916C16.4002 3.58588 17.5395 4.97414 18.2123 6.59837C18.885 8.2226 19.0611 10.0099 18.7181 11.7341C18.3751 13.4584 17.5285 15.0423 16.2854 16.2854C15.0423 17.5285 13.4584 18.3751 11.7341 18.7181C10.0099 19.0611 8.22261 18.885 6.59837 18.2123C4.97414 17.5395 3.58589 16.4002 2.60916 14.9384C1.63244 13.4766 1.11112 11.7581 1.11112 10C1.11376 7.64333 2.05112 5.38395 3.71753 3.71753C5.38395 2.05111 7.64334 1.11376 10 1.11111ZM10 0C8.02219 0 6.08879 0.58649 4.4443 1.6853C2.79981 2.78412 1.51809 4.3459 0.761209 6.17316C0.00433286 8.00042 -0.1937 10.0111 0.192152 11.9509C0.578004 13.8907 1.53041 15.6725 2.92894 17.0711C4.32746 18.4696 6.10929 19.422 8.0491 19.8078C9.98891 20.1937 11.9996 19.9957 13.8268 19.2388C15.6541 18.4819 17.2159 17.2002 18.3147 15.5557C19.4135 13.9112 20 11.9778 20 10C20 8.68678 19.7413 7.38642 19.2388 6.17316C18.7362 4.95991 17.9997 3.85752 17.0711 2.92893C16.1425 2.00035 15.0401 1.26375 13.8268 0.761204C12.6136 0.258658 11.3132 0 10 0Z" fill="white"/>
<path d="M10.0623 3.76111C8.81947 3.76111 7.60457 4.1296 6.57117 4.82C5.53778 5.51039 4.73228 6.49169 4.25653 7.63983C3.78078 8.78797 3.65613 10.0514 3.89834 11.2704C4.14056 12.4893 4.73877 13.6091 5.61733 14.4881C6.49589 15.3672 7.61536 15.966 8.8342 16.2088C10.053 16.4517 11.3165 16.3277 12.4649 15.8526C13.6133 15.3774 14.595 14.5725 15.286 13.5394C15.9769 12.5064 16.3461 11.2917 16.3467 10.0489C16.3458 8.38211 15.6836 6.78381 14.5053 5.60491C13.327 4.42601 11.7291 3.76287 10.0623 3.76111ZM15.2289 10.0456C15.2289 11.0674 14.9259 12.0663 14.3582 12.916C13.7905 13.7657 12.9836 14.4279 12.0395 14.8189C11.0954 15.21 10.0565 15.3123 9.05431 15.1129C8.05208 14.9136 7.13146 14.4215 6.40889 13.6989C5.68632 12.9764 5.19424 12.0558 4.99489 11.0535C4.79553 10.0513 4.89785 9.01244 5.2889 8.06835C5.67995 7.12427 6.34218 6.31735 7.19183 5.74963C8.04149 5.18191 9.04041 4.87889 10.0623 4.87889C11.4327 4.88036 12.7465 5.42563 13.7152 6.39497C14.6839 7.36431 15.2284 8.67847 15.2289 10.0489V10.0456Z" fill="white"/>
</svg>
