<svg width="76" height="80" viewBox="0 0 76 80" fill="none" xmlns="http://www.w3.org/2000/svg">
<path d="M45.0678 51.9214C38.261 51.9214 31.8521 49.3415 27.4839 44.1904C23.2697 39.219 21.5712 32.6432 22.7007 25.6696C23.8216 18.7729 27.5823 12.3084 33.2981 7.46104C45.1534 -2.59302 61.8345 -2.46894 70.4853 7.73058C79.1361 17.9301 76.5263 34.4059 64.6711 44.46C58.8012 49.4357 51.7463 51.9214 45.0678 51.9214ZM52.9057 2.55808C46.8219 2.55808 40.3531 4.84699 34.9581 9.42051C29.7086 13.87 26.256 19.7869 25.2335 26.0803C24.2238 32.301 25.7169 38.1409 29.4391 42.5304C37.1743 51.6518 52.2297 51.639 63.0068 42.5005C73.7839 33.362 76.2568 18.5119 68.5258 9.39056C64.6668 4.83843 58.9766 2.55808 52.9057 2.55808Z" fill="#FF682B"/>
<path d="M45.5769 46.2611C40.2846 46.2611 35.2961 44.2503 31.8948 40.2458C25.1693 32.3138 27.1844 19.5173 36.3871 11.7137C40.798 7.97441 46.193 5.91653 51.588 5.91653C51.6136 5.91653 51.635 5.91653 51.6607 5.91653C57.1541 5.93365 61.9843 8.07709 65.2658 11.949C68.5472 15.8208 69.8692 20.9377 68.9922 26.3584C68.1237 31.7105 65.2059 36.7247 60.7778 40.4811C56.2299 44.3359 50.758 46.2568 45.5769 46.2611ZM51.5922 8.35946C46.7748 8.35946 41.9403 10.212 37.9701 13.5747C29.7985 20.5056 27.9117 31.7576 33.7645 38.6585C39.6172 45.5595 51.0275 45.5381 59.1991 38.6072C63.1865 35.2273 65.8091 30.7351 66.5835 25.9605C67.345 21.2543 66.2198 16.8391 63.409 13.5234C60.5981 10.2077 56.4225 8.37229 51.6607 8.35518C51.635 8.35946 51.6136 8.35946 51.5922 8.35946Z" fill="#FF682B"/>
<path d="M29.3847 44.1874L22.9683 50.6039L24.7834 52.419L31.1998 46.0026L29.3847 44.1874Z" fill="#FF682B"/>
<path d="M8.34273 75.3708C6.10517 75.3708 4.00879 74.5023 2.43864 72.9322C0.8685 71.3621 0 69.2614 0 67.0281C0 64.7906 0.864221 62.6985 2.43864 61.124L13.5067 50.056C15.0811 48.4859 17.1775 47.6174 19.4107 47.6174C21.6483 47.6174 23.7447 48.4859 25.3148 50.056C26.885 51.6262 27.7535 53.7225 27.7535 55.9601C27.7535 58.1977 26.8893 60.2898 25.3148 61.8642L14.2468 72.9322C12.6724 74.5023 10.576 75.3708 8.34273 75.3708ZM19.4107 50.7491C18.0117 50.7491 16.7026 51.2882 15.7186 52.2722L4.65054 63.3402C3.6708 64.3199 3.12745 65.6291 3.12745 67.0281C3.12745 68.4271 3.66652 69.7363 4.65054 70.7203C5.63027 71.7 6.93944 72.2391 8.33845 72.2391C9.73746 72.2391 11.0466 71.7 12.0306 70.716L23.0987 59.648C24.0784 58.6683 24.6217 57.3591 24.6217 55.9601C24.6217 54.5611 24.0827 53.2519 23.0987 52.2679C22.1189 51.2882 20.8098 50.7491 19.4107 50.7491Z" fill="#FF682B"/>
<path d="M57.5299 7.28974L29.7262 35.1013L31.5416 36.9162L59.3453 9.1046L57.5299 7.28974Z" fill="#FF682B"/>
<path d="M65.6621 15.4255L37.8545 43.2331L39.6696 45.0482L67.4773 17.2406L65.6621 15.4255Z" fill="#FF682B"/>
<path d="M38.2675 12.7359L36.4521 14.5508L60.7381 38.8435L62.5534 37.0287L38.2675 12.7359Z" fill="#FF682B"/>
<path d="M45.7509 7.39236L43.936 9.20773L65.7569 31.0224L67.5717 29.207L45.7509 7.39236Z" fill="#FF682B"/>
<path d="M32.0562 21.0858L30.2413 22.9012L52.0652 44.7189L53.8801 42.9035L32.0562 21.0858Z" fill="#FF682B"/>
<path d="M47.3353 80C46.1759 80 45.0036 79.7091 43.9212 79.1401C40.6868 77.433 39.2621 73.7537 40.7424 70.9385L43.4335 65.8259L45.1705 66.7415C48.1225 68.2988 51.0788 69.8518 54.0352 71.4134L55.1689 72.0124L52.4778 77.1207C51.742 78.5197 50.4157 79.4909 48.7471 79.8503C48.2851 79.9487 47.8102 80 47.3353 80ZM44.5116 69.2914L43.0185 72.1279C42.2099 73.6681 43.1725 75.8372 45.1191 76.864C46.1117 77.386 47.207 77.5528 48.2038 77.3389C49.1194 77.1421 49.8296 76.6372 50.2061 75.9228L51.7035 73.082C49.3033 71.8156 46.9075 70.5535 44.5116 69.2914Z" fill="#FF682B"/>
<path d="M42.8411 69.6907L41.844 71.5833L51.3066 76.5686L52.3036 74.6761L42.8411 69.6907Z" fill="#FF682B"/>
<path d="M46.6123 70.3952L42.4537 68.2132L47.6904 49.4399L53.603 55.6093L46.6123 70.3952ZM48.9568 54.4712L45.5769 66.5875L50.5312 56.1141L48.9568 54.4712Z" fill="#FF682B"/>
<path d="M53.7699 74.1686L49.3804 71.8541L57.6204 57.7271L66.0145 59.1047L53.7699 74.1686ZM52.9485 70.8358L53.1068 70.9171L61.2313 60.923L58.9467 60.5465L52.9485 70.8358Z" fill="#FF682B"/>
<path d="M51.6521 73.052L44.3405 69.1972L51.2457 54.5953L57.2268 54.467L59.7552 59.1646L51.6521 73.052ZM47.7118 68.0763L50.6766 69.6379L56.816 59.1175L55.7165 57.0725L52.8928 57.1324L47.7118 68.0763Z" fill="#FF682B"/>
</svg>