<svg width="80" height="80" viewBox="0 0 80 80" fill="none" xmlns="http://www.w3.org/2000/svg">
<path d="M40 80C17.9442 80 0 62.0558 0 40C0 17.9442 17.9442 0 40 0C62.0558 0 80 17.9442 80 40C80 62.0558 62.0558 80 40 80ZM40 2.7907C19.4837 2.7907 2.7907 19.4837 2.7907 40C2.7907 60.5163 19.4837 77.2093 40 77.2093C60.5163 77.2093 77.2093 60.5163 77.2093 40C77.2093 19.4837 60.5163 2.7907 40 2.7907Z" fill="#FF682B"/>
<path d="M47.907 51.1628H32.5581C31.9442 51.1628 31.4 50.7581 31.2232 50.1674L27.0372 36.214C26.8697 35.6558 27.0651 35.0558 27.5302 34.7023L39.1581 25.8651C39.6511 25.493 40.3256 25.4837 40.8279 25.8512L52.9209 34.6884C53.4 35.0372 53.6046 35.6512 53.4325 36.214L49.2465 50.1674C49.0651 50.7581 48.5256 51.1628 47.907 51.1628ZM33.5953 48.3721H46.8697L50.4744 36.3581L40.0186 28.7163L29.986 36.3395L33.5953 48.3721Z" fill="#FF682B"/>
<path d="M52.6465 37.0512C52.3302 37.0512 52.0186 36.9535 51.7581 36.7721L39.0093 27.8419C38.5907 27.5488 38.3442 27.0698 38.3488 26.5581L38.507 11.4837C38.5116 10.8558 38.9023 10.293 39.4837 10.0605L54.6558 4.06046C55.1395 3.86976 55.6884 3.93488 56.1163 4.23255L68.6744 13.0698C69.079 13.3535 69.3209 13.8139 69.3302 14.307L69.6418 32.7581C69.6558 33.5209 69.1116 34.1767 68.3628 34.307L52.9116 37.0233C52.8279 37.0419 52.7349 37.0512 52.6465 37.0512ZM41.4511 25.7721L53.0093 33.8651L66.5302 31.4884L66.2558 15.1442L55.0232 7.24185L41.5953 12.5535L41.4511 25.7721Z" fill="#FF682B"/>
<path d="M57.5999 63.6419C57.1488 63.6419 56.7162 63.4465 56.4186 63.0977L46.3488 51.2279C45.9906 50.8046 45.8837 50.2232 46.0697 49.707L51.3209 35.0512C51.5069 34.5302 51.9581 34.1488 52.5023 34.0512L67.8186 31.2698C68.3627 31.1721 68.9162 31.3721 69.2744 31.7907L79.3395 43.6605C79.6976 44.0837 79.8046 44.6605 79.6139 45.1814L74.3674 59.8372C74.1813 60.3581 73.7302 60.7395 73.186 60.8372L57.8697 63.6186C57.786 63.6325 57.693 63.6419 57.5999 63.6419ZM49.2883 49.9023L58.2046 60.4093L71.7627 57.9488L76.4093 44.9767L67.4976 34.4698L53.9395 36.9302L49.2883 49.9023Z" fill="#FF682B"/>
<path d="M27.7396 37.0512C27.6512 37.0512 27.5628 37.0419 27.4698 37.0279L12.0233 34.3116C11.2837 34.1814 10.7442 33.5395 10.7442 32.7907L10.7163 13.4279C10.7163 12.9209 10.9628 12.4465 11.3768 12.1581L24.1256 3.22792C24.5768 2.91164 25.1675 2.86048 25.6651 3.09303L40.707 10.0977C41.2372 10.3442 41.5814 10.8698 41.6 11.4558L42.0326 26.5302C42.0465 27.0512 41.8 27.5442 41.3721 27.8419L28.6233 36.7721C28.3675 36.9535 28.0558 37.0512 27.7396 37.0512ZM13.8372 31.4884L27.3768 33.8698L38.9163 25.7861L38.5349 12.5023L25.1721 6.27443L13.814 14.2279L13.8372 31.4884Z" fill="#FF682B"/>
<path d="M22.7907 63.6418C22.6977 63.6418 22.6047 63.6325 22.5163 63.6186L7.20001 60.8372C6.65582 60.7395 6.20466 60.3581 6.01861 59.8372L0.767448 45.1814C0.581402 44.6605 0.688378 44.0791 1.04187 43.6605L11.1116 31.7907C11.4698 31.3674 12.0233 31.1721 12.5674 31.2698L27.8837 34.0511C28.4279 34.1488 28.8791 34.5302 29.0651 35.0511L34.3116 49.707C34.4977 50.2279 34.3907 50.8093 34.0372 51.2279L23.9721 63.0977C23.6744 63.4418 23.2419 63.6418 22.7907 63.6418ZM8.62791 57.9488L22.1861 60.4093L31.0977 49.9023L26.4558 36.9302L12.8977 34.4698L3.9814 44.9767L8.62791 57.9488Z" fill="#FF682B"/>
<path d="M47.8419 78.7488H32.2745C31.7442 78.7488 31.2466 78.4744 30.9628 78.0232L21.4791 62.9163C21.1303 62.3581 21.1721 61.6418 21.5814 61.1256L31.0652 49.2697C31.3582 48.9023 31.8047 48.6884 32.2745 48.6884H47.8419C48.3024 48.6884 48.7442 48.893 49.0373 49.2511L58.7954 61.107C59.2233 61.6279 59.2652 62.3628 58.9024 62.9302L49.1442 78.0372C48.8559 78.479 48.3675 78.7488 47.8419 78.7488ZM33.1303 75.6511H47L55.6884 62.2L47.1117 51.7814H33.0187L24.6838 62.2L33.1303 75.6511Z" fill="#FF682B"/>
</svg>