<svg width="78" height="80" viewBox="0 0 78 80" fill="none" xmlns="http://www.w3.org/2000/svg">
<path d="M46.3777 54.9805C39.4873 54.9805 32.9953 52.369 28.5778 47.1546C19.8251 36.8298 22.4669 20.1516 34.4678 9.97403C40.2279 5.09313 47.2699 2.40366 54.3119 2.40366C54.3422 2.40366 54.3725 2.40366 54.4072 2.40366C61.5574 2.42964 67.8459 5.21006 72.1118 10.2425C76.3777 15.275 78.0971 21.9316 76.9537 28.9909C75.819 35.9723 72.0122 42.5162 66.2261 47.4231C60.2798 52.4643 53.1382 54.9805 46.3777 54.9805ZM54.3119 5.00651C47.8849 5.00651 41.4362 7.47511 36.1482 11.9576C25.2387 21.2083 22.7355 36.2408 30.5613 45.4742C38.3872 54.7077 53.6319 54.6947 64.5414 45.4439C69.8554 40.9398 73.3504 34.9502 74.3855 28.5795C75.4076 22.2824 73.8961 16.3707 70.1282 11.9273C66.3604 7.48378 60.7736 5.02817 54.3985 5.00651C54.3682 5.00651 54.3379 5.00651 54.3119 5.00651Z" fill="#FF682B"/>
<path d="M46.8931 49.32C46.8671 49.32 46.8455 49.32 46.8195 49.32C41.2413 49.3027 36.3301 47.1243 32.9997 43.1919C29.6692 39.2594 28.3223 34.0624 29.2145 28.5535C30.0936 23.1226 33.056 18.0338 37.5514 14.2226C46.8888 6.30144 60.046 6.41405 66.8758 14.4651C73.7056 22.5206 71.6614 35.5132 62.324 43.4344C57.8459 47.2326 52.3673 49.32 46.8931 49.32ZM52.9823 10.9441C48.3223 10.9441 43.3678 12.6981 39.2318 16.2062C35.2084 19.6189 32.5622 24.1533 31.7784 28.9736C31.0075 33.7202 32.1465 38.1724 34.9789 41.5115C37.8113 44.8549 42.0209 46.7042 46.8281 46.7215C46.8498 46.7215 46.8715 46.7215 46.8931 46.7215C51.7567 46.7215 56.6376 44.8549 60.6436 41.4552C68.8896 34.4608 70.7996 23.1096 64.8966 16.1499C61.9516 12.6808 57.612 10.9441 52.9823 10.9441Z" fill="#FF682B"/>
<path d="M19.8121 64.2875C19.4786 64.2875 19.1452 64.1619 18.894 63.9064L16.0962 61.1087C15.5895 60.602 15.5895 59.7791 16.0962 59.2724L29.3271 46.0416C29.8338 45.5348 30.6566 45.5348 31.1633 46.0416L33.9611 48.8393C34.4678 49.346 34.4678 50.1689 33.9611 50.6756L20.7303 63.9064C20.4791 64.1619 20.1456 64.2875 19.8121 64.2875ZM18.8507 60.1905L19.8121 61.152L31.2023 49.7618L30.2409 48.8003L18.8507 60.1905Z" fill="#FF682B"/>
<path d="M6.32579 80C5.32536 80 4.32492 79.6189 3.55836 78.861L1.14173 76.4444C-0.37841 74.9242 -0.382741 72.4426 1.14173 70.9138L12.5882 59.4673C14.1084 57.9472 16.59 57.9428 18.1188 59.4673L20.5354 61.8839C22.0555 63.4041 22.0599 65.8857 20.5354 67.4145L9.08456 78.861C8.32665 79.6189 7.32622 80 6.32579 80ZM5.39465 77.016C5.91002 77.5271 6.74155 77.5271 7.2526 77.016L18.6991 65.5695C19.2101 65.0585 19.2101 64.2226 18.6991 63.7116L16.2825 61.2949C15.7714 60.7839 14.9356 60.7839 14.4245 61.2949L2.97802 72.7415C2.46698 73.2525 2.46698 74.0884 2.97802 74.5994L5.39465 77.016Z" fill="#FF682B"/>
<path d="M28.777 56.2754C28.253 56.2754 27.7593 55.9549 27.5601 55.4352C27.3045 54.7639 27.6423 54.0147 28.3136 53.7592C28.5865 53.6552 35.0568 51.2256 39.6562 51.4508C40.3708 51.4855 40.9251 52.0961 40.8905 52.8107C40.8559 53.5253 40.2452 54.0927 39.5306 54.045C35.4769 53.8588 29.2967 56.1672 29.2361 56.1888C29.0845 56.2494 28.9286 56.2754 28.777 56.2754Z" fill="#FF682B"/>
<path d="M24.5631 52.8454C24.3986 52.8454 24.2297 52.8151 24.0694 52.7458C23.4068 52.4729 23.0906 51.715 23.3591 51.0524C23.3808 51.0004 25.5116 45.7384 24.9616 41.8017C24.862 41.0914 25.36 40.4331 26.0703 40.3335C26.7805 40.2382 27.4388 40.7319 27.5384 41.4422C28.1881 46.0806 25.8624 51.7973 25.7628 52.0399C25.5592 52.5422 25.0742 52.8454 24.5631 52.8454Z" fill="#FF682B"/>
<path d="M18.4998 21.1693C12.6618 21.1693 7.91516 16.4227 7.91516 10.5847C7.91516 4.74664 12.6618 0 18.4998 0C24.3378 0 29.0845 4.74664 29.0845 10.5847C29.0845 16.4227 24.3378 21.1693 18.4998 21.1693ZM18.4998 2.59853C14.0953 2.59853 10.5137 6.18016 10.5137 10.5847C10.5137 14.9892 14.0953 18.5708 18.4998 18.5708C22.9043 18.5708 26.486 14.9892 26.486 10.5847C26.486 6.18016 22.9043 2.59853 18.4998 2.59853Z" fill="#FF682B"/>
<path d="M26.1093 12.0398C24.3119 12.0398 21.6095 11.5938 19.3704 9.35902C15.8191 5.8077 16.066 2.27803 16.0789 2.12645C16.1396 1.41186 16.7676 0.87916 17.4822 0.939793C18.1924 1.00042 18.7208 1.61974 18.6731 2.33C18.6645 2.45993 18.5735 4.88522 21.211 7.52273C23.8052 10.1169 27.3436 9.35469 27.4908 9.32004C28.1881 9.1598 28.8853 9.59722 29.0456 10.2945C29.2058 10.9918 28.7771 11.6847 28.0798 11.8493C28.0019 11.8666 27.231 12.0398 26.1093 12.0398Z" fill="#FF682B"/>
<path d="M18.6731 20.4244C18.6211 20.4244 18.5648 20.4201 18.5129 20.4158C17.8026 20.3291 17.2959 19.6795 17.3825 18.9649C17.3955 18.861 17.651 16.1022 15.0092 13.4604C12.3327 10.7882 9.6952 10.8922 9.66922 10.8922C8.95029 10.9398 8.33097 10.4028 8.28333 9.68818C8.2357 8.97358 8.77272 8.34994 9.48732 8.3023C9.64323 8.29364 13.2985 8.08142 16.8455 11.6241C20.4228 15.1971 19.981 19.1208 19.9637 19.2854C19.8814 19.9437 19.3227 20.4244 18.6731 20.4244Z" fill="#FF682B"/>
<path d="M30.8125 37.5357C30.4747 37.5357 30.1412 37.4058 29.8857 37.146C29.3833 36.6349 29.392 35.812 29.903 35.3097L56.4903 9.23345C57.0013 8.73107 57.8242 8.73973 58.3266 9.25077C58.829 9.76182 58.8203 10.5847 58.3093 11.0871L31.722 37.1633C31.4708 37.4101 31.1417 37.5357 30.8125 37.5357Z" fill="#FF682B"/>
<path d="M36.4297 44.6774C36.1006 44.6774 35.7714 44.5518 35.5202 44.3049C35.0092 43.8025 35.0005 42.9797 35.5029 42.4686L64.0607 13.4257C64.5631 12.9147 65.386 12.906 65.897 13.4084C66.408 13.9108 66.4167 14.7337 65.9143 15.2447L37.3565 44.2876C37.101 44.5474 36.7675 44.6774 36.4297 44.6774Z" fill="#FF682B"/>
<path d="M43.1686 48.9562C42.8351 48.9562 42.5016 48.8263 42.2461 48.5708C41.7394 48.0597 41.7437 47.2369 42.2548 46.7345L67.9975 21.2343C68.5086 20.7276 69.3314 20.7319 69.8338 21.2429C70.3405 21.754 70.3362 22.5769 69.8251 23.0792L44.0824 48.5794C43.8312 48.8306 43.4977 48.9562 43.1686 48.9562Z" fill="#FF682B"/>
<path d="M69.5999 28.1204C69.275 28.1204 68.9502 27.9992 68.699 27.7566L50.9641 10.6107C50.4487 10.1126 50.4357 9.28976 50.9338 8.77439C51.4318 8.25901 52.2547 8.24602 52.7701 8.74407L70.505 25.89C71.0204 26.3881 71.0334 27.2109 70.5353 27.7263C70.2798 27.9862 69.9377 28.1204 69.5999 28.1204Z" fill="#FF682B"/>
<path d="M46.1395 49.3071C45.7973 49.3071 45.4509 49.1728 45.1954 48.9043L29.8684 32.7501C29.3747 32.2304 29.3963 31.4075 29.916 30.9138C30.4357 30.4201 31.2586 30.4418 31.7523 30.9615L47.0793 47.1113C47.573 47.631 47.5514 48.4539 47.0316 48.9476C46.7848 49.1901 46.46 49.3071 46.1395 49.3071Z" fill="#FF682B"/>
<path d="M66.3128 36.0156C65.9923 36.0156 65.6718 35.8987 65.4206 35.6605L42.467 14.0061C41.9429 13.5124 41.9213 12.6895 42.415 12.1698C42.9087 11.6501 43.7316 11.6241 44.2513 12.1178L67.205 33.7722C67.729 34.2659 67.7506 35.0888 67.2569 35.6085C67.0014 35.877 66.6593 36.0156 66.3128 36.0156Z" fill="#FF682B"/>
<path d="M55.4856 46.8428C55.1608 46.8428 54.836 46.7215 54.5848 46.479L32.0642 24.8246C31.5489 24.3266 31.5315 23.5037 32.0296 22.9883C32.5276 22.4686 33.3505 22.4556 33.8659 22.9537L56.3864 44.6081C56.9018 45.1061 56.9191 45.929 56.4211 46.4443C56.1656 46.7085 55.8278 46.8428 55.4856 46.8428Z" fill="#FF682B"/>
<path d="M62.4886 42.8454C62.1681 42.8454 61.8477 42.7285 61.5965 42.4903L35.6025 17.8562C35.0828 17.3625 35.0612 16.5396 35.5549 16.0199C36.0486 15.5002 36.8715 15.4786 37.3912 15.9723L63.3851 40.6063C63.9048 41.1 63.9265 41.9229 63.4328 42.4426C63.1772 42.7111 62.8308 42.8454 62.4886 42.8454Z" fill="#FF682B"/>
</svg>