<svg width="81" height="80" viewBox="0 0 81 80" fill="none" xmlns="http://www.w3.org/2000/svg">
<path d="M40.0017 80C17.9459 80 0.00170898 62.0558 0.00170898 40C0.00170898 17.9442 17.9459 0 40.0017 0C62.0575 0 80.0017 17.9442 80.0017 40C80.0017 62.0558 62.0575 80 40.0017 80ZM40.0017 2.7907C19.4854 2.7907 2.79241 19.4837 2.79241 40C2.79241 60.5163 19.4854 77.2093 40.0017 77.2093C60.518 77.2093 77.211 60.5163 77.211 40C77.211 19.4837 60.518 2.7907 40.0017 2.7907Z" fill="#FF682B"/>
<path d="M40.0008 43.3256C39.6287 43.3256 39.2659 43.1767 38.9962 42.8977C31.5822 35.2326 23.2148 32.7907 14.1217 35.6419C7.20546 37.8093 2.41011 42.3674 2.3636 42.4139C1.81011 42.9488 0.926387 42.9302 0.391504 42.3767C-0.14338 41.8232 -0.129427 40.9395 0.428713 40.4046C0.638015 40.2 5.67522 35.3953 13.1915 33.0093C20.0799 30.8233 30.3357 30.3674 40.4008 40.3488C43.8334 39.2558 57.7543 34.307 62.7962 24.6419C64.9868 20.4372 65.2194 15.8093 63.4799 10.8791C63.2241 10.1535 63.6055 9.35349 64.331 9.09767C65.0566 8.84186 65.8566 9.22325 66.1124 9.94883C68.1217 15.6419 67.838 21.0186 65.2706 25.9395C62.6055 31.0465 57.5915 35.5209 50.3682 39.2372C45.0566 41.9674 40.5636 43.2233 40.3729 43.2744C40.2473 43.3116 40.1264 43.3256 40.0008 43.3256Z" fill="#FF682B"/>
<path d="M44.9869 79.6791C44.9729 79.6791 44.9543 79.6791 44.9404 79.6791C37.6334 79.4372 32.159 74.1023 30.3031 65.4186C28.3962 56.5116 30.9357 44.814 39.3869 40.6791C40.0799 40.3395 40.9124 40.6279 41.252 41.3209C41.5915 42.014 41.3031 42.8512 40.6101 43.186C33.6892 46.5721 31.3171 56.8512 33.0287 64.8326C34.6008 72.186 39.0892 76.693 45.0287 76.8884C45.8008 76.9116 46.4008 77.5581 46.3776 78.3302C46.3543 79.0837 45.7357 79.6791 44.9869 79.6791Z" fill="#FF682B"/>
<path d="M31.3822 59.2558C30.7171 59.2558 30.1264 58.7767 30.0101 58.0977C29.8799 57.3395 30.3869 56.614 31.145 56.4837C31.345 56.4465 51.3032 52.893 59.6613 44.5302C68.0799 36.1116 72.5171 21.6698 72.559 21.5256C72.7822 20.786 73.559 20.3721 74.2985 20.5953C75.038 20.8186 75.452 21.5953 75.2287 22.3349C75.0427 22.9535 70.5543 37.5814 61.6334 46.5023C52.6473 55.4884 32.4753 59.0791 31.6194 59.2326C31.5404 59.2512 31.4613 59.2558 31.3822 59.2558Z" fill="#FF682B"/>
<path d="M33.3403 71.4791C32.7124 71.4791 32.1403 71.0512 31.9868 70.414C31.8054 69.6651 32.2612 68.9116 33.0101 68.7256C33.224 68.6744 54.2891 63.4512 62.6798 55.0558C71.1124 46.6233 76.0938 32.1442 76.145 32C76.3915 31.2698 77.1868 30.8791 77.9124 31.1256C78.6426 31.3721 79.0333 32.1674 78.7868 32.893C78.5775 33.5116 73.5542 48.1256 64.6519 57.0279C55.7077 65.9721 34.5682 71.214 33.6705 71.4326C33.5589 71.4651 33.4473 71.4791 33.3403 71.4791Z" fill="#FF682B"/>
<path d="M54.2427 36.7674C53.7915 36.7674 53.3496 36.5488 53.0799 36.1442C53.0427 36.093 49.0008 30.307 35.3775 23.8465C21.8706 17.4419 6.23336 23.8093 6.07522 23.8744C5.3636 24.1721 4.54499 23.8326 4.25197 23.1256C3.95429 22.414 4.28918 21.6 5.00081 21.3023C5.68453 21.0186 21.9264 14.3814 36.5729 21.3302C51.0101 28.1814 55.2287 34.3442 55.4008 34.6047C55.8287 35.2465 55.652 36.1116 55.0148 36.5395C54.7775 36.693 54.5078 36.7674 54.2427 36.7674Z" fill="#FF682B"/>
<path d="M63.6659 25.1116C63.2147 25.1116 62.7729 24.893 62.5031 24.4884C62.4659 24.4372 58.424 18.6512 44.8008 12.1907C31.2938 5.7814 15.6566 12.1535 15.4984 12.2186C14.7868 12.5163 13.9682 12.1767 13.6752 11.4698C13.3775 10.7581 13.7124 9.94419 14.424 9.64652C15.1077 9.36279 31.345 2.72558 45.9961 9.67442C60.4333 16.5256 64.6519 22.6884 64.824 22.9488C65.2519 23.5907 65.0752 24.4558 64.438 24.8837C64.2008 25.0372 63.931 25.1116 63.6659 25.1116Z" fill="#FF682B"/>
<path d="M13.652 69.6093C13.1357 69.6093 12.6333 69.3209 12.3961 68.8186C12.224 68.4651 8.20079 59.9953 8.87521 49.7302C9.55428 39.4605 13.4147 33.4884 13.5775 33.2419C14.0008 32.6 14.8659 32.4186 15.5124 32.8419C16.1543 33.2651 16.3357 34.1302 15.9124 34.7767C15.8799 34.8279 12.2892 40.4325 11.6659 49.9163C11.0427 59.4232 14.8799 67.5302 14.9171 67.6093C15.252 68.3023 14.9589 69.1395 14.2659 69.4698C14.0613 69.5628 13.8566 69.6093 13.652 69.6093Z" fill="#FF682B"/>
<path d="M25.7171 77.2698C25.1078 77.2698 24.5496 76.8698 24.3729 76.2558C24.1869 75.5907 19.7822 59.8744 20.4427 49.7349C21.1217 39.3628 26.3264 33.3395 26.545 33.0884C27.0566 32.5116 27.9357 32.4558 28.5124 32.9628C29.0892 33.4698 29.145 34.3535 28.638 34.9302C28.5915 34.9814 23.838 40.5349 23.2241 49.9116C22.5915 59.5721 27.0101 75.3349 27.052 75.493C27.2613 76.2326 26.8287 77.0047 26.0892 77.214C25.9682 77.2512 25.8427 77.2698 25.7171 77.2698Z" fill="#FF682B"/>
</svg>