<svg width="41" height="40" viewBox="0 0 41 40" fill="none" xmlns="http://www.w3.org/2000/svg">
<path d="M20.0014 40C8.9719 40 0.00137329 31.0274 0.00137329 20C0.00137329 8.97053 8.974 0 20.0014 0C31.0308 0 40.0014 8.97263 40.0014 20C40.0014 31.0295 31.0308 40 20.0014 40ZM20.0014 1.39368C9.74243 1.39368 1.39506 9.74105 1.39506 20C1.39506 30.2589 9.74243 38.6063 20.0014 38.6063C30.2603 38.6063 38.6077 30.2589 38.6077 20C38.6077 9.74105 30.2603 1.39368 20.0014 1.39368Z" fill="white"/>
<path d="M11.4593 37.9768C11.1287 37.9768 10.8361 37.741 10.7729 37.4063C10.6803 36.901 8.49294 24.9726 8.46978 20.8126C8.44873 16.2568 10.6761 3.1263 10.7708 2.57051C10.8361 2.19156 11.1961 1.93472 11.575 1.99998C11.954 2.06524 12.2108 2.42524 12.1456 2.80419C12.1224 2.93893 9.84452 16.3705 9.86557 20.8063C9.88663 24.8442 12.1224 37.0316 12.1456 37.1537C12.215 37.5326 11.9645 37.8968 11.5856 37.9663C11.5435 37.9747 11.5014 37.9768 11.4593 37.9768Z" fill="white"/>
<path d="M14.2087 21.5073C13.8971 21.5073 13.6108 21.5052 13.354 21.501C9.37503 21.44 0.724501 20.701 0.638186 20.6947C0.255028 20.661 -0.0291827 20.3242 0.00239625 19.941C0.0360805 19.5579 0.372922 19.2716 0.75608 19.3052C0.842396 19.3137 9.4445 20.0463 13.375 20.1073C18.9729 20.1873 39.0698 19.3116 39.2719 19.3031C39.655 19.2884 39.9834 19.5852 40.0003 19.9705C40.0171 20.3558 39.7182 20.6821 39.3329 20.6989C39.1413 20.7052 20.7813 21.5073 14.2087 21.5073Z" fill="white"/>
<path d="M13.7161 12.1053C7.56241 12.1053 5.01505 7.77683 4.90768 7.59157C4.7161 7.25683 4.83189 6.83157 5.16662 6.63999C5.49926 6.44841 5.92452 6.5642 6.1182 6.89683C6.20873 7.05262 8.3982 10.7095 13.7161 10.7095C19.7456 10.7095 33.055 5.54946 33.1898 5.49894C33.5498 5.35999 33.954 5.53683 34.0929 5.89473C34.2319 6.25473 34.055 6.65894 33.6971 6.79788C33.1393 7.01683 20.0066 12.1053 13.7161 12.1053Z" fill="white"/>
<path d="M5.82977 33.52C5.57504 33.52 5.33082 33.381 5.20661 33.1389C5.03188 32.7958 5.16872 32.3747 5.51188 32.2C5.7203 32.0947 10.6719 29.6 14.9666 29.7621C21.2424 29.9979 34.5056 31.9916 34.6382 32.0105C35.0192 32.0673 35.2824 32.4231 35.2235 32.8042C35.1645 33.1852 34.8108 33.4463 34.4298 33.3895C34.2971 33.3684 21.1119 31.3873 14.914 31.1537C10.9877 31.0042 6.19188 33.4168 6.14556 33.44C6.04451 33.4968 5.93714 33.52 5.82977 33.52Z" fill="white"/>
</svg>