<svg width="40" height="40" viewBox="0 0 40 40" fill="none" xmlns="http://www.w3.org/2000/svg">
<path d="M20 0C8.95371 0 0 8.95371 0 20C0 31.0463 8.95371 40 20 40C31.0463 40 40 31.0463 40 20C40 8.95721 31.0463 0 20 0ZM30.5921 15.3712L16.5729 26.6306C16.3843 26.7808 16.1537 26.8611 15.9162 26.8611C15.8777 26.8611 15.8393 26.8576 15.7974 26.8541C15.5214 26.8227 15.2664 26.683 15.0917 26.4629L9.24367 19.0672C8.88384 18.6131 8.9607 17.9528 9.41485 17.5965C9.86899 17.2367 10.5293 17.3135 10.8856 17.7677L16.0803 24.3354L29.2751 13.7397C29.7258 13.3764 30.386 13.4498 30.7493 13.9004C31.1127 14.3511 31.0428 15.0079 30.5921 15.3712Z" fill="#FF682B"/>
</svg>