<svg width="35" height="40" viewBox="0 0 35 40" fill="none" xmlns="http://www.w3.org/2000/svg">
<path d="M33.5171 6.55236H31.6057V3.86006C31.6057 3.538 31.3438 3.27618 31.0218 3.27618H29.1103V0.583874C29.1103 0.261816 28.8485 0 28.5264 0H0.583874C0.261817 0 0 0.261816 0 0.583874V32.8614C0 33.1835 0.261817 33.4453 0.583874 33.4453H2.49537V36.1376C2.49537 36.4597 2.75718 36.7215 3.07924 36.7215H4.99073V39.4161C4.99073 39.7382 5.25255 40 5.57461 40H33.5171C33.8392 40 34.101 39.7382 34.101 39.4161V7.13624C34.101 6.81418 33.8392 6.55236 33.5171 6.55236ZM1.16775 32.2776V1.16775H27.9425V3.86006V32.2776H3.07924H1.16775ZM3.66311 35.5538V33.4453H28.5264C28.8485 33.4453 29.1103 33.1835 29.1103 32.8614V4.44393H30.4379V7.11307C30.4379 7.12002 30.4356 7.12697 30.4356 7.13624V35.5538H5.57461H3.66311ZM6.15848 36.7215H31.0218C31.3438 36.7215 31.6057 36.4597 31.6057 36.1376V7.72011H32.9333V38.8323H6.15848V36.7215Z" fill="#FF682B"/>
<path d="M26.0287 3.27618H3.07924C2.75718 3.27618 2.49536 3.538 2.49536 3.86006C2.49536 4.18212 2.75718 4.44393 3.07924 4.44393H26.0287C26.3508 4.44393 26.6126 4.18212 26.6126 3.86006C26.6126 3.538 26.3508 3.27618 26.0287 3.27618Z" fill="#FF682B"/>
<path d="M26.0287 6.95087H3.07924C2.75718 6.95087 2.49536 7.21268 2.49536 7.53474C2.49536 7.8568 2.75718 8.11861 3.07924 8.11861H26.0287C26.3508 8.11861 26.6126 7.8568 26.6126 7.53474C26.6126 7.21268 26.3508 6.95087 26.0287 6.95087Z" fill="#FF682B"/>
<path d="M26.0287 10.6279H3.07924C2.75718 10.6279 2.49536 10.8897 2.49536 11.2117C2.49536 11.5338 2.75718 11.7956 3.07924 11.7956H26.0287C26.3508 11.7956 26.6126 11.5338 26.6126 11.2117C26.6126 10.8897 26.3508 10.6279 26.0287 10.6279Z" fill="#FF682B"/>
<path d="M26.0287 14.3026H3.07924C2.75718 14.3026 2.49536 14.5644 2.49536 14.8865C2.49536 15.2085 2.75718 15.4704 3.07924 15.4704H26.0287C26.3508 15.4704 26.6126 15.2085 26.6126 14.8865C26.6126 14.5644 26.3508 14.3026 26.0287 14.3026Z" fill="#FF682B"/>
<path d="M26.0287 17.9773H3.07924C2.75718 17.9773 2.49536 18.2391 2.49536 18.5612C2.49536 18.8832 2.75718 19.145 3.07924 19.145H26.0287C26.3508 19.145 26.6126 18.8832 26.6126 18.5612C26.6126 18.2391 26.3508 17.9773 26.0287 17.9773Z" fill="#FF682B"/>
<path d="M26.0287 21.652H3.07924C2.75718 21.652 2.49536 21.9138 2.49536 22.2359C2.49536 22.5579 2.75718 22.8197 3.07924 22.8197H26.0287C26.3508 22.8197 26.6126 22.5579 26.6126 22.2359C26.6126 21.9138 26.3508 21.652 26.0287 21.652Z" fill="#FF682B"/>
<path d="M26.0287 25.329H3.07924C2.75718 25.329 2.49536 25.5908 2.49536 25.9129C2.49536 26.2349 2.75718 26.4967 3.07924 26.4967H26.0287C26.3508 26.4967 26.6126 26.2349 26.6126 25.9129C26.6126 25.5908 26.3508 25.329 26.0287 25.329Z" fill="#FF682B"/>
</svg>