<svg width="51" height="35" viewBox="0 0 51 35" fill="none" xmlns="http://www.w3.org/2000/svg">
<path d="M50.3657 14.863H49.3971V8.48283C49.4343 8.4 49.4529 8.31717 49.4529 8.23168C49.4529 8.14618 49.4343 8.06069 49.3971 7.98054V0.587786C49.3971 0.264504 49.1318 0 48.8053 0H2.03809C1.71168 0 1.4463 0.264504 1.4463 0.587786V7.86565C1.37996 7.96718 1.34546 8.08206 1.34546 8.20229C1.34546 8.32252 1.37996 8.4374 1.4463 8.53893V14.8336H0.634249C0.283953 14.8336 0 15.1141 0 15.4615V18.916C0 19.2634 0.283953 19.5439 0.634249 19.5439H1.4463V26.0282C1.37996 26.1298 1.34546 26.2447 1.34546 26.3649C1.34546 26.4851 1.37996 26.6 1.4463 26.7015V34.4122C1.4463 34.7355 1.71168 35 2.03809 35H48.808C48.9672 35 49.1238 34.9332 49.2326 34.8183C49.3414 34.7061 49.3998 34.5565 49.3971 34.4122V26.6454C49.4316 26.5653 49.4502 26.4824 49.4529 26.3943C49.4529 26.3088 49.4343 26.2233 49.3971 26.1431V19.576H50.3631C50.7081 19.576 50.992 19.2954 51 18.9481V15.4908C51 15.1435 50.716 14.863 50.3657 14.863ZM49.7315 16.1187V18.3202H49.3971V16.1187H49.7315ZM39.7321 17.2088C39.7321 16.1401 40.0161 15.4962 40.3186 15.1168V19.2687C40.0161 18.9053 39.7321 18.2775 39.7321 17.2088ZM40.3186 8.23168V13.5298C39.7932 13.7863 38.4636 14.6813 38.4636 17.2088C38.4636 19.6828 39.7003 20.5485 40.3186 20.829V26.3943C40.3186 26.7416 40.6026 27.0221 40.9529 27.0221H48.2135V33.8218H25.8264V21.3847C27.8672 21.1015 29.3931 19.4076 29.3931 17.3958C29.3931 15.384 27.8672 13.6901 25.8264 13.4069V1.17824H48.2135V7.60382H40.9529C40.6026 7.60382 40.3186 7.88435 40.3186 8.23168ZM25.8264 20.1878V14.6038C27.1931 14.871 28.2068 16.0466 28.2068 17.3958C28.2068 18.745 27.1931 19.9206 25.8264 20.1878ZM45.4828 13.0569V21.358C45.4828 21.7053 45.7668 21.9859 46.1171 21.9859H48.2135V25.7664H41.5871V8.85954H48.2135V12.429H46.1171C45.7668 12.429 45.4828 12.7095 45.4828 13.0569ZM48.2135 13.6847V20.7302H46.7513V13.6847H48.2135ZM24.6428 14.6038V20.1905C23.2761 19.9233 22.2624 18.7477 22.2624 17.3985C22.2624 16.0466 23.2761 14.871 24.6428 14.6038ZM11.0688 17.1767C11.0688 18.2401 10.7822 18.8679 10.4797 19.234V15.0794C10.7822 15.4588 11.0688 16.1027 11.0688 17.1767ZM10.4797 26.3649V20.7943C11.098 20.5164 12.3347 19.6481 12.3347 17.174C12.3347 14.6466 11.0052 13.7515 10.4797 13.495V8.20229C10.4797 7.85496 10.1958 7.57443 9.84546 7.57443H2.63253V1.17824H24.6428V13.4069C22.6021 13.6901 21.0762 15.384 21.0762 17.3958C21.0762 19.4076 22.6021 21.1015 24.6428 21.3847V33.8218H2.63253V26.9927H9.84546C10.1931 26.9927 10.4717 26.7176 10.4797 26.3649ZM5.38183 21.3286V13.0275C5.38183 12.6802 5.09788 12.3996 4.74758 12.3996H2.63253V8.83015H9.21121V25.737H2.63253V21.9565H4.74758C5.09522 21.9565 5.37387 21.6813 5.38183 21.3286ZM2.63253 20.7008V13.6553H4.11333V20.7008H2.63253ZM1.4463 16.0893V18.2908H1.2685V16.0893H1.4463Z" fill="white"/>
</svg>