<svg width="30" height="20" viewBox="0 0 30 20" fill="none" xmlns="http://www.w3.org/2000/svg">
<path d="M28.9756 8.49313H28.4183V4.84733C28.4397 4.8 28.4504 4.75267 28.4504 4.70382C28.4504 4.65496 28.4397 4.60611 28.4183 4.56031V0.335878C28.4183 0.151145 28.2656 0 28.0779 0H1.17252C0.984733 0 0.832061 0.151145 0.832061 0.335878V4.49466C0.793893 4.55267 0.774046 4.61832 0.774046 4.68702C0.774046 4.75572 0.793893 4.82137 0.832061 4.87939V8.47634H0.364885C0.163359 8.47634 0 8.63664 0 8.83511V10.8092C0 11.0076 0.163359 11.1679 0.364885 11.1679H0.832061V14.8733C0.793893 14.9313 0.774046 14.9969 0.774046 15.0656C0.774046 15.1343 0.793893 15.2 0.832061 15.258V19.6641C0.832061 19.8489 0.984733 20 1.17252 20H28.0794C28.171 20 28.2611 19.9618 28.3237 19.8962C28.3863 19.8321 28.4198 19.7466 28.4183 19.6641V15.226C28.4382 15.1802 28.4489 15.1328 28.4504 15.0824C28.4504 15.0336 28.4397 14.9847 28.4183 14.9389V11.1863H28.974C29.1725 11.1863 29.3359 11.026 29.3405 10.8275V8.85191C29.3405 8.65344 29.1771 8.49313 28.9756 8.49313ZM28.6107 9.21069V10.4687H28.4183V9.21069H28.6107ZM22.858 9.83359C22.858 9.2229 23.0214 8.85496 23.1954 8.63817V11.0107C23.0214 10.8031 22.858 10.4443 22.858 9.83359ZM23.1954 4.70382V7.7313C22.8931 7.87786 22.1282 8.38931 22.1282 9.83359C22.1282 11.2473 22.8397 11.742 23.1954 11.9023V15.0824C23.1954 15.2809 23.3588 15.4412 23.5603 15.4412H27.7374V19.3267H14.858V12.2198C16.0321 12.058 16.9099 11.0901 16.9099 9.94046C16.9099 8.79084 16.0321 7.8229 14.858 7.66107V0.673282H27.7374V4.34504H23.5603C23.3588 4.34504 23.1954 4.50534 23.1954 4.70382ZM14.858 11.5359V8.34504C15.6443 8.49771 16.2275 9.16947 16.2275 9.94046C16.2275 10.7115 15.6443 11.3832 14.858 11.5359ZM26.1664 7.46107V12.2046C26.1664 12.4031 26.3298 12.5634 26.5313 12.5634H27.7374V14.7237H23.9252V5.0626H27.7374V7.10229H26.5313C26.3298 7.10229 26.1664 7.2626 26.1664 7.46107ZM27.7374 7.81985V11.8458H26.8962V7.81985H27.7374ZM14.1771 8.34504V11.5374C13.3908 11.3847 12.8076 10.713 12.8076 9.94199C12.8076 9.16947 13.3908 8.49771 14.1771 8.34504ZM6.36794 9.81527C6.36794 10.4229 6.20305 10.7817 6.02901 10.9908V8.61679C6.20305 8.83359 6.36794 9.20153 6.36794 9.81527ZM6.02901 15.0656V11.8824C6.38473 11.7237 7.09618 11.2275 7.09618 9.81374C7.09618 8.36947 6.3313 7.85802 6.02901 7.71145V4.68702C6.02901 4.48855 5.86565 4.32824 5.66412 4.32824H1.5145V0.673282H14.1771V7.66107C13.0031 7.8229 12.1252 8.79084 12.1252 9.94046C12.1252 11.0901 13.0031 12.058 14.1771 12.2198V19.3267H1.5145V15.4244H5.66412C5.86412 15.4244 6.02443 15.2672 6.02901 15.0656ZM3.09618 12.1878V7.44427C3.09618 7.2458 2.93282 7.0855 2.7313 7.0855H1.5145V5.0458H5.29924V14.7069H1.5145V12.5466H2.7313C2.9313 12.5466 3.0916 12.3893 3.09618 12.1878ZM1.5145 11.829V7.80305H2.36641V11.829H1.5145ZM0.832061 9.19389V10.4519H0.729771V9.19389H0.832061Z" fill="white"/>
</svg>