<svg width="63" height="90" viewBox="0 0 63 90" fill="none" xmlns="http://www.w3.org/2000/svg">
<path d="M53.9146 88.4681L46.1077 66.3974C46.0284 66.1732 45.8817 65.979 45.6876 65.8416C45.4935 65.7041 45.2616 65.6302 45.0237 65.6299H11.3959C11.1473 65.6307 10.9055 65.7113 10.7062 65.8598C10.5068 66.0083 10.3603 66.2168 10.2883 66.4547L3.78086 88.5254C3.73048 88.6962 3.72067 88.8765 3.75223 89.0519C3.78379 89.2272 3.85584 89.3927 3.96265 89.5353C4.06997 89.6788 4.20914 89.7955 4.3692 89.8761C4.52927 89.9567 4.70585 89.9991 4.88507 89.9999H52.8373C53.0218 89.9996 53.2036 89.9552 53.3673 89.8702C53.5311 89.7853 53.6721 89.6623 53.7786 89.5117C53.8851 89.361 53.9539 89.187 53.9793 89.0043C54.0048 88.8216 53.986 88.6354 53.9247 88.4614L53.9146 88.4681ZM51.2214 87.7006H6.44712L12.2779 67.9326H44.2191L51.2214 87.7006Z" fill="#FF682B"/>
<path d="M62.3747 56.8799L52.5917 5.41974C52.5422 5.15586 52.4021 4.91756 52.1955 4.74605C51.989 4.57454 51.729 4.4806 51.4605 4.48049H9.31209C9.03721 4.47899 8.77096 4.57648 8.56204 4.75512C8.35311 4.93376 8.21545 5.18162 8.17422 5.4534L0.0138484 56.927C-0.00959534 57.0768 -0.0032255 57.2297 0.0325928 57.3771C0.0684111 57.5244 0.132972 57.6632 0.22257 57.7855C0.310624 57.9085 0.422405 58.0127 0.551333 58.0919C0.680261 58.1711 0.823731 58.2238 0.973299 58.2467C1.03379 58.2517 1.09459 58.2517 1.15509 58.2467C1.43128 58.2471 1.69837 58.148 1.90737 57.9674C2.11638 57.7868 2.25327 57.537 2.29296 57.2637L10.2951 6.76633H50.5078L60.109 57.3108C60.1794 57.5981 60.3574 57.8475 60.6062 58.0074C60.855 58.1674 61.1557 58.2258 61.4463 58.1705C61.7369 58.1152 61.9953 57.9505 62.168 57.7104C62.3407 57.4703 62.4147 57.173 62.3747 56.8799Z" fill="#FF682B"/>
<path d="M45.0777 15.984L43.5493 15.1491L42.6505 13.4995C42.5245 13.2699 42.3392 13.0784 42.1138 12.945C41.8885 12.8116 41.6314 12.7412 41.3695 12.7412C41.1077 12.7412 40.8506 12.8116 40.6253 12.945C40.3999 13.0784 40.2146 13.2699 40.0886 13.4995L39.1897 15.139L37.4728 16.0782C37.2502 16.2 37.0644 16.3794 36.935 16.5977C36.8056 16.816 36.7373 17.065 36.7373 17.3188C36.7373 17.5726 36.8056 17.8216 36.935 18.0399C37.0644 18.2582 37.2502 18.4376 37.4728 18.5594L39.1897 19.4952L40.331 21.5858C40.4335 21.771 40.5837 21.9254 40.766 22.0329C40.9484 22.1404 41.1562 22.1971 41.3679 22.1971C41.5795 22.1971 41.7874 22.1404 41.9697 22.0329C42.152 21.9254 42.3023 21.771 42.4047 21.5858L43.5493 19.4952L45.0777 18.6603C45.3202 18.5289 45.5227 18.3344 45.6638 18.0973C45.805 17.8603 45.8795 17.5896 45.8795 17.3138C45.8795 17.0379 45.805 16.7672 45.6638 16.5302C45.5227 16.2931 45.3202 16.0986 45.0777 15.9672V15.984ZM42.9838 17.3306L42.4451 17.6235C42.115 17.8047 41.844 18.077 41.6641 18.4079L41.3679 18.9431L41.075 18.4079C40.8938 18.0769 40.6216 17.8047 40.2906 17.6235L39.7553 17.3306L40.2939 17.0377C40.624 16.8564 40.8951 16.5842 41.075 16.2533L41.3679 15.718L41.6641 16.2533C41.843 16.5849 42.1143 16.8574 42.4451 17.0377L42.9838 17.3306Z" fill="#FF682B"/>
<path d="M40.0447 22.7845L39.119 22.2762L38.5736 21.2662C38.497 21.1265 38.3842 21.0099 38.2471 20.9287C38.11 20.8475 37.9536 20.8047 37.7942 20.8047C37.6349 20.8047 37.4785 20.8475 37.3414 20.9287C37.2043 21.0099 37.0915 21.1265 37.0149 21.2662L36.4695 22.2762L35.4293 22.8451C35.2936 22.9184 35.1802 23.027 35.1012 23.1595C35.0222 23.2919 34.9805 23.4433 34.9805 23.5975C34.9805 23.7518 35.0222 23.9031 35.1012 24.0356C35.1802 24.168 35.2936 24.2767 35.4293 24.3499L36.4695 24.9189L37.163 26.188C37.2253 26.3014 37.3169 26.3959 37.4282 26.4617C37.5396 26.5274 37.6666 26.562 37.7959 26.5617C37.9252 26.5638 38.0526 26.5303 38.1641 26.465C38.2757 26.3997 38.3673 26.3051 38.4288 26.1914L39.1257 24.9222L40.0515 24.4173C40.1984 24.3374 40.321 24.2195 40.4064 24.0758C40.4918 23.9321 40.5369 23.7681 40.5369 23.6009C40.5369 23.4337 40.4918 23.2697 40.4064 23.126C40.321 22.9823 40.1984 22.8643 40.0515 22.7845H40.0447ZM38.7655 23.5992L38.4288 23.7776C38.2324 23.8958 38.0736 24.0675 37.971 24.2725L37.7959 24.6092L37.6175 24.2725C37.5069 24.0709 37.341 23.9051 37.1395 23.7945L36.8028 23.616L37.1395 23.4376C37.3416 23.3293 37.5077 23.1643 37.6175 22.9629L37.7926 22.6263L37.971 22.9629C38.0816 23.1645 38.2474 23.3304 38.449 23.441L38.7655 23.5992Z" fill="#FF682B"/>
<path d="M45.5724 24.3868L44.8015 23.966L44.347 23.1345C44.283 23.0188 44.1891 22.9223 44.0751 22.8551C43.9612 22.7879 43.8313 22.7524 43.699 22.7524C43.5667 22.7524 43.4368 22.7879 43.3228 22.8551C43.2089 22.9223 43.115 23.0188 43.0509 23.1345L42.5965 23.966L41.7313 24.4373C41.6181 24.4985 41.5235 24.5892 41.4576 24.6997C41.3917 24.8102 41.3569 24.9365 41.3569 25.0652C41.3569 25.1939 41.3917 25.3202 41.4576 25.4307C41.5235 25.5412 41.6181 25.6319 41.7313 25.693L42.5965 26.1677L43.1755 27.2214C43.2267 27.3156 43.3023 27.3942 43.3945 27.449C43.4866 27.5038 43.5918 27.5327 43.699 27.5327C43.8062 27.5327 43.9114 27.5038 44.0035 27.449C44.0956 27.3942 44.1713 27.3156 44.2225 27.2214L44.8015 26.1677L45.5724 25.7435C45.6923 25.6767 45.7922 25.579 45.8617 25.4607C45.9312 25.3423 45.9679 25.2075 45.9679 25.0702C45.9679 24.933 45.9312 24.7982 45.8617 24.6798C45.7922 24.5615 45.6923 24.4638 45.5724 24.3969V24.3868ZM44.5154 25.0601L44.2427 25.2083C44.0735 25.3041 43.9355 25.4467 43.8454 25.619L43.6973 25.8917L43.5492 25.619C43.4564 25.4469 43.3146 25.3063 43.1418 25.215L42.8691 25.0669L43.1418 24.9188C43.3079 24.8261 43.4444 24.6884 43.5357 24.5215L43.6838 24.2488L43.832 24.5215C43.9241 24.6888 44.0619 24.8266 44.2292 24.9188L44.5154 25.0601Z" fill="#FF682B"/>
<path d="M11.1063 57.8999H11.0188C10.8484 57.8765 10.6942 57.7864 10.5901 57.6495C10.4859 57.5126 10.4404 57.3399 10.4634 57.1694L15.099 23.3732C15.1105 23.289 15.1385 23.2079 15.1813 23.1345C15.2242 23.061 15.2811 22.9968 15.3487 22.9454C15.4164 22.8939 15.4936 22.8564 15.5758 22.8347C15.658 22.8131 15.7436 22.8079 15.8279 22.8194C15.9121 22.8309 15.9932 22.8589 16.0666 22.9017C16.14 22.9446 16.2043 23.0015 16.2557 23.0692C16.3071 23.1368 16.3447 23.214 16.3663 23.2962C16.3879 23.3784 16.3931 23.464 16.3816 23.5483L11.746 57.3411C11.7248 57.4958 11.6484 57.6376 11.5308 57.7403C11.4133 57.843 11.2625 57.8997 11.1063 57.8999Z" fill="#FF682B"/>
<path d="M11.1064 58.4054H10.9482C10.7966 58.3818 10.6513 58.3283 10.5207 58.248C10.39 58.1676 10.2767 58.0621 10.1873 57.9374C10.0953 57.8175 10.0282 57.6804 9.99 57.5341C9.95184 57.3878 9.94339 57.2353 9.96515 57.0857L14.6008 23.303C14.6214 23.1531 14.6712 23.0088 14.7476 22.8782C14.8239 22.7476 14.9252 22.6333 15.0458 22.5419C15.1663 22.4504 15.3036 22.3836 15.4499 22.3453C15.5963 22.3069 15.7487 22.2977 15.8986 22.3183C16.0485 22.3389 16.1928 22.3887 16.3234 22.4651C16.454 22.5414 16.5683 22.6427 16.6597 22.7633C16.7512 22.8838 16.818 23.0211 16.8563 23.1674C16.8947 23.3138 16.9038 23.4662 16.8833 23.6161L12.2476 57.4089C12.2095 57.6847 12.073 57.9374 11.8633 58.1205C11.6536 58.3036 11.3848 58.4048 11.1064 58.4054ZM15.742 23.3165C15.7075 23.3169 15.6742 23.3297 15.6483 23.3526C15.6224 23.3754 15.6055 23.4068 15.6007 23.441L10.965 57.2338C10.9621 57.2522 10.9629 57.2709 10.9676 57.2888C10.9722 57.3068 10.9805 57.3236 10.9919 57.3382C11.0026 57.3537 11.0166 57.3666 11.0329 57.3759C11.0492 57.3853 11.0674 57.3908 11.0862 57.3921H11.1064C11.1409 57.3916 11.1742 57.3788 11.2001 57.3559C11.2261 57.3331 11.243 57.3017 11.2478 57.2675L15.8733 23.4814C15.8762 23.4628 15.8753 23.4439 15.8707 23.4256C15.8661 23.4074 15.858 23.3902 15.8467 23.3752C15.8354 23.3601 15.8212 23.3475 15.805 23.338C15.7888 23.3285 15.7708 23.3223 15.7521 23.3198L15.742 23.3165Z" fill="#FF682B"/>
<path d="M51.7199 58.4996C51.5647 58.4997 51.4148 58.4439 51.2973 58.3426C51.1799 58.2412 51.1028 58.101 51.0802 57.9475L46.8081 29.5243C46.7895 29.4375 46.7889 29.3478 46.8063 29.2608C46.8237 29.1737 46.8587 29.0912 46.9092 29.0182C46.9597 28.9452 47.0247 28.8834 47.1 28.8365C47.1754 28.7895 47.2595 28.7586 47.3473 28.7454C47.4351 28.7323 47.5246 28.7373 47.6104 28.7601C47.6962 28.7829 47.7764 28.823 47.846 28.878C47.9157 28.933 47.9734 29.0017 48.0154 29.0799C48.0575 29.158 48.0832 29.2439 48.0908 29.3324L52.3595 57.7556C52.3724 57.8396 52.3686 57.9254 52.3484 58.0079C52.3281 58.0905 52.2917 58.1682 52.2414 58.2367C52.1911 58.3052 52.1277 58.363 52.055 58.407C51.9822 58.451 51.9015 58.4802 51.8175 58.4929L51.7199 58.4996Z" fill="#FF682B"/>
<path d="M51.7197 59.0045C51.4439 59.0023 51.1778 58.9023 50.9688 58.7223C50.7599 58.5423 50.6215 58.2939 50.5785 58.0215L46.3098 29.5982C46.2647 29.2964 46.341 28.9889 46.5219 28.7431C46.6113 28.6206 46.7245 28.5172 46.8546 28.4391C46.9847 28.3611 47.1291 28.3099 47.2793 28.2887C47.4288 28.2657 47.5813 28.2726 47.7282 28.3088C47.875 28.345 48.0132 28.4098 48.1349 28.4996C48.2566 28.5894 48.3594 28.7023 48.4373 28.8319C48.5152 28.9615 48.5667 29.1053 48.5889 29.2548L52.861 57.6815C52.9045 57.9835 52.827 58.2904 52.6455 58.5356C52.4639 58.7808 52.193 58.9445 51.8914 58.991C51.8347 59.0003 51.7772 59.0048 51.7197 59.0045ZM47.4477 29.2851H47.4275C47.3908 29.2917 47.3581 29.3122 47.3362 29.3423C47.3142 29.3724 47.3047 29.4098 47.3096 29.4467L51.5783 57.8734C51.5812 57.892 51.5878 57.91 51.5977 57.9261C51.6075 57.9422 51.6206 57.9561 51.6359 57.9671C51.6513 57.9781 51.6687 57.9859 51.6872 57.99C51.7056 57.9942 51.7247 57.9946 51.7433 57.9912C51.7794 57.9857 51.812 57.9664 51.8342 57.9373C51.8457 57.9221 51.8541 57.9047 51.8587 57.8862C51.8633 57.8677 51.8641 57.8484 51.8611 57.8296L47.5924 29.4063C47.5862 29.3724 47.5683 29.3418 47.5419 29.3197C47.5154 29.2976 47.4821 29.2853 47.4477 29.2851Z" fill="#FF682B"/>
<path d="M41.4586 58.378C41.289 58.3845 41.1236 58.3244 40.9978 58.2105C40.872 58.0966 40.7957 57.9381 40.7853 57.7687L40.0547 46.0567C40.044 45.8853 40.1018 45.7166 40.2155 45.5878C40.3291 45.459 40.4893 45.3806 40.6607 45.3699C40.8321 45.3592 41.0008 45.417 41.1296 45.5307C41.2584 45.6443 41.3367 45.8045 41.3475 45.9759L42.078 57.6879C42.0854 57.8571 42.026 58.0225 41.9127 58.1485C41.7993 58.2744 41.6411 58.3508 41.472 58.3612L41.4586 58.378Z" fill="#FF682B"/>
<path d="M41.4586 58.8832C41.1657 58.8828 40.8839 58.7709 40.6707 58.5701C40.4574 58.3694 40.3286 58.0949 40.3107 57.8025L39.5768 46.0905C39.5672 45.9392 39.5876 45.7876 39.6367 45.6442C39.6859 45.5009 39.7629 45.3686 39.8633 45.2551C39.9637 45.1415 40.0855 45.0489 40.2218 44.9826C40.3581 44.9163 40.5061 44.8775 40.6574 44.8685C40.8079 44.857 40.9592 44.8762 41.1021 44.9248C41.245 44.9734 41.3766 45.0504 41.4889 45.1512C41.6037 45.251 41.6973 45.3727 41.7644 45.5091C41.8314 45.6455 41.8705 45.794 41.8794 45.9457L42.61 57.6578C42.6284 57.9625 42.5254 58.2621 42.3236 58.4911C42.1217 58.7201 41.8373 58.8599 41.5327 58.8798L41.4586 58.8832ZM40.7315 45.875C40.7126 45.8759 40.6941 45.8805 40.677 45.8886C40.66 45.8968 40.6447 45.9082 40.6321 45.9224C40.6196 45.9365 40.61 45.953 40.6039 45.9709C40.5979 45.9888 40.5954 46.0077 40.5968 46.0265L41.3273 57.7385C41.3298 57.7746 41.3457 57.8084 41.3719 57.8333C41.3981 57.8582 41.4326 57.8725 41.4687 57.8732C41.5056 57.8706 41.5401 57.8536 41.5646 57.826C41.5892 57.7983 41.6019 57.762 41.6 57.7251L40.8661 46.0131C40.8642 45.9746 40.8473 45.9383 40.819 45.9121C40.7915 45.8869 40.7552 45.8736 40.718 45.875H40.7315Z" fill="#FF682B"/>
<path d="M28.225 70.2722C37.5213 70.2722 45.0575 68.6021 45.0575 66.5421C45.0575 64.482 37.5213 62.812 28.225 62.812C18.9287 62.812 11.3926 64.482 11.3926 66.5421C11.3926 68.6021 18.9287 70.2722 28.225 70.2722Z" fill="white"/>
<path d="M28.2249 70.7806C19.6101 70.7806 10.8909 69.3229 10.8909 66.5422C10.8909 65.2494 12.6818 64.1856 16.2167 63.4113C19.4283 62.6976 23.6936 62.3071 28.2249 62.3071C36.8431 62.3071 45.5623 63.7615 45.5623 66.5422C45.5623 67.8383 43.7714 68.8987 40.2366 69.673C37.0249 70.3934 32.7596 70.7806 28.2249 70.7806ZM28.2249 63.3171C18.1255 63.3171 11.9008 65.1956 11.9008 66.5422C11.9008 67.8888 18.112 69.7706 28.2249 69.7706C38.3379 69.7706 44.5524 67.8888 44.5524 66.5422C44.5524 65.1956 38.3412 63.3238 28.2249 63.3238V63.3171Z" fill="#FF682B"/>
<path d="M40.378 62.7783C37.1193 62.0578 32.8034 61.6572 28.225 61.6572C23.6466 61.6572 19.3341 62.0578 16.0753 62.7783C12.15 63.6502 10.2412 64.879 10.2412 66.542C10.2412 68.205 12.15 69.4372 16.0753 70.3057C19.3341 71.0295 23.6499 71.4268 28.225 71.4268C32.8001 71.4268 37.1193 71.0295 40.378 70.3057C44.3033 69.4372 46.2121 68.205 46.2121 66.542C46.2121 64.879 44.3033 63.6603 40.378 62.7783ZM43.8758 66.542C43.2732 67.3298 38.0821 69.1207 28.225 69.1207C18.3679 69.1207 13.1802 67.3298 12.5776 66.542C13.1802 65.7542 18.3713 63.9633 28.225 63.9633C38.0787 63.9633 43.2732 65.7542 43.8758 66.542Z" fill="#FF682B"/>
<path d="M30.245 8.61151C41.7835 8.61151 51.1374 6.9415 51.1374 4.88144C51.1374 2.82138 41.7835 1.15137 30.245 1.15137C18.7064 1.15137 9.35254 2.82138 9.35254 4.88144C9.35254 6.9415 18.7064 8.61151 30.245 8.61151Z" fill="white"/>
<path d="M30.2451 9.12335C21.6437 9.12335 8.84766 7.99558 8.84766 4.88495C8.84766 1.77431 21.6403 0.649902 30.2451 0.649902C38.8498 0.649902 51.6458 1.77768 51.6458 4.88495C51.6458 7.99221 38.8498 9.12335 30.2451 9.12335ZM30.2451 1.65985C16.8599 1.65985 9.8576 3.76054 9.8576 4.88495C9.8576 6.00935 16.8599 8.11341 30.2451 8.11341C43.6302 8.11341 50.6359 6.01272 50.6359 4.88495C50.6359 3.75717 43.6336 1.65648 30.2451 1.65648V1.65985Z" fill="#FF682B"/>
<path d="M30.2449 9.26161C24.6094 9.26161 19.3004 8.86773 15.2977 8.15403C10.8236 7.35281 8.54785 6.25197 8.54785 4.88181C8.54785 3.51165 10.8236 2.4108 15.2977 1.61295C19.3004 0.895884 24.6094 0.505371 30.2449 0.505371C35.8804 0.505371 41.1927 0.895884 45.1955 1.61295C49.6729 2.4108 51.9453 3.51165 51.9453 4.88181C51.9453 6.25197 49.6729 7.35281 45.1955 8.15403C41.1927 8.86773 35.8837 9.26161 30.2449 9.26161ZM30.2449 1.7981C17.2469 1.7981 10.1503 3.83483 10.1503 4.88181C10.1503 5.92878 17.2401 7.96551 30.2381 7.96551C43.2362 7.96551 50.3293 5.92878 50.3293 4.88181C50.3293 3.83483 43.2463 1.7981 30.2449 1.7981Z" fill="#FF682B"/>
<path d="M30.245 9.76618C24.5792 9.76618 19.2399 9.36894 15.2001 8.65188C10.3221 7.77659 8.04297 6.57812 8.04297 4.88141C8.04297 3.1847 10.3221 1.98623 15.2001 1.11431C19.2399 0.393879 24.5691 0 30.2349 0C35.9007 0 41.2433 0.393879 45.273 1.11431C50.1611 1.98623 52.4402 3.1847 52.4402 4.88141C52.4402 6.57812 50.1611 7.77659 45.273 8.65188C41.2534 9.36894 35.9141 9.76618 30.245 9.76618ZM30.245 1.01331C24.6364 1.01331 19.3611 1.40383 15.3853 2.11079C9.66225 3.12074 9.05291 4.39327 9.05291 4.88478C9.05291 5.37628 9.66898 6.63872 15.3853 7.65876C19.3611 8.36909 24.6364 8.7596 30.245 8.7596C35.8535 8.7596 41.1322 8.36909 45.1046 7.65876C50.8277 6.64882 51.4404 5.37965 51.4404 4.88478C51.4404 4.3899 50.8209 3.1342 45.1046 2.11079C41.1221 1.40046 35.8569 1.00995 30.245 1.00995V1.01331ZM30.245 8.47345C22.9195 8.47345 18.0381 7.84392 15.2338 7.31538C11.5307 6.61852 9.65215 5.80046 9.65215 4.88478C9.65215 3.96909 11.5307 3.1544 15.2338 2.45417C18.0381 1.92563 22.9195 1.2961 30.245 1.2961C37.5704 1.2961 42.4552 1.92563 45.2595 2.45417C48.9626 3.1544 50.8411 3.96909 50.8411 4.88478C50.8411 5.80046 48.9626 6.61852 45.2595 7.31538C42.4687 7.84055 37.5738 8.47009 30.245 8.47009V8.47345ZM10.7193 4.88478C11.6788 5.7062 18.1963 7.46351 30.245 7.46351C42.2936 7.46351 48.801 5.7062 49.7706 4.88478C48.8111 4.06672 42.2936 2.30605 30.245 2.30605C18.1963 2.30605 11.6922 4.07345 10.7328 4.88141L10.7193 4.88478Z" fill="#FF682B"/>
<path d="M42.1824 34.5201C41.8876 34.0114 41.4149 33.6298 40.8555 33.4489C40.296 33.268 39.6894 33.3006 39.1526 33.5404L32.5812 36.2908L24.8046 37.3008L24.5622 38.506L16.4153 41.923C15.8723 42.139 15.4277 42.5473 15.1663 43.0701C14.9049 43.5928 14.845 44.1935 14.998 44.7576C15.0918 45.0663 15.2492 45.3519 15.4601 45.5961C15.671 45.8402 15.9307 46.0375 16.2225 46.1752C16.5143 46.3128 16.8317 46.3878 17.1543 46.3953C17.4768 46.4028 17.7973 46.3426 18.0952 46.2186L23.4816 43.9631L21.7041 52.8573C21.6578 52.9764 21.6218 53.0991 21.5964 53.2243L21.1654 55.537L20.8288 57.2472H20.8524L19.9131 62.3138C19.7954 62.8864 19.8923 63.4823 20.1852 63.9882C20.4782 64.494 20.9469 64.8746 21.5021 65.0575C21.8117 65.1481 22.1369 65.173 22.4567 65.1306C22.7765 65.0881 23.0838 64.9792 23.359 64.8108C23.6342 64.6425 23.8712 64.4184 24.0546 64.153C24.2381 63.8876 24.364 63.5868 24.4242 63.2699L26.0031 54.8234L26.1007 54.7796C26.4439 54.6191 26.8171 54.5329 27.1959 54.5265C27.5747 54.5201 27.9506 54.5938 28.299 54.7426L28.9723 55.0388L28.4404 62.0344C28.414 62.3294 28.4498 62.6268 28.5457 62.9071C28.6415 63.1874 28.7952 63.4444 28.9967 63.6615C29.1983 63.8786 29.4432 64.051 29.7157 64.1673C29.9881 64.2837 30.2819 64.3415 30.5781 64.337C31.2035 64.3266 31.803 64.0859 32.262 63.661C32.721 63.2362 33.0073 62.657 33.066 62.0344L33.4498 56.9846L33.5373 57.0217L34.4092 47.9321L35.399 40.5461L41.0446 37.7519C41.342 37.6268 41.61 37.4408 41.8313 37.2059C42.0526 36.971 42.2223 36.6924 42.3295 36.3881C42.4366 36.0837 42.4789 35.7602 42.4536 35.4385C42.4283 35.1168 42.3359 34.8039 42.1824 34.5201Z" fill="white"/>
<path d="M22.1451 65.64C21.7229 65.6418 21.3058 65.548 20.925 65.3657C20.5442 65.1834 20.2096 64.9172 19.9463 64.5872C19.683 64.2572 19.4978 63.8719 19.4046 63.4601C19.3114 63.0483 19.3126 62.6208 19.4081 62.2096L20.1757 58.1058L20.3474 57.1363L20.684 55.4294L21.115 53.1234C21.1407 52.9848 21.1778 52.8485 21.2261 52.7161L22.8049 44.8082L18.2905 46.6968C17.9274 46.8459 17.5371 46.9174 17.1447 46.9067C16.7523 46.896 16.3665 46.8034 16.012 46.6347C15.6576 46.466 15.3423 46.2251 15.0865 45.9273C14.8307 45.6296 14.6401 45.2816 14.5267 44.9058C14.3383 44.2248 14.4054 43.4983 14.7155 42.8634C15.0255 42.2284 15.5571 41.7287 16.21 41.4585L24.1246 38.1459L24.3838 36.8498L32.4634 35.7961L38.9708 33.0726C39.6227 32.793 40.3543 32.7616 41.0278 32.9842C41.7013 33.2068 42.27 33.6681 42.6268 34.2812C42.8135 34.6268 42.9259 35.0076 42.9568 35.3992C42.9876 35.7908 42.9363 36.1845 42.806 36.5551C42.6757 36.9257 42.4694 37.2649 42.2002 37.551C41.9311 37.8372 41.6051 38.0639 41.2432 38.2166L35.8568 40.8795L34.9041 47.9491L33.9682 57.7119L33.8941 57.6783L33.5575 62.0547C33.4894 62.8042 33.1463 63.502 32.5943 64.0135C32.0423 64.5251 31.3206 64.8143 30.5681 64.8253C30.2021 64.8301 29.8393 64.758 29.5029 64.6137C29.1666 64.4694 28.8643 64.2562 28.6156 63.9878C28.3668 63.7193 28.1771 63.4017 28.0588 63.0554C27.9405 62.7091 27.8962 62.3418 27.9287 61.9773L28.4337 55.3419L28.0971 55.1904C27.5726 54.9637 26.9799 54.9528 26.4475 55.1601L24.9157 63.3474C24.7934 63.9916 24.4499 64.5729 23.9447 64.9908C23.4395 65.4088 22.8042 65.6372 22.1485 65.6366L22.1451 65.64ZM21.4516 56.7154L21.3506 57.3248L20.4013 62.3947C20.3072 62.8446 20.3813 63.3134 20.6096 63.7123C20.8379 64.1112 21.2046 64.4126 21.6401 64.5594C21.8812 64.6317 22.135 64.652 22.3845 64.6189C22.6341 64.5859 22.8738 64.5001 23.0877 64.3675C23.3031 64.2362 23.4885 64.061 23.6317 63.8534C23.775 63.6457 23.873 63.4103 23.9192 63.1623L25.5486 54.4633L25.8853 54.3084C26.2934 54.1167 26.7376 54.0137 27.1885 54.0062C27.6393 53.9986 28.0867 54.0867 28.501 54.2646L29.511 54.7023L28.9521 62.0581C28.9308 62.2838 28.9573 62.5114 29.03 62.7262C29.1028 62.9409 29.2201 63.1378 29.3742 63.304C29.5284 63.4703 29.7159 63.6021 29.9246 63.6908C30.1332 63.7795 30.3582 63.8231 30.5849 63.8187C31.0824 63.8058 31.5581 63.612 31.923 63.2737C32.288 62.9354 32.5172 62.4757 32.5678 61.9806L33.0088 56.2138L33.1064 56.2542L33.9143 47.838L34.9243 40.2028L40.8089 37.2874C41.0471 37.1911 41.2621 37.0452 41.4397 36.8595C41.6173 36.6737 41.7534 36.4524 41.8391 36.2102C41.9242 35.9729 41.9581 35.7203 41.9383 35.469C41.9186 35.2177 41.8458 34.9735 41.7246 34.7525C41.4892 34.3578 41.1176 34.0629 40.6798 33.9234C40.2419 33.7838 39.7682 33.8093 39.3479 33.995L32.7159 36.7724L25.2288 37.7486L25.0066 38.8596L16.5904 42.3776C16.163 42.5468 15.8121 42.8664 15.6038 43.2762C15.3955 43.686 15.3441 44.1578 15.4593 44.6028C15.5325 44.8457 15.656 45.0706 15.8215 45.2629C15.9871 45.4551 16.1912 45.6105 16.4206 45.719C16.6499 45.8275 16.8995 45.8867 17.1532 45.8927C17.4068 45.8988 17.6589 45.8516 17.8932 45.7542L24.1684 43.1249L22.1821 53.0258C22.1461 53.1172 22.1191 53.2119 22.1013 53.3086L21.4516 56.7154Z" fill="#FF682B"/>
<path d="M43.1958 33.9713C42.7622 33.2178 42.0673 32.6494 41.2427 32.3739C40.4181 32.0985 39.5212 32.135 38.7217 32.4766L32.2951 35.1698L24.67 36.1797C24.4306 36.211 24.2071 36.3164 24.0308 36.4813C23.8544 36.6461 23.7342 36.8621 23.687 37.0988L23.5658 37.7014L15.971 40.8794C15.1669 41.2093 14.5116 41.8224 14.1289 42.6028C13.7461 43.3831 13.6625 44.2766 13.8939 45.1144C14.0348 45.5772 14.2712 46.0053 14.5877 46.3712C14.9042 46.737 15.2938 47.0326 15.7315 47.2387C16.1692 47.4449 16.6451 47.557 17.1288 47.5681C17.6124 47.5791 18.093 47.4886 18.5396 47.3026L21.933 45.8618L20.5864 52.551C20.5348 52.7004 20.4942 52.8534 20.4652 53.0088L20.0343 55.3081L19.6977 57.0149C19.6815 57.0913 19.6736 57.1692 19.6741 57.2472L18.7685 62.0882C18.6017 62.9415 18.754 63.8263 19.1965 64.5748C19.639 65.3232 20.3408 65.8831 21.1688 66.1482C21.4846 66.2422 21.8123 66.2899 22.1418 66.2896C22.9489 66.2895 23.7306 66.0076 24.352 65.4925C24.9734 64.9775 25.3955 64.2616 25.5453 63.4685L27.003 55.6784C27.2582 55.641 27.5188 55.6688 27.7604 55.7592L27.2925 61.9334C27.254 62.3867 27.3107 62.8431 27.4587 63.2733C27.6067 63.7035 27.843 64.098 28.1522 64.4317C28.4615 64.7653 28.837 65.0308 29.2548 65.211C29.6725 65.3912 30.1232 65.4823 30.5782 65.4783C31.493 65.4654 32.3707 65.1144 33.0421 64.4927C33.7134 63.8711 34.1309 63.023 34.214 62.1118L34.5506 57.5199C34.6162 57.3906 34.6573 57.2502 34.6718 57.1058L35.537 48.0533L36.446 41.3204L41.4755 38.8292C41.9215 38.6418 42.3233 38.363 42.655 38.0109C42.9867 37.6588 43.2409 37.2411 43.4014 36.7847C43.5619 36.3283 43.625 35.8434 43.5867 35.3612C43.5484 34.879 43.4095 34.4101 43.1789 33.9848L43.1958 33.9713ZM30.1271 55.1129C30.1449 54.8732 30.0877 54.634 29.9634 54.4283C29.8392 54.2226 29.654 54.0606 29.4336 53.9649L28.7603 53.672C28.262 53.457 27.7237 53.3503 27.181 53.359C26.6384 53.3677 26.1038 53.4916 25.6126 53.7225L25.5183 53.7663C25.3532 53.8443 25.2088 53.9604 25.0971 54.1049C24.9853 54.2494 24.9093 54.4183 24.8753 54.5978L23.2796 63.0443C23.25 63.203 23.1874 63.3537 23.0958 63.4866C23.0041 63.6195 22.8856 63.7317 22.7478 63.8158C22.61 63.9 22.4561 63.9542 22.296 63.9749C22.1359 63.9957 21.9733 63.9826 21.8186 63.9364C21.5364 63.836 21.3007 63.6356 21.1562 63.3732C21.0117 63.1109 20.9683 62.8046 21.0342 62.5124L21.9835 57.4425C21.9971 57.3749 22.0038 57.3061 22.0037 57.2371L22.7343 53.433C22.7472 53.371 22.7652 53.3102 22.7881 53.2512C22.8074 53.1962 22.8231 53.1399 22.8353 53.0829L24.6262 44.1886C24.6665 43.9836 24.6505 43.7715 24.5797 43.5749C24.509 43.3783 24.3862 43.2045 24.2245 43.0722C24.0628 42.9399 23.8682 42.8539 23.6615 42.8234C23.4548 42.793 23.2437 42.8192 23.0507 42.8993L17.6643 45.1548C17.5153 45.2157 17.3552 45.245 17.1943 45.2407C17.0333 45.2365 16.875 45.1988 16.7294 45.1301C16.5837 45.0614 16.454 44.9632 16.3484 44.8417C16.2427 44.7202 16.1635 44.578 16.1157 44.4243C16.0456 44.1331 16.0842 43.8263 16.2243 43.5616C16.3644 43.2969 16.5964 43.0925 16.8766 42.9868L25.0369 39.5732C25.2092 39.4993 25.3607 39.3842 25.4781 39.238C25.5955 39.0919 25.6752 38.9191 25.7102 38.7349L25.7877 38.341L32.7462 37.4321C32.8492 37.4187 32.95 37.3915 33.0458 37.3513L39.6138 34.6042C39.886 34.4787 40.1947 34.457 40.4817 34.5432C40.7688 34.6294 41.0145 34.8175 41.1725 35.0722C41.2498 35.2136 41.2964 35.3698 41.3092 35.5305C41.3219 35.6912 41.3006 35.8528 41.2466 36.0047C41.1857 36.1667 41.0912 36.3141 40.9694 36.4371C40.8475 36.5601 40.7011 36.6559 40.5396 36.7184L34.894 39.5126C34.7248 39.5958 34.5788 39.7196 34.469 39.8729C34.3592 40.0262 34.2889 40.2042 34.2645 40.3912L33.2545 47.7975L32.4297 56.4191C32.3532 56.5605 32.3073 56.7165 32.2951 56.8769L31.9079 61.9435C31.87 62.2774 31.713 62.5865 31.4657 62.814C31.2183 63.0416 30.8973 63.1723 30.5613 63.1824C30.4238 63.187 30.2869 63.1621 30.1599 63.1092C30.0328 63.0563 29.9187 62.9767 29.8251 62.8758C29.7315 62.7749 29.6608 62.6551 29.6176 62.5244C29.5745 62.3937 29.5599 62.2553 29.575 62.1185L30.1271 55.1129Z" fill="#FF682B"/>
<path d="M27.4035 38.971C31.1889 38.971 34.2577 35.9023 34.2577 32.1169C34.2577 28.3314 31.1889 25.2627 27.4035 25.2627C23.618 25.2627 20.5493 28.3314 20.5493 32.1169C20.5493 35.9023 23.618 38.971 27.4035 38.971Z" fill="white"/>
<path d="M27.4035 39.4756C25.9479 39.4763 24.5247 39.0452 23.3141 38.237C22.1034 37.4288 21.1597 36.2797 20.6022 34.935C20.0447 33.5904 19.8984 32.1106 20.182 30.6828C20.4656 29.2551 21.1662 27.9435 22.1953 26.914C23.2243 25.8844 24.5356 25.1832 25.9632 24.899C27.3909 24.6148 28.8707 24.7603 30.2156 25.3172C31.5605 25.8741 32.7101 26.8173 33.5188 28.0276C34.3276 29.2379 34.7593 30.6608 34.7593 32.1165C34.7575 34.0671 33.9821 35.9374 32.6031 37.317C31.2241 38.6966 29.3542 39.4729 27.4035 39.4756ZM27.4035 25.7673C26.1476 25.7666 24.9198 26.1384 23.8752 26.8357C22.8306 27.5329 22.0163 28.5243 21.5352 29.6844C21.0542 30.8445 20.9279 32.1212 21.1726 33.3531C21.4172 34.5849 22.0216 35.7166 22.9094 36.6048C23.7972 37.4931 24.9285 38.0982 26.1603 38.3434C27.392 38.5887 28.6688 38.4631 29.8291 37.9827C30.9895 37.5022 31.9813 36.6884 32.6791 35.6442C33.3769 34.6001 33.7494 33.3724 33.7494 32.1165C33.7476 30.4337 33.0785 28.8203 31.8889 27.6301C30.6994 26.4398 29.0863 25.7699 27.4035 25.7673Z" fill="#FF682B"/>
<path d="M27.4036 24.1108C25.8198 24.1088 24.271 24.5767 22.9532 25.4551C21.6354 26.3335 20.6077 27.5831 20.0002 29.0458C19.3928 30.5084 19.2328 32.1184 19.5405 33.672C19.8483 35.2255 20.6099 36.6529 21.7291 37.7735C22.8483 38.8941 24.2747 39.6576 25.8279 39.9673C27.3811 40.277 28.9913 40.1191 30.4547 39.5134C31.9181 38.9078 33.169 37.8817 34.0491 36.565C34.9292 35.2483 35.399 33.7001 35.399 32.1164C35.3963 29.9957 34.5534 27.9626 33.0548 26.4621C31.5563 24.9617 29.5242 24.1162 27.4036 24.1108ZM33.103 32.1164C33.1037 33.2446 32.7697 34.3476 32.1433 35.2859C31.5169 36.2243 30.6263 36.9558 29.5841 37.3878C28.5419 37.8199 27.395 37.9331 26.2884 37.7131C25.1819 37.4932 24.1654 36.95 23.3677 36.1522C22.5699 35.3545 22.0267 34.338 21.8068 33.2315C21.5868 32.1249 21.7001 30.978 22.1321 29.9358C22.5642 28.8936 23.2956 28.003 24.234 27.3766C25.1723 26.7502 26.2754 26.4162 27.4036 26.4169C28.9132 26.4231 30.3593 27.0256 31.4268 28.0931C32.4943 29.1606 33.0968 30.6067 33.103 32.1164Z" fill="#FF682B"/>
</svg>