<svg width="93" height="92" viewBox="0 0 93 92" fill="none" xmlns="http://www.w3.org/2000/svg">
<path d="M38.9809 1.8623H6.79459C4.07057 1.8623 1.8623 4.07057 1.8623 6.79459V38.9809C1.8623 41.705 4.07057 43.9132 6.79459 43.9132H38.9809C41.705 43.9132 43.9132 41.705 43.9132 38.9809V6.79459C43.9132 4.07057 41.705 1.8623 38.9809 1.8623Z" fill="#FF682B"/>
<path d="M38.9809 44.7698H6.78883C5.25348 44.7667 3.78196 44.1551 2.69684 43.0689C1.61172 41.9827 1.00152 40.5105 1 38.9752V6.78308C1.00456 5.24872 1.61689 3.77868 2.70293 2.6948C3.78896 1.61092 5.26021 1.00151 6.79458 1H38.9867C40.5216 1.00456 41.9922 1.6167 43.077 2.70257C44.1618 3.78844 44.7725 5.25969 44.7755 6.79458V38.9867C44.7694 40.5206 44.1566 41.9897 43.0709 43.0733C41.9852 44.1568 40.5148 44.7667 38.9809 44.7698ZM6.78883 2.72458C5.70987 2.7261 4.67553 3.15539 3.91258 3.91833C3.14964 4.68128 2.72035 5.71561 2.71883 6.79458V38.9867C2.72035 40.0656 3.14964 41.1 3.91258 41.8629C4.67553 42.6259 5.70987 43.0552 6.78883 43.0567H38.9809C40.0599 43.0552 41.0942 42.6259 41.8572 41.8629C42.6201 41.1 43.0494 40.0656 43.0509 38.9867V6.79458C43.0494 5.71561 42.6201 4.68128 41.8572 3.91833C41.0942 3.15539 40.0599 2.7261 38.9809 2.72458H6.78883Z" fill="#FF682B"/>
<path d="M86.2515 1.8623H54.0651C51.3411 1.8623 49.1328 4.07057 49.1328 6.79459V38.9809C49.1328 41.705 51.3411 43.9132 54.0651 43.9132H86.2515C88.9755 43.9132 91.1837 41.705 91.1837 38.9809V6.79459C91.1837 4.07057 88.9755 1.8623 86.2515 1.8623Z" fill="white" stroke="#FF682B" stroke-miterlimit="10"/>
<path d="M86.2514 44.7698H54.0593C52.5245 44.7652 51.0538 44.1531 49.969 43.0672C48.8842 41.9813 48.2735 40.5101 48.2705 38.9752V6.78308C48.2766 5.2482 48.8902 3.77817 49.9771 2.69445C51.0641 1.61073 52.5359 1.00151 54.0708 1H86.2629C87.7993 1.00152 89.2723 1.61251 90.3586 2.69887C91.445 3.78524 92.056 5.25823 92.0575 6.79458V38.9867C92.0529 40.523 91.439 41.9948 90.3505 43.079C89.262 44.1632 87.7878 44.7713 86.2514 44.7698ZM54.0593 2.72458C52.9794 2.72458 51.9436 3.15319 51.1794 3.9163C50.4152 4.67941 49.9851 5.71462 49.9836 6.79458V38.9867C49.9851 40.0666 50.4152 41.1018 51.1794 41.865C51.9436 42.6281 52.9794 43.0567 54.0593 43.0567H86.2514C87.3304 43.0552 88.3647 42.6259 89.1277 41.8629C89.8906 41.1 90.3199 40.0656 90.3214 38.9867V6.79458C90.3199 5.71561 89.8906 4.68128 89.1277 3.91833C88.3647 3.15539 87.3304 2.7261 86.2514 2.72458H54.0593Z" fill="#FF682B" stroke="#FF682B" stroke-miterlimit="10"/>
<path d="M38.9809 48.0869H6.79459C4.07057 48.0869 1.8623 50.2952 1.8623 53.0192V85.2056C1.8623 87.9296 4.07057 90.1378 6.79459 90.1378H38.9809C41.705 90.1378 43.9132 87.9296 43.9132 85.2056V53.0192C43.9132 50.2952 41.705 48.0869 38.9809 48.0869Z" fill="white" stroke="#FF682B" stroke-miterlimit="10"/>
<path d="M38.9809 91.0001H6.78883C5.25348 90.9971 3.78196 90.3854 2.69684 89.2992C1.61172 88.213 1.00152 86.7409 1 85.2055V53.0134C1.00456 51.4786 1.6167 50.0079 2.70257 48.9231C3.78844 47.8383 5.25969 47.2276 6.79458 47.2246H38.9867C40.5236 47.2277 41.9965 47.8399 43.0827 48.9272C44.1689 50.0145 44.7797 51.4881 44.7812 53.0249V85.217C44.7752 86.7519 44.1616 88.222 43.0746 89.3057C41.9877 90.3894 40.5158 90.9986 38.9809 91.0001ZM6.78883 48.9492C5.70934 48.9522 4.67501 49.3828 3.91223 50.1467C3.14945 50.9105 2.72034 51.9454 2.71883 53.0249V85.217C2.72035 86.296 3.14964 87.3303 3.91258 88.0933C4.67553 88.8562 5.70987 89.2855 6.78883 89.287H38.9809C40.0599 89.2855 41.0942 88.8562 41.8572 88.0933C42.6201 87.3303 43.0494 86.296 43.0509 85.217V53.0249C43.0494 51.9454 42.6203 50.9105 41.8575 50.1467C41.0947 49.3828 40.0604 48.9522 38.9809 48.9492H6.78883Z" fill="#FF682B" stroke="#FF682B" stroke-miterlimit="10"/>
<path d="M86.2515 48.0869H54.0651C51.3411 48.0869 49.1328 50.2952 49.1328 53.0192V85.2056C49.1328 87.9296 51.3411 90.1378 54.0651 90.1378H86.2515C88.9755 90.1378 91.1837 87.9296 91.1837 85.2056V53.0192C91.1837 50.2952 88.9755 48.0869 86.2515 48.0869Z" fill="#FF682B"/>
<path d="M86.2515 90.9999H54.0594C52.5225 90.9984 51.0489 90.3876 49.9616 89.3014C48.8743 88.2152 48.2621 86.7422 48.259 85.2053V53.0132C48.2621 51.4758 48.8741 50.0022 49.9613 48.9151C51.0484 47.828 52.5219 47.2159 54.0594 47.2129H86.2515C87.7883 47.2159 89.2613 47.8282 90.3475 48.9155C91.4337 50.0028 92.0445 51.4763 92.046 53.0132V85.2053C92.0445 86.7417 91.4335 88.2147 90.3472 89.301C89.2608 90.3874 87.7878 90.9984 86.2515 90.9999ZM54.0594 48.949C52.9789 48.9505 51.9431 49.3804 51.179 50.1444C50.415 50.9084 49.9851 51.9442 49.9836 53.0247V85.2168C49.9866 86.2963 50.4172 87.3306 51.1811 88.0934C51.9449 88.8562 52.9799 89.2853 54.0594 89.2868H86.2515C87.3304 89.2853 88.3648 88.856 89.1277 88.0931C89.8906 87.3301 90.3199 86.2958 90.3215 85.2168V53.0247C90.3199 51.9452 89.8908 50.9103 89.1281 50.1464C88.3653 49.3826 87.331 48.952 86.2515 48.949H54.0594Z" fill="#FF682B"/>
<path d="M66.6547 80.0033C65.0221 80.0033 64.4875 78.3592 64.154 77.3302C63.7229 76.008 63.5217 75.7321 63.0561 75.7838C62.4812 75.8413 62.142 75.8585 61.9063 75.8758C61.5499 75.8758 61.5499 75.8758 61.1015 76.1632C60.8888 76.2897 60.6014 76.4621 60.199 76.6863C59.5459 77.0837 58.8105 77.3261 58.0491 77.3949C57.2878 77.4636 56.5208 77.3569 55.8071 77.083C55.1827 76.8044 54.6346 76.3795 54.2093 75.8441C53.784 75.3087 53.494 74.6787 53.3639 74.0075C52.9558 72.3921 53.6226 70.8285 55.238 69.6041C55.5118 69.3942 55.714 69.1047 55.8169 68.7754C55.9198 68.4461 55.9184 68.093 55.8128 67.7645C55.1115 65.5916 55.1345 63.936 55.8761 62.838C57.0603 61.1134 60.1818 61.1766 62.5904 61.5561C62.8852 61.6011 63.1867 61.5674 63.4642 61.4583L64.0391 61.2284C64.8635 60.9 65.7843 60.9102 66.6012 61.2568C67.4182 61.6034 68.0654 62.2584 68.4022 63.0794L69.8451 66.6033C69.9359 66.836 70.0819 67.0432 70.2705 67.2069C70.6959 67.5863 74.3923 70.955 73.4265 72.9555C72.7942 74.2662 72.0124 74.3812 71.2708 74.3812C71.0145 74.363 70.7575 74.4056 70.5208 74.5055C70.284 74.6054 70.0742 74.7597 69.9084 74.956C69.4255 75.4102 69.3967 75.9678 69.3967 76.8358C69.3967 77.905 69.3967 79.5146 67.2468 79.9688C67.0511 80.0007 66.8527 80.0122 66.6547 80.0033ZM63.2055 74.0477C64.9301 74.0477 65.4532 75.6918 65.8154 76.7956C66.304 78.2959 66.4822 78.3419 66.9134 78.25C67.6492 78.0947 67.6952 77.9223 67.7009 76.8013C67.7009 75.893 67.7009 74.6513 68.7644 73.6626C69.0872 73.3193 69.4803 73.0496 69.9168 72.872C70.3533 72.6945 70.823 72.6131 71.2938 72.6336C71.6847 72.6336 71.6847 72.6336 71.9089 72.1794C71.9951 71.6793 70.5867 69.7708 69.1553 68.4946C68.7688 68.1577 68.4675 67.7342 68.2758 67.2586L66.8329 63.729C66.6672 63.3301 66.3512 63.0124 65.9532 62.8446C65.5552 62.6768 65.1072 62.6723 64.7059 62.8322L64.131 63.0564C63.5665 63.2847 62.9508 63.3562 62.349 63.2634C59.8023 62.861 57.8306 63.0679 57.3362 63.8038C56.9223 64.4131 56.974 65.6663 57.4857 67.2529C57.6986 67.9257 57.6968 68.648 57.4804 69.3197C57.2641 69.9913 56.844 70.579 56.2785 71.001C55.2207 71.8058 54.8011 72.6796 55.0368 73.6108C55.1069 74.022 55.2752 74.4102 55.5274 74.7425C55.7796 75.0748 56.1082 75.3413 56.4854 75.5194C56.9562 75.6918 57.4603 75.7534 57.9588 75.6996C58.4572 75.6458 58.9366 75.4779 59.3597 75.209C59.7506 74.9905 60.0265 74.8295 60.2277 74.7031C60.6862 74.3528 61.249 74.1665 61.8259 74.1742C62.0558 74.1742 62.4007 74.1742 62.9066 74.088L63.2055 74.0477Z" fill="white"/>
<path d="M75.8695 12.009L76.2374 13.3369C76.2628 13.3927 76.284 13.4503 76.3006 13.5094L80.3246 27.9383C80.3561 28.0784 80.3561 28.2236 80.3246 28.3637C80.3117 28.7393 80.207 29.1059 80.0196 29.4316C79.8322 29.7573 79.5678 30.0321 79.2496 30.232C78.8898 30.4583 78.4732 30.5779 78.0482 30.5769C77.6164 30.5751 77.1938 30.4518 76.8288 30.221C76.4638 29.9902 76.1712 29.6613 75.9844 29.272C75.7864 28.8447 75.7243 28.367 75.8066 27.9033C75.8888 27.4397 76.1114 27.0124 76.4443 26.6794C76.8341 26.2899 77.3542 26.0585 77.9045 26.0298L75.2716 16.5216L62.4465 20.6376L66.1831 32.3877C66.2261 32.54 66.2261 32.7011 66.1831 32.8534C66.2622 33.3878 66.1506 33.9331 65.8679 34.3936C65.5851 34.854 65.1492 35.2001 64.6367 35.3712C64.4171 35.4395 64.1884 35.4743 63.9584 35.4747C63.4628 35.4722 62.9813 35.3097 62.5856 35.0114C62.1899 34.7131 61.9012 34.2949 61.7624 33.8191C61.6286 33.2736 61.7153 32.6972 62.0039 32.2153C62.1498 31.8469 62.3999 31.529 62.7235 31.3003C63.047 31.0716 63.4302 30.9421 63.8262 30.9276L60.0838 19.143C60.0593 19.0647 60.0458 18.9835 60.0436 18.9015L59.5032 17.177L75.8695 12.0032V12.009ZM76.4443 10.2786C76.2302 10.1916 75.9925 10.1815 75.7717 10.2499L75.3521 10.3821L58.9859 15.5558L58.2558 15.7858C58.015 15.8625 57.8142 16.0311 57.6968 16.2549C57.5795 16.4788 57.5552 16.7398 57.6292 16.9815L57.8591 17.7116L58.342 19.2809C58.363 19.4252 58.3957 19.5674 58.4398 19.7063L61.6877 29.8986C60.8602 30.4711 60.2773 31.3329 60.0538 32.314C59.8304 33.2951 59.9826 34.3244 60.4805 35.1988C60.8563 35.8713 61.425 36.4159 62.1131 36.7624C63.0495 37.2434 64.1371 37.3383 65.1426 37.0268C66.013 36.7593 66.7652 36.2012 67.2737 35.4458C67.7822 34.6904 68.0161 33.7834 67.9364 32.8763C67.9666 32.5371 67.9295 32.1952 67.8272 31.8703L64.6367 21.7528L74.1162 18.7118L75.8695 24.972C75.1697 25.4577 74.6421 26.1528 74.3625 26.9574C74.083 27.7621 74.066 28.6346 74.314 29.4495C74.562 30.2644 75.0621 30.9796 75.7425 31.4921C76.4228 32.0046 77.2482 32.288 78.0999 32.3015C78.8475 32.3007 79.58 32.0917 80.2154 31.6979C80.7549 31.3587 81.2061 30.8962 81.5319 30.3485C81.8578 29.8009 82.0488 29.1836 82.0894 28.5477C82.1407 28.1906 82.1192 27.8269 82.0262 27.4784L78.0022 13.0437C77.9774 12.9436 77.9448 12.8455 77.9045 12.7505L77.5768 11.5548L77.5078 11.3076C77.4478 11.086 77.3371 10.8813 77.1844 10.7097C77.0318 10.5381 76.8414 10.4044 76.6283 10.3189L76.4443 10.2786Z" fill="#FF682B" stroke="#FF682B" stroke-miterlimit="10"/>
<path d="M80.1237 71.403L82.3599 79.7212C82.4057 79.8879 82.4289 80.06 82.4289 80.2328C82.4294 80.5101 82.3718 80.7844 82.2598 81.038C82.1478 81.2916 81.9838 81.519 81.7785 81.7053C81.5732 81.8916 81.3311 82.0329 81.0679 82.1199C80.8046 82.2069 80.5261 82.2377 80.2501 82.2104L79.9455 82.1816C79.5787 82.1449 79.2294 82.0072 78.9361 81.784C78.6429 81.5608 78.4172 81.2606 78.2841 80.9169L75.2316 72.9494C75.0643 72.5188 74.7528 72.1597 74.3502 71.9332C73.9477 71.7068 73.479 71.6271 73.0242 71.7077C72.2402 71.8602 71.4312 71.8223 70.6649 71.5973C69.8987 71.3722 69.1976 70.9665 68.6207 70.4142C67.724 69.5692 66.8962 67.8734 66.2466 65.9763L81.5781 61.1763C82.2507 63.5447 82.7565 65.7406 82.6358 66.6662C82.5546 67.1963 82.358 67.7022 82.0601 68.1482C81.7621 68.5941 81.3699 68.9693 80.9112 69.2473C80.5714 69.4795 80.3127 69.8122 80.1715 70.1988C80.0303 70.5853 80.0135 71.0064 80.1237 71.403Z" fill="white"/>
<path d="M80.4398 83.078C80.3479 83.0838 80.2558 83.0838 80.1639 83.078L79.865 83.0493C79.3393 82.9959 78.8385 82.7986 78.4176 82.4792C77.9968 82.1597 77.6721 81.7304 77.4793 81.2385L74.4096 73.2537C74.3101 73.0119 74.1312 72.8112 73.9023 72.6847C73.6734 72.5583 73.4083 72.5136 73.1506 72.5581C72.235 72.7337 71.2908 72.6875 70.3967 72.4235C69.5026 72.1594 68.6847 71.6852 68.0114 71.0405C67.1089 70.1897 66.2868 68.6318 65.4188 66.2634C65.3806 66.1529 65.3654 66.0359 65.3739 65.9193C65.3824 65.8028 65.4145 65.6891 65.4682 65.5854C65.522 65.4816 65.5963 65.3899 65.6866 65.3157C65.7769 65.2415 65.8814 65.1865 65.9936 65.1539L81.3079 60.3654C81.4172 60.3281 81.5331 60.3145 81.6481 60.3254C81.763 60.3363 81.8743 60.3715 81.9747 60.4286C82.0764 60.4828 82.1661 60.5571 82.2382 60.6471C82.3104 60.737 82.3635 60.8406 82.3944 60.9517C83.5441 64.9412 83.5441 66.1944 83.4808 66.7865C83.3864 67.4375 83.1514 68.0602 82.792 68.6111C82.4326 69.1621 81.9576 69.6282 81.3998 69.977C81.2053 70.1049 81.0565 70.2914 80.9749 70.5094C80.8933 70.7274 80.883 70.9657 80.9457 71.1899L83.1819 79.5082C83.3048 79.9645 83.3118 80.4443 83.2024 80.904C83.093 81.3638 82.8706 81.789 82.5553 82.141C82.2869 82.4352 81.9602 82.6705 81.596 82.8318C81.2318 82.9931 80.8381 83.0769 80.4398 83.078ZM73.3576 70.8163C73.9355 70.8155 74.5003 70.9889 74.9782 71.314C75.4561 71.6391 75.8249 72.1007 76.0364 72.6386L79.0889 80.6061C79.166 80.8002 79.2945 80.9697 79.4605 81.0963C79.6266 81.2229 79.8241 81.3019 80.0317 81.3247H80.3306C80.5075 81.344 80.6864 81.3206 80.8524 81.2566C81.0184 81.1926 81.1667 81.0898 81.2849 80.9568C81.4651 80.7494 81.565 80.4842 81.5666 80.2095C81.5681 80.1141 81.5545 80.019 81.5263 79.9278L79.2901 71.6038C79.1318 71.0321 79.1577 70.425 79.3641 69.8687C79.5705 69.3125 79.9469 68.8355 80.4398 68.5054C80.7927 68.294 81.0943 68.007 81.3229 67.665C81.5515 67.3231 81.7015 66.9347 81.762 66.5278C81.8022 66.2462 81.762 65.2746 80.9687 62.2394L67.356 66.5048C68.1379 68.4881 68.7759 69.3791 69.1956 69.7643C69.676 70.2223 70.2592 70.5585 70.8964 70.7445C71.5336 70.9306 72.206 70.9611 72.8574 70.8335C73.0233 70.8128 73.1907 70.807 73.3576 70.8163Z" fill="white"/>
<path d="M81.578 61.1765L66.2465 65.9765C65.5064 63.8194 64.8978 61.6194 64.4242 59.3886C64.321 58.9082 64.4005 58.4065 64.647 57.9814C64.8936 57.5563 65.2896 57.2383 65.7579 57.0892L77.0481 53.4676C77.5429 53.3102 78.0797 53.3526 78.5438 53.5857C79.0078 53.8188 79.3623 54.2241 79.5315 54.715C80.0948 56.3419 80.9169 58.8598 81.578 61.1765Z" fill="#FF682B"/>
<path d="M66.2464 66.8383C66.0685 66.8378 65.8951 66.7823 65.75 66.6794C65.6049 66.5765 65.4952 66.4312 65.4359 66.2635C64.68 64.0733 64.0599 61.8386 63.5791 59.5721C63.4254 58.88 63.5368 58.1554 63.8912 57.5414C64.2456 56.9274 64.8172 56.4684 65.4933 56.2552L76.7836 52.6566C77.4935 52.4357 78.2615 52.4986 78.926 52.832C79.5906 53.1653 80.1002 53.7433 80.3477 54.4444C80.7156 55.5136 81.6526 58.2844 82.4057 60.9403C82.4667 61.1568 82.4408 61.3885 82.3334 61.5861C82.226 61.7837 82.0457 61.9315 81.8308 61.998L66.4993 66.7981C66.4177 66.8248 66.3323 66.8384 66.2464 66.8383ZM77.6459 54.2489C77.5307 54.2469 77.416 54.2644 77.3067 54.3007L66.0165 57.8993C65.7505 57.9832 65.5257 58.1638 65.3863 58.4054C65.2469 58.6469 65.203 58.9319 65.2634 59.2042C65.6026 60.7391 66.1257 62.8948 66.7868 64.9011L80.5144 60.6069C79.8188 58.2557 79.0428 55.9505 78.7151 55.002C78.6345 54.7827 78.489 54.5932 78.298 54.4586C78.107 54.3241 77.8795 54.251 77.6459 54.2489Z" fill="white"/>
<path d="M19.1426 68.4425V62.6939C19.1649 62.3986 19.1253 62.1018 19.0264 61.8227C18.9274 61.5435 18.7712 61.2881 18.5678 61.0728C18.1273 60.6888 17.5528 60.4945 16.9696 60.5325C16.7039 60.5295 16.439 60.5624 16.1821 60.6302C15.9387 60.69 15.7047 60.7829 15.4865 60.9061C15.2754 61.0172 15.0818 61.1586 14.9116 61.3258C14.763 61.4691 14.6422 61.6386 14.5552 61.8259L15.8717 62.9756C15.5774 63.0866 15.3259 63.2878 15.1531 63.5505C14.9855 63.8313 14.9036 64.155 14.9174 64.4818V68.454H13.1756V64.5795C13.1746 64.2615 13.2557 63.9486 13.4113 63.6712C13.5634 63.3995 13.7832 63.1717 14.0494 63.0101L12.7214 61.8949C12.8306 61.515 13.0121 61.1597 13.2561 60.8486C13.5191 60.4985 13.8375 60.1937 14.1988 59.9461C14.5891 59.6743 15.0171 59.4613 15.4693 59.3138C15.9646 59.1519 16.4831 59.0723 17.0041 59.0781C17.5791 59.0668 18.1514 59.1583 18.6942 59.3483C19.1523 59.5081 19.5715 59.7627 19.9244 60.0956C20.2554 60.4178 20.509 60.8109 20.666 61.2453C20.8426 61.7136 20.9304 62.2107 20.9247 62.7112V68.4598L19.1426 68.4425Z" fill="#FF682B"/>
<path d="M26.1214 65.5393C26.1048 65.7749 26.1348 66.0114 26.2097 66.2354C26.2847 66.4593 26.4032 66.6662 26.5583 66.8443C26.7469 67.0088 26.967 67.1334 27.2051 67.2104C27.4432 67.2875 27.6945 67.3155 27.9437 67.2927C28.1831 67.3132 28.4242 67.2861 28.653 67.2131C28.8819 67.1401 29.0941 67.0226 29.2774 66.8673C29.6145 66.4484 29.7717 65.913 29.7143 65.3784V59.3596H31.4849V65.3611C31.546 66.2628 31.2508 67.1525 30.6628 67.8388C30.0994 68.4251 29.2008 68.7183 27.9667 68.7183C26.7327 68.7183 25.8244 68.4251 25.2419 67.8388C24.9552 67.531 24.7327 67.1691 24.5876 66.7742C24.4425 66.3794 24.3777 65.9596 24.3968 65.5393V64.4931C24.3924 64.1713 24.478 63.8547 24.644 63.5791C24.8038 63.3168 24.9804 63.0653 25.1729 62.826C25.3684 62.5903 25.5408 62.3719 25.7075 62.1649C25.8583 61.9814 25.9433 61.7527 25.949 61.5153V61.2049C25.9569 61.1512 25.9521 61.0964 25.9349 61.045C25.9176 60.9935 25.8885 60.9469 25.8499 60.9088C25.8112 60.8707 25.7641 60.8422 25.7124 60.8258C25.6607 60.8093 25.6059 60.8053 25.5523 60.814H24.4888V59.3711H25.765C26.0275 59.3403 26.2936 59.3636 26.5467 59.4398C26.7999 59.5159 27.0347 59.6432 27.2367 59.8137C27.522 60.1624 27.6656 60.6057 27.6391 61.0554V61.5153C27.6406 61.8109 27.5611 62.1012 27.4091 62.3546C27.2537 62.6078 27.0808 62.8498 26.8917 63.0789C26.7071 63.2975 26.5343 63.5258 26.3744 63.763C26.2239 63.981 26.1437 64.2397 26.1444 64.5046L26.1214 65.5393Z" fill="#FF682B"/>
<path d="M14.4976 76.4616C14.6379 76.1665 14.8592 75.9173 15.1357 75.7431C15.4806 75.5316 15.8814 75.4295 16.2854 75.4499H17.3317V76.956H16.2509C15.8551 76.924 15.4613 77.0378 15.1437 77.2761C14.826 77.5143 14.6064 77.8605 14.5263 78.2494V80.4167H12.727V74.6681C12.7216 74.1815 12.8134 73.6987 12.9972 73.2482C13.1696 72.8133 13.4344 72.421 13.7733 72.0984C14.1352 71.7632 14.5616 71.505 15.0265 71.3396C16.1278 70.9643 17.3225 70.9643 18.4239 71.3396C18.8915 71.5063 19.3214 71.7642 19.6886 72.0984C20.0293 72.4206 20.296 72.8129 20.4704 73.2482C20.656 73.6984 20.7498 74.1811 20.7463 74.6681V80.4167H18.97V74.6681C18.9901 74.0986 18.7833 73.5445 18.3951 73.1274C18.1743 72.9131 17.9105 72.7479 17.6212 72.6429C17.3318 72.5379 17.0235 72.4953 16.7166 72.5181C16.4232 72.4882 16.1269 72.5227 15.8482 72.619C15.5695 72.7153 15.3151 72.8713 15.1028 73.0759C14.8905 73.2806 14.7254 73.529 14.6189 73.804C14.5124 74.0789 14.467 74.3738 14.4861 74.6681L14.4976 76.4616Z" fill="#FF682B"/>
<path d="M27.0067 80.4283L24.2358 71.2305H26.0064L28.3346 78.9566H28.5358C28.8456 78.956 29.1501 78.8769 29.4211 78.7267C29.7201 78.5628 29.9777 78.3328 30.1741 78.0541C30.4083 77.7281 30.5852 77.3645 30.6973 76.9791C30.8341 76.5204 30.9 76.0435 30.8927 75.565C30.9654 74.7435 30.7805 73.9197 30.3638 73.208C30.2134 72.9925 30.0129 72.8167 29.7797 72.6955C29.5464 72.5744 29.2873 72.5116 29.0244 72.5125C28.6665 72.5111 28.3115 72.5774 27.9782 72.7079L27.7137 71.3627C27.9407 71.2563 28.1802 71.179 28.4266 71.1328C28.6938 71.0815 28.965 71.0546 29.2371 71.0523C29.7122 71.0494 30.1818 71.1535 30.611 71.357C31.0376 71.5627 31.4098 71.866 31.6975 72.2423C32.0249 72.6649 32.2671 73.1471 32.4103 73.6622C32.5914 74.2799 32.6786 74.9213 32.669 75.565C32.6785 76.2529 32.5696 76.9374 32.3471 77.5885C32.1557 78.1486 31.857 78.666 31.4676 79.1118C31.1046 79.5328 30.6531 79.8685 30.1454 80.0948C29.6192 80.3214 29.0512 80.435 28.4783 80.4283H27.0067Z" fill="#FF682B"/>
<path d="M83.0324 12.8652C82.9249 12.8676 82.8189 12.8397 82.7264 12.7848C82.634 12.73 82.5587 12.6503 82.5093 12.5548L81.8195 11.2958L80.7905 10.721C80.6753 10.6582 80.5792 10.5655 80.5122 10.4527C80.4453 10.3399 80.4099 10.2112 80.4099 10.08C80.4099 9.94883 80.4453 9.82008 80.5122 9.70728C80.5792 9.59449 80.6753 9.50183 80.7905 9.43903L81.831 8.86417L82.3656 7.87541C82.432 7.75695 82.5288 7.65833 82.646 7.58969C82.7632 7.52104 82.8966 7.48486 83.0324 7.48486C83.1682 7.48486 83.3016 7.52104 83.4188 7.58969C83.536 7.65833 83.6328 7.75695 83.6993 7.87541L84.2396 8.86417L85.1651 9.37005C85.2911 9.44005 85.396 9.5426 85.4688 9.66697C85.5416 9.79135 85.5797 9.933 85.579 10.0771C85.5799 10.2205 85.5418 10.3615 85.469 10.4849C85.3961 10.6084 85.2911 10.7099 85.1651 10.7785L84.2339 11.2843L83.5555 12.5375C83.5085 12.6362 83.4343 12.7195 83.3417 12.7775C83.249 12.8356 83.1417 12.866 83.0324 12.8652ZM81.8827 10.0944L82.3598 10.3531C82.5371 10.4498 82.6828 10.5954 82.7795 10.7727L83.0382 11.2441L83.2969 10.7727C83.3936 10.5954 83.5392 10.4498 83.7165 10.3531L84.1936 10.0944L83.7165 9.83568C83.539 9.73665 83.3935 9.58909 83.2969 9.41029L83.0382 8.9389L82.7795 9.41029C82.6829 9.58909 82.5373 9.73665 82.3598 9.83568L81.8827 10.0944Z" fill="#FF682B"/>
<path d="M55.5081 30.2085C55.4168 30.2074 55.3274 30.1824 55.2487 30.136C55.1701 30.0896 55.1049 30.0235 55.0597 29.9441L54.4849 28.8576L53.5996 28.3805C53.4999 28.3268 53.4166 28.2472 53.3585 28.1501C53.3004 28.0529 53.2698 27.9418 53.2698 27.8286C53.2698 27.7154 53.3004 27.6043 53.3585 27.5071C53.4166 27.41 53.4999 27.3303 53.5996 27.2767L54.4964 26.7881L54.9505 25.9373C55.0081 25.8353 55.0915 25.7502 55.1925 25.6906C55.2934 25.6311 55.4082 25.5992 55.5254 25.5981C55.6428 25.598 55.7581 25.6294 55.8592 25.6891C55.9604 25.7487 56.0436 25.8345 56.1002 25.9373L56.5659 26.7881L57.3592 27.225C57.467 27.2847 57.5569 27.3721 57.6195 27.4782C57.682 27.5844 57.7151 27.7054 57.7151 27.8286C57.7151 27.9518 57.682 28.0728 57.6195 28.1789C57.5569 28.2851 57.467 28.3725 57.3592 28.4322L56.5601 28.8691L55.9853 29.9441C55.9393 30.0291 55.87 30.0993 55.7854 30.1461C55.7008 30.193 55.6046 30.2146 55.5081 30.2085ZM54.5194 27.8286L54.9218 28.047C55.0746 28.1308 55.2002 28.2564 55.2839 28.4092L55.5081 28.8174L55.7323 28.4092C55.8161 28.2564 55.9417 28.1308 56.0945 28.047L56.5026 27.8286L56.0945 27.6044C55.9405 27.5223 55.8145 27.3962 55.7323 27.2422L55.5081 26.8341L55.2839 27.2422C55.2018 27.3962 55.0758 27.5223 54.9218 27.6044L54.5194 27.8286Z" fill="#FF682B"/>
<path d="M79.9052 39.0958C79.8236 39.0975 79.7433 39.0763 79.6732 39.0346C79.6031 38.993 79.546 38.9325 79.5085 38.8601L79.0084 37.8944L78.2208 37.469C78.1363 37.4177 78.0665 37.3456 78.018 37.2595C77.9696 37.1734 77.9441 37.0763 77.9441 36.9775C77.9441 36.8787 77.9696 36.7815 78.018 36.6954C78.0665 36.6094 78.1363 36.5372 78.2208 36.486L79.0141 36.0548L79.4223 35.3018C79.4716 35.2091 79.5454 35.1317 79.6356 35.078C79.7258 35.0243 79.8289 34.9963 79.9339 34.9971C80.0379 34.9974 80.1399 35.0258 80.2289 35.0795C80.318 35.1332 80.3909 35.21 80.4398 35.3018L80.8537 36.0548L81.5607 36.44C81.6566 36.494 81.7364 36.5724 81.7919 36.6674C81.8475 36.7623 81.8768 36.8703 81.8769 36.9803C81.877 37.0896 81.8477 37.1969 81.7921 37.291C81.7364 37.385 81.6565 37.4624 81.5607 37.515L80.8479 37.9001L80.3306 38.8544C80.2912 38.932 80.2299 38.9963 80.1542 39.0392C80.0786 39.0821 79.9919 39.1018 79.9052 39.0958ZM79.0084 36.9803L79.3705 37.1758C79.5043 37.251 79.6139 37.3627 79.6867 37.4977L79.8879 37.8599L80.0834 37.4977C80.1566 37.3611 80.2686 37.2491 80.4053 37.1758L80.7674 36.9803L80.4053 36.7791C80.2686 36.7059 80.1566 36.5939 80.0834 36.4572L79.8879 36.0951L79.6867 36.4572C79.6139 36.5923 79.5043 36.7039 79.3705 36.7791L79.0084 36.9803Z" fill="#FF682B"/>
<path d="M72.5008 82.9978C72.2985 82.9992 72.0985 82.9543 71.9162 82.8667C71.7339 82.779 71.574 82.6508 71.4488 82.4919C70.6267 81.4687 71.0924 78.8358 71.3281 77.7551C71.3579 77.6238 71.4174 77.5011 71.5022 77.3964C71.5869 77.2918 71.6945 77.208 71.8167 77.1515C71.9391 77.0975 72.0723 77.0725 72.2059 77.0785C72.3395 77.0845 72.4699 77.1213 72.587 77.186C73.4203 77.7686 74.1623 78.4718 74.7887 79.2727C75.6683 80.2787 75.5763 81.0893 75.3636 81.5722C74.9094 82.5609 73.5988 82.9978 72.5008 82.9978ZM72.771 79.6234C72.7026 80.1674 72.7026 80.7178 72.771 81.2617C73.1491 81.261 73.5143 81.1243 73.8 80.8766C73.7467 80.6988 73.6475 80.5382 73.5125 80.4109C73.2136 80.0948 72.9779 79.8361 72.771 79.6234Z" fill="white"/>
<path d="M67.9193 62.3662C67.7351 62.3657 67.556 62.3063 67.4081 62.1966C67.2602 62.087 67.1512 61.9329 67.0972 61.7568L65.6773 57.1177C65.6102 56.8989 65.6328 56.6625 65.7401 56.4603C65.8473 56.2582 66.0305 56.1069 66.2493 56.0399C66.4681 55.9728 66.7046 55.9954 66.9067 56.1026C67.1088 56.2099 67.2601 56.3931 67.3272 56.6118L68.7471 61.251C68.8133 61.4697 68.79 61.7059 68.6822 61.9075C68.5744 62.109 68.3909 62.2596 68.1722 62.3259C68.0907 62.3533 68.0052 62.3669 67.9193 62.3662Z" fill="white"/>
<path d="M71.2709 62.5559C71.0912 62.5569 70.9156 62.5022 70.7684 62.3992C70.6211 62.2963 70.5095 62.1502 70.4488 61.981L68.5805 56.3129C68.5089 56.0957 68.5264 55.8589 68.6294 55.6546C68.7324 55.4503 68.9122 55.2952 69.1295 55.2236C69.3468 55.1519 69.5836 55.1695 69.7879 55.2725C69.9922 55.3754 70.1472 55.5553 70.2189 55.7726L72.0872 61.4407C72.1218 61.5501 72.1343 61.6654 72.1241 61.7797C72.1139 61.894 72.0811 62.0052 72.0277 62.1068C71.9742 62.2084 71.9011 62.2983 71.8127 62.3715C71.7242 62.4446 71.6221 62.4995 71.5123 62.5329C71.4332 62.5513 71.352 62.5591 71.2709 62.5559Z" fill="white"/>
<path d="M73.7828 59.0147C73.6027 59.0175 73.4264 58.9634 73.2788 58.8602C73.1312 58.757 73.0199 58.6099 72.9607 58.4399L71.995 55.4103C71.9606 55.3024 71.9479 55.1887 71.9574 55.0759C71.967 54.963 71.9987 54.8531 72.0508 54.7525C72.1028 54.6518 72.1742 54.5625 72.2608 54.4894C72.3474 54.4164 72.4475 54.3611 72.5554 54.3267C72.6634 54.2924 72.7771 54.2796 72.8899 54.2892C73.0028 54.2988 73.1127 54.3305 73.2133 54.3826C73.314 54.4346 73.4033 54.506 73.4764 54.5926C73.5494 54.6791 73.6047 54.7793 73.6391 54.8872L74.6048 57.9167C74.6385 58.0254 74.6503 58.1397 74.6396 58.253C74.6289 58.3663 74.5959 58.4763 74.5424 58.5768C74.489 58.6773 74.4162 58.7662 74.3282 58.8384C74.2403 58.9106 74.1389 58.9646 74.03 58.9975C73.9489 59.0159 73.8656 59.0217 73.7828 59.0147Z" fill="white"/>
<path d="M72.2998 68.7758C72.903 68.7758 73.392 68.2868 73.392 67.6835C73.392 67.0803 72.903 66.5913 72.2998 66.5913C71.6965 66.5913 71.2075 67.0803 71.2075 67.6835C71.2075 68.2868 71.6965 68.7758 72.2998 68.7758Z" fill="#FF682B"/>
<path d="M77.9907 66.6547C78.5939 66.6547 79.0829 66.1657 79.0829 65.5624C79.0829 64.9592 78.5939 64.4702 77.9907 64.4702C77.3874 64.4702 76.8984 64.9592 76.8984 65.5624C76.8984 66.1657 77.3874 66.6547 77.9907 66.6547Z" fill="#FF682B"/>
<path d="M15.5842 12.4458H17.7341L20.9476 21.5401H18.8896L18.3147 19.6718H14.9403L14.3252 21.5401H12.3247L15.5842 12.4458ZM15.4577 18.1024H17.7571L16.6074 14.521L15.4577 18.1024Z" fill="white"/>
<path d="M31.364 13.411C31.6483 13.8182 31.7953 14.3056 31.7836 14.8021C31.8054 15.285 31.6546 15.7598 31.3582 16.1415C31.1646 16.3578 30.9302 16.5336 30.6684 16.6589C31.096 16.802 31.4641 17.0831 31.7146 17.458C31.9607 17.8584 32.0846 18.3219 32.071 18.7916C32.0799 19.3033 31.9401 19.8065 31.6686 20.2403C31.5011 20.5182 31.2827 20.7619 31.0248 20.9589C30.7207 21.1864 30.3688 21.3417 29.9958 21.413C29.5723 21.5011 29.1406 21.5435 28.7081 21.5395H24.6094V12.4452H28.9955C29.4388 12.4045 29.8854 12.471 30.2976 12.6391C30.7098 12.8072 31.0755 13.0719 31.364 13.411ZM26.4259 14.0203V16.0266H28.6334C28.9697 16.0413 29.3037 15.9638 29.5992 15.8024C29.7275 15.7154 29.8296 15.5949 29.8944 15.4541C29.9592 15.3133 29.9844 15.1574 29.9671 15.0033C29.9872 14.8294 29.9504 14.6537 29.8624 14.5024C29.7743 14.3511 29.6396 14.2324 29.4784 14.164C29.1353 14.0623 28.7785 14.0138 28.4207 14.0203H26.4259ZM26.4259 17.5327V19.9586H28.6334C28.9482 19.9749 29.2626 19.9199 29.5532 19.7977C29.7526 19.6851 29.9139 19.5155 30.0163 19.3106C30.1187 19.1058 30.1576 18.875 30.128 18.6479C30.1466 18.4454 30.1011 18.2421 29.9979 18.0667C29.8948 17.8914 29.7392 17.7529 29.5532 17.6707C29.2638 17.5589 28.955 17.5062 28.6449 17.5155L26.4259 17.5327Z" fill="white"/>
<path d="M13.848 25.5407C14.2089 25.1647 14.6443 24.8682 15.1264 24.6702C15.6085 24.4722 16.1266 24.3771 16.6476 24.391C18.1595 24.391 19.269 24.8968 19.9645 25.8971C20.3339 26.4003 20.5514 26.9987 20.5911 27.6217H18.6883C18.6051 27.2645 18.4463 26.9294 18.2227 26.6387C18.0305 26.4365 17.7955 26.2799 17.5348 26.1804C17.2742 26.081 16.9946 26.0411 16.7166 26.0638C16.4011 26.054 16.0883 26.1255 15.8084 26.2714C15.5286 26.4174 15.291 26.633 15.1185 26.8974C14.6901 27.6099 14.4896 28.4362 14.5436 29.2658C14.4814 30.0799 14.6984 30.8909 15.1587 31.5652C15.344 31.8056 15.5829 31.9994 15.8564 32.1312C16.1299 32.2629 16.4303 32.329 16.7338 32.324C17.0183 32.334 17.3009 32.2755 17.558 32.1535C17.8151 32.0314 18.0392 31.8494 18.2112 31.6227C18.4378 31.3075 18.5981 30.9496 18.6826 30.5707H20.5681C20.4416 31.4964 20.0013 32.3507 19.3207 32.9909C18.6187 33.625 17.6964 33.9592 16.7511 33.9221C16.1809 33.9509 15.6114 33.8529 15.0835 33.6352C14.5557 33.4175 14.0827 33.0856 13.6986 32.6632C12.9155 31.6897 12.5184 30.4618 12.5833 29.214C12.5401 28.5485 12.6296 27.881 12.8467 27.2503C13.0639 26.6197 13.4042 26.0386 13.848 25.5407Z" fill="white"/>
<path d="M30.375 24.7871C31.004 24.9876 31.5482 25.3922 31.9213 25.9369C32.234 26.377 32.4549 26.8755 32.5709 27.4027C32.6821 27.8972 32.74 28.4021 32.7434 28.9089C32.7779 29.9789 32.5259 31.0387 32.0133 31.9786C31.72 32.5243 31.2782 32.9758 30.7391 33.281C30.1999 33.5862 29.5854 33.7326 28.9666 33.7032H25.0403V24.5859H28.9953C29.4625 24.5857 29.9273 24.6535 30.375 24.7871ZM26.8856 26.1668V32.1051H28.6446C29.0602 32.1204 29.4693 31.9987 29.8089 31.7588C30.1486 31.5188 30.4 31.1739 30.5244 30.7772C30.726 30.225 30.8235 29.6403 30.8119 29.0526C30.8548 28.3176 30.7042 27.5842 30.375 26.9256C30.0875 26.4255 29.5069 26.1783 28.6504 26.1783L26.8856 26.1668Z" fill="white"/>
</svg>
