<svg width="94" height="80" viewBox="0 0 94 80" fill="none" xmlns="http://www.w3.org/2000/svg">
<path d="M1.93896 53.9553H91.2633C92.0139 53.9553 92.6237 53.3455 92.6237 52.595V1.36035C92.6237 0.609811 92.0139 0 91.2633 0H1.93896C1.18842 0 0.578613 0.609811 0.578613 1.36035V52.595C0.578613 53.3455 1.18842 53.9553 1.93896 53.9553ZM89.8978 2.71549V51.2294H3.29931V2.71549H89.8978Z" fill="#FF682B"/>
<path d="M12.4464 69.7791C14.5052 68.3667 15.7457 66.0473 15.7457 63.5194C15.7457 59.3289 12.337 55.915 8.14125 55.915C3.94553 55.915 0.536843 59.3289 0.536843 63.5194C0.536843 66.0473 1.77731 68.3667 3.83087 69.7739C1.47501 71.1395 0 73.6569 0 76.4297V78.8064C0 79.4632 0.536843 80 1.19356 80C1.85028 80 2.38713 79.4632 2.38713 78.8064V76.4297C2.38713 73.5005 4.76904 71.1186 7.69822 71.1186H8.04743C8.10997 71.1238 8.16731 71.1238 8.24549 71.1186H8.58427C11.5135 71.1186 13.8954 73.5005 13.8954 76.4297V78.8064C13.8954 79.4632 14.4322 80 15.0889 80C15.4069 80 15.7196 79.8697 15.9437 79.6404C16.1678 79.411 16.2825 79.1087 16.2721 78.8064V76.4297C16.2721 73.6621 14.7971 71.1447 12.4464 69.7791ZM13.3585 63.5194C13.3585 66.3965 11.0183 68.7367 8.14125 68.7367C5.26419 68.7367 2.92397 66.3965 2.92397 63.5194C2.92397 60.6424 5.26419 58.3022 8.14125 58.3022C11.0183 58.3022 13.3585 60.6424 13.3585 63.5194Z" fill="#FF682B"/>
<path d="M31.6737 69.7791C33.7325 68.3667 34.9782 66.0473 34.9782 63.5194C34.9782 59.3289 31.5643 55.915 27.3738 55.915C23.1833 55.915 19.7693 59.3289 19.7693 63.5194C19.7693 66.0421 21.0098 68.3615 23.0634 69.7739C20.7075 71.1395 19.2273 73.6569 19.2273 76.4297V78.8064C19.2273 79.4632 19.7641 80 20.4209 80C21.0776 80 21.6144 79.4632 21.6144 78.8064V76.4297C21.6144 73.5005 23.9963 71.1186 26.9255 71.1186H27.2799C27.3425 71.1238 27.3998 71.1238 27.478 71.1186H27.8116C30.7407 71.1186 33.1227 73.5005 33.1227 76.4297V78.8064C33.1227 79.4632 33.6595 80 34.3162 80C34.6342 80 34.9469 79.8697 35.171 79.6404C35.3951 79.411 35.5098 79.1087 35.5046 78.8064V76.4297C35.4994 73.6621 34.0244 71.1499 31.6737 69.7791ZM32.591 63.5194C32.591 66.3965 30.2508 68.7367 27.3738 68.7367C24.4967 68.7367 22.1565 66.3965 22.1565 63.5194C22.1565 60.6424 24.4967 58.3022 27.3738 58.3022C30.2508 58.3022 32.591 60.6424 32.591 63.5194Z" fill="#FF682B"/>
<path d="M50.901 69.7791C52.9598 68.3667 54.2055 66.0473 54.2055 63.5194C54.2055 59.3289 50.7968 55.915 46.6011 55.915C42.4053 55.915 38.9966 59.3289 38.9966 63.5194C38.9966 66.0421 40.2371 68.3615 42.2907 69.7739C39.9348 71.1395 38.4546 73.6569 38.4546 76.4297V78.8064C38.4546 79.4632 38.9914 80 39.6482 80C40.3049 80 40.8417 79.4632 40.8417 78.8064V76.4297C40.8417 73.5005 43.2236 71.1186 46.1528 71.1186H46.5072C46.5698 71.1238 46.6271 71.1238 46.7053 71.1186H47.0389C49.968 71.1186 52.35 73.5005 52.35 76.4297V78.8064C52.35 79.4632 52.8868 80 53.5435 80C53.8615 80 54.1742 79.8697 54.3983 79.6404C54.6224 79.411 54.7371 79.1087 54.7267 78.8064V76.4297C54.7267 73.6621 53.2516 71.1499 50.901 69.7791ZM51.8183 63.5194C51.8183 66.3965 49.4781 68.7367 46.6011 68.7367C43.724 68.7367 41.3838 66.3965 41.3838 63.5194C41.3838 60.6424 43.724 58.3022 46.6011 58.3022C49.4781 58.3022 51.8183 60.6424 51.8183 63.5194Z" fill="#FF682B"/>
<path d="M70.1283 69.7791C72.1871 68.3667 73.4327 66.0473 73.4327 63.5194C73.4327 59.3289 70.0241 55.915 65.8283 55.915C61.6326 55.915 58.2239 59.3289 58.2239 63.5194C58.2239 66.0421 59.4644 68.3615 61.518 69.7739C59.1621 71.1395 57.6819 73.6569 57.6819 76.4297V78.8064C57.6819 79.4632 58.2187 80 58.8754 80C59.5322 80 60.069 79.4632 60.069 78.8064V76.4297C60.069 73.5005 62.4509 71.1186 65.3801 71.1186H65.7345C65.7971 71.1238 65.8544 71.1238 65.9326 71.1186H66.2662C69.1953 71.1186 71.5773 73.5005 71.5773 76.4297V78.8064C71.5773 79.4632 72.1141 80 72.7708 80C73.0887 80 73.4015 79.8697 73.6256 79.6404C73.8497 79.411 73.9644 79.1087 73.954 78.8064V76.4297C73.954 73.6621 72.4789 71.1499 70.1283 69.7791ZM71.0456 63.5194C71.0456 66.3965 68.7054 68.7367 65.8283 68.7367C62.9513 68.7367 60.6111 66.3965 60.6111 63.5194C60.6111 60.6424 62.9513 58.3022 65.8283 58.3022C68.7054 58.3022 71.0456 60.6424 71.0456 63.5194Z" fill="#FF682B"/>
<path d="M89.3556 69.7791C91.4144 68.3667 92.66 66.0473 92.66 63.5194C92.66 59.3289 89.2514 55.915 85.0556 55.915C80.8599 55.915 77.4512 59.3289 77.4512 63.5194C77.4512 66.0473 78.6917 68.3615 80.7453 69.7739C78.3894 71.1395 76.9092 73.6569 76.9092 76.4297V78.8064C76.9092 79.4632 77.446 80 78.1027 80C78.7595 80 79.2963 79.4632 79.2963 78.8064V76.4297C79.2963 73.5005 81.6782 71.1186 84.6074 71.1186H84.9618C85.0244 71.1238 85.0817 71.1238 85.1599 71.1186H85.4935C88.4226 71.1186 90.8045 73.5005 90.8045 76.4297V78.8064C90.8045 79.4632 91.3414 80 91.9981 80C92.3265 80 92.6288 79.8749 92.8529 79.6456C93.0718 79.4162 93.1917 79.1139 93.1812 78.8064V76.4297C93.1812 73.6621 91.7062 71.1499 89.3556 69.7791ZM90.2729 63.5194C90.2729 66.3965 87.9327 68.7367 85.0556 68.7367C82.1786 68.7367 79.8384 66.3965 79.8384 63.5194C79.8384 60.6424 82.1786 58.3022 85.0556 58.3022C87.9327 58.3022 90.2729 60.6424 90.2729 63.5194Z" fill="#FF682B"/>
<path d="M25.9353 33.644H67.267C68.0175 33.644 68.6273 33.0342 68.6273 32.2837C68.6273 31.5332 68.0175 30.9233 67.267 30.9233H25.9353C25.1848 30.9233 24.575 31.5332 24.575 32.2837C24.575 33.0342 25.1848 33.644 25.9353 33.644Z" fill="#FF682B"/>
<path d="M25.9353 39.9766H67.267C68.0175 39.9766 68.6273 39.3667 68.6273 38.6162C68.6273 37.8657 68.0175 37.2559 67.267 37.2559H25.9353C25.1848 37.2559 24.575 37.8657 24.575 38.6162C24.575 39.3667 25.1848 39.9766 25.9353 39.9766Z" fill="#FF682B"/>
<path d="M25.9353 46.3091H67.267C68.0175 46.3091 68.6273 45.6993 68.6273 44.9487C68.6273 44.1982 68.0175 43.5884 67.267 43.5884H25.9353C25.1848 43.5884 24.575 44.1982 24.575 44.9487C24.575 45.6993 25.1848 46.3091 25.9353 46.3091Z" fill="#FF682B"/>
<path d="M37.3603 27.1818H55.8215C56.572 27.1818 57.1818 26.572 57.1818 25.8215V7.36035C57.1818 6.60981 56.572 6 55.8215 6H37.3603C36.6098 6 36 6.60981 36 7.36035V25.8215C36 26.572 36.6098 27.1818 37.3603 27.1818ZM38.7207 24.4611V8.7207H54.4611V24.4611H38.7207Z" fill="#FF682B"/>
<path d="M48.255 11.8184H46.2315L43.7109 13.4142V15.3233L46.0426 13.8617H46.1023V22.0002H48.255V11.8184Z" fill="#FF682B"/>
<path d="M79.3119 14.4581L80.4012 15.1357L80.9537 16.298C81.1309 16.6628 81.4854 16.8974 81.8867 16.9182H81.944C82.3245 16.9182 82.6685 16.7254 82.8718 16.4074L83.5493 15.3181L84.7012 14.7708C85.0713 14.5988 85.311 14.2444 85.3319 13.8379C85.3527 13.4366 85.1546 13.0561 84.8159 12.8476L83.7265 12.17L83.1793 11.0182C83.0073 10.6481 82.6529 10.4083 82.2567 10.3875C81.8554 10.3562 81.4697 10.5543 81.256 10.9035L80.5785 11.9876L79.4266 12.5349C79.0565 12.7069 78.8168 13.0613 78.7959 13.4678C78.7751 13.8692 78.9731 14.2496 79.3119 14.4581ZM81.4854 13.4626C81.6782 13.374 81.8398 13.2281 81.944 13.0561L82.1212 12.7694L82.2672 13.0717C82.3558 13.2646 82.5017 13.4261 82.6737 13.5304L82.9604 13.7076L82.6529 13.8535C82.46 13.9473 82.2984 14.0881 82.1942 14.2601L82.017 14.5467L81.871 14.2444C81.7824 14.0516 81.6365 13.89 81.4645 13.7858L81.1778 13.6086L81.4854 13.4626Z" fill="#FF682B"/>
<path d="M11.1224 32.2469L12.2065 32.9297L12.7538 34.0868C12.9258 34.4569 13.2802 34.6966 13.6868 34.7175H13.7441C14.1246 34.7175 14.4738 34.5194 14.6718 34.1962L15.3546 33.1121L16.5013 32.5649C16.8818 32.3929 17.1267 32.0332 17.1476 31.6371C17.1684 31.2358 16.9704 30.8553 16.6316 30.6468L15.5475 29.9693L14.995 28.807C14.8178 28.4421 14.4634 28.2076 14.0725 28.1867C13.6711 28.1503 13.2802 28.3587 13.0717 28.7027L12.389 29.7868L11.2319 30.3341C10.8618 30.5061 10.6221 30.8605 10.6012 31.2671C10.5908 31.658 10.7889 32.0385 11.1224 32.2469ZM13.2802 31.2462C13.4731 31.1524 13.6294 31.0117 13.7389 30.8397L13.9161 30.553L14.062 30.8553C14.1506 31.0482 14.2966 31.2045 14.4686 31.314L14.7552 31.4912L14.4529 31.6371C14.2601 31.7309 14.0985 31.8717 13.9943 32.0437L13.8171 32.3303L13.6763 32.0385C13.5877 31.8404 13.4418 31.6736 13.2646 31.5642L12.9779 31.3869L13.2802 31.2462Z" fill="#FF682B"/>
<path d="M76.5601 45.7514L77.6442 46.4289L78.1914 47.5808C78.3634 47.9508 78.7179 48.1906 79.1244 48.2114H79.1817C79.5622 48.2114 79.9114 48.0134 80.1095 47.6902L80.7871 46.6061L81.9337 46.0589C82.3142 45.8869 82.5644 45.5272 82.58 45.1311C82.6009 44.7298 82.4028 44.3493 82.064 44.1408L80.9799 43.4633L80.4274 42.2958C80.2502 41.9309 79.8958 41.6964 79.5049 41.6755C79.1036 41.6442 78.7126 41.8475 78.5042 42.1915L77.8266 43.2756L76.6747 43.8229C76.3047 43.9949 76.0649 44.3493 76.0441 44.7559C76.0284 45.1624 76.2265 45.5429 76.5601 45.7514ZM78.7179 44.7506C78.9107 44.662 79.0671 44.5161 79.1765 44.3441L79.3537 44.0574L79.4997 44.3597C79.5883 44.5526 79.7342 44.7089 79.9062 44.8184L80.1929 44.9956L79.8906 45.1415C79.6977 45.2301 79.5414 45.3761 79.4319 45.5481L79.2547 45.8347L79.114 45.5429C79.0254 45.3448 78.8794 45.178 78.7022 45.0686L78.4156 44.8914L78.7179 44.7506Z" fill="#FF682B"/>
</svg>