<?xml version="1.0" encoding="utf-8"?>
<!-- Generator: Adobe Illustrator 25.0.0, SVG Export Plug-In . SVG Version: 6.00 Build 0)  -->
<svg version="1.1" width="150" height="150" id="Layer_1" xmlns="http://www.w3.org/2000/svg" xmlns:xlink="http://www.w3.org/1999/xlink" x="0px" y="0px"
	 viewBox="0 0 500 500" style="enable-background:new 0 0 500 500;" xml:space="preserve">
<style type="text/css">
	.st0{fill:#FF4B00;}
</style>
<g>
	<g>
		<path class="st0" d="M404.9,116v185.2c0,0.9-0.1,1.7-0.3,2.5c-6.4-2.5-13.3-4-20.4-4.4V173.8H84.6v200.7h230.5
			c1.2,8.5,4,16.4,8,23.5c-0.9,0.2-1.9,0.4-3,0.4H73.6c-6.5,0-11.7-5.2-11.7-11.7V116c0-6.5,5.2-11.7,11.7-11.7h319.6
			C399.6,104.3,404.9,109.5,404.9,116z"/>
		<path class="st0" d="M86.5,120.9L86.5,120.9c-3.1,0-5.7-2.6-5.7-5.7V83.6c0-3.1,2.6-5.7,5.7-5.7h0c3.1,0,5.7,2.6,5.7,5.7v31.6
			C92.2,118.4,89.7,120.9,86.5,120.9z"/>
		<path class="st0" d="M160.6,120.9L160.6,120.9c-3.1,0-5.7-2.6-5.7-5.7V83.6c0-3.1,2.6-5.7,5.7-5.7h0c3.1,0,5.7,2.6,5.7,5.7v31.6
			C166.3,118.4,163.7,120.9,160.6,120.9z"/>
		<path class="st0" d="M234.6,120.9L234.6,120.9c-3.1,0-5.7-2.6-5.7-5.7V83.6c0-3.1,2.6-5.7,5.7-5.7h0c3.1,0,5.7,2.6,5.7,5.7v31.6
			C240.4,118.4,237.8,120.9,234.6,120.9z"/>
		<path class="st0" d="M308.7,120.9L308.7,120.9c-3.1,0-5.7-2.6-5.7-5.7V83.6c0-3.1,2.6-5.7,5.7-5.7l0,0c3.1,0,5.7,2.6,5.7,5.7v31.6
			C314.4,118.4,311.9,120.9,308.7,120.9z"/>
		<path class="st0" d="M382.8,120.9L382.8,120.9c-3.1,0-5.7-2.6-5.7-5.7V83.6c0-3.1,2.6-5.7,5.7-5.7h0c3.1,0,5.7,2.6,5.7,5.7v31.6
			C388.5,118.4,385.9,120.9,382.8,120.9z"/>
		<g>
			<g>
				<path class="st0" d="M196.8,314.3c-1-1.1-2.4-1.6-4-1.6c-1.6,0-2.9,0.5-4,1.6c-1,1.1-1.6,2.6-1.6,4.4c0,1.8,0.5,3.3,1.6,4.4
					c1,1.1,2.4,1.6,4,1.6c1.6,0,2.9-0.5,4-1.6c1-1.1,1.6-2.6,1.6-4.4C198.3,316.9,197.8,315.4,196.8,314.3z M196.8,314.3
					c-1-1.1-2.4-1.6-4-1.6c-1.6,0-2.9,0.5-4,1.6c-1,1.1-1.6,2.6-1.6,4.4c0,1.8,0.5,3.3,1.6,4.4c1,1.1,2.4,1.6,4,1.6
					c1.6,0,2.9-0.5,4-1.6c1-1.1,1.6-2.6,1.6-4.4C198.3,316.9,197.8,315.4,196.8,314.3z M196.8,314.3c-1-1.1-2.4-1.6-4-1.6
					c-1.6,0-2.9,0.5-4,1.6c-1,1.1-1.6,2.6-1.6,4.4c0,1.8,0.5,3.3,1.6,4.4c1,1.1,2.4,1.6,4,1.6c1.6,0,2.9-0.5,4-1.6
					c1-1.1,1.6-2.6,1.6-4.4C198.3,316.9,197.8,315.4,196.8,314.3z M229.3,320.5c-2.6,0-3.9,0.8-3.9,2.5c0,0.8,0.3,1.5,0.9,1.9
					c0.6,0.5,1.5,0.7,2.6,0.7c1.1,0,2-0.2,2.9-0.8s1.4-1.2,1.8-2.2v-2.2H229.3z M229.3,320.5c-2.6,0-3.9,0.8-3.9,2.5
					c0,0.8,0.3,1.5,0.9,1.9c0.6,0.5,1.5,0.7,2.6,0.7c1.1,0,2-0.2,2.9-0.8s1.4-1.2,1.8-2.2v-2.2H229.3z M196.8,314.3
					c-1-1.1-2.4-1.6-4-1.6c-1.6,0-2.9,0.5-4,1.6c-1,1.1-1.6,2.6-1.6,4.4c0,1.8,0.5,3.3,1.6,4.4c1,1.1,2.4,1.6,4,1.6
					c1.6,0,2.9-0.5,4-1.6c1-1.1,1.6-2.6,1.6-4.4C198.3,316.9,197.8,315.4,196.8,314.3z M328.4,296.2H136.6c-4.6,0-8.3,3.7-8.3,8.3
					v32.9c0,4.6,3.7,8.3,8.3,8.3h180.8c3.6-11.8,10.4-22.1,19.4-30.1v-11.2C336.8,299.9,333,296.2,328.4,296.2z M163.7,326.6
					c-0.8,1-2,1.9-3.5,2.5c-1.6,0.6-3.4,0.9-5.5,0.9c-1.8,0-3.6-0.2-5.3-0.7c-1.7-0.4-3.1-1-4.1-1.7l2.1-4.5c1,0.6,2.1,1.1,3.5,1.5
					c1.4,0.4,2.7,0.6,4,0.6c2.7,0,4-0.7,4-2c0-0.6-0.4-1.1-1.1-1.3c-0.7-0.3-1.9-0.5-3.4-0.7c-1.8-0.3-3.3-0.6-4.4-0.9
					c-1.2-0.3-2.2-1-3-1.9c-0.9-0.9-1.3-2.2-1.3-3.8c0-1.4,0.4-2.6,1.2-3.7c0.8-1.1,2-1.9,3.5-2.5c1.5-0.6,3.3-0.9,5.4-0.9
					c1.5,0,3.1,0.2,4.6,0.5c1.5,0.3,2.8,0.8,3.8,1.4l-2.1,4.5c-1.9-1.1-4-1.6-6.3-1.6c-1.3,0-2.4,0.2-3,0.6c-0.7,0.4-1,0.9-1,1.5
					c0,0.7,0.4,1.2,1.1,1.4c0.7,0.3,1.9,0.5,3.5,0.8c1.8,0.3,3.2,0.6,4.4,1c1.1,0.3,2.1,0.9,3,1.8c0.8,0.9,1.3,2.1,1.3,3.7
					C164.9,324.4,164.5,325.6,163.7,326.6z M203.3,324.6c-1,1.7-2.2,3-3.9,3.9c-1.7,0.9-3.5,1.4-5.5,1.4c-2.8,0-5-0.9-6.6-2.6v10.2
					H181v-29.6h6v2.5c1.6-1.9,3.8-2.8,6.8-2.8c2,0,3.9,0.5,5.5,1.4c1.7,0.9,3,2.2,3.9,3.9c0.9,1.7,1.4,3.6,1.4,5.9
					C204.7,321,204.2,322.9,203.3,324.6z M240,329.6h-5.9v-2.7c-1.2,2-3.4,3-6.6,3c-1.7,0-3.1-0.3-4.4-0.9c-1.2-0.6-2.2-1.3-2.8-2.3
					c-0.7-1-1-2.1-1-3.4c0-2,0.8-3.6,2.3-4.8c1.5-1.2,3.9-1.7,7.1-1.7h5c0-1.4-0.4-2.4-1.2-3.2c-0.8-0.7-2.1-1.1-3.8-1.1
					c-1.2,0-2.3,0.2-3.4,0.5c-1.1,0.4-2.1,0.9-2.9,1.5l-2.3-4.4c1.2-0.8,2.6-1.5,4.3-2c1.7-0.5,3.4-0.7,5.1-0.7c3.4,0,6,0.8,7.8,2.4
					c1.8,1.6,2.7,4,2.7,7.3V329.6z M264.5,323.1c1.1,1.1,2.4,1.6,4.1,1.6c2.2,0,3.8-1,4.9-3l4.9,2.7c-0.8,1.7-2,3.1-3.8,4
					c-1.7,1-3.7,1.5-6,1.5c-2.3,0-4.4-0.5-6.2-1.4c-1.8-1-3.3-2.3-4.3-4c-1-1.7-1.6-3.6-1.6-5.8c0-2.2,0.5-4.1,1.6-5.8
					c1-1.7,2.5-3,4.3-4c1.8-1,3.9-1.4,6.2-1.4c2.3,0,4.3,0.5,6,1.4c1.7,1,3,2.3,3.8,4.1l-4.9,2.6c-1.1-2-2.8-3-4.9-3
					c-1.7,0-3,0.5-4.1,1.6c-1.1,1.1-1.6,2.5-1.6,4.4C262.9,320.6,263.4,322.1,264.5,323.1z M315.1,320.5h-16.5
					c0.3,1.3,1,2.4,2.1,3.2c1.1,0.8,2.5,1.2,4.1,1.2c1.1,0,2.1-0.2,3-0.5c0.9-0.3,1.7-0.9,2.4-1.6l3.4,3.6c-2.1,2.4-5.1,3.5-9,3.5
					c-2.4,0-4.6-0.5-6.5-1.4c-1.9-1-3.3-2.3-4.4-4c-1-1.7-1.5-3.6-1.5-5.8c0-2.1,0.5-4,1.5-5.8c1-1.7,2.4-3.1,4.2-4
					c1.8-1,3.8-1.4,5.9-1.4c2.1,0,4.1,0.5,5.8,1.4c1.7,0.9,3.1,2.2,4.1,4c1,1.7,1.5,3.7,1.5,6C315.2,318.9,315.2,319.5,315.1,320.5z
					 M303.9,312.3c-1.4,0-2.6,0.4-3.6,1.2c-1,0.8-1.6,1.9-1.8,3.3h10.7c-0.2-1.4-0.8-2.5-1.8-3.3
					C306.5,312.7,305.3,312.3,303.9,312.3z M225.4,323.1c0,0.8,0.3,1.5,0.9,1.9c0.6,0.5,1.5,0.7,2.6,0.7c1.1,0,2-0.2,2.9-0.8
					s1.4-1.2,1.8-2.2v-2.2h-4.3C226.7,320.5,225.4,321.4,225.4,323.1z M192.8,312.7c-1.6,0-2.9,0.5-4,1.6c-1,1.1-1.6,2.6-1.6,4.4
					c0,1.8,0.5,3.3,1.6,4.4c1,1.1,2.4,1.6,4,1.6c1.6,0,2.9-0.5,4-1.6c1-1.1,1.6-2.6,1.6-4.4c0-1.8-0.5-3.3-1.6-4.4
					C195.7,313.2,194.4,312.7,192.8,312.7z M196.8,314.3c-1-1.1-2.4-1.6-4-1.6c-1.6,0-2.9,0.5-4,1.6c-1,1.1-1.6,2.6-1.6,4.4
					c0,1.8,0.5,3.3,1.6,4.4c1,1.1,2.4,1.6,4,1.6c1.6,0,2.9-0.5,4-1.6c1-1.1,1.6-2.6,1.6-4.4C198.3,316.9,197.8,315.4,196.8,314.3z
					 M229.3,320.5c-2.6,0-3.9,0.8-3.9,2.5c0,0.8,0.3,1.5,0.9,1.9c0.6,0.5,1.5,0.7,2.6,0.7c1.1,0,2-0.2,2.9-0.8s1.4-1.2,1.8-2.2v-2.2
					H229.3z M229.3,320.5c-2.6,0-3.9,0.8-3.9,2.5c0,0.8,0.3,1.5,0.9,1.9c0.6,0.5,1.5,0.7,2.6,0.7c1.1,0,2-0.2,2.9-0.8
					s1.4-1.2,1.8-2.2v-2.2H229.3z M196.8,314.3c-1-1.1-2.4-1.6-4-1.6c-1.6,0-2.9,0.5-4,1.6c-1,1.1-1.6,2.6-1.6,4.4
					c0,1.8,0.5,3.3,1.6,4.4c1,1.1,2.4,1.6,4,1.6c1.6,0,2.9-0.5,4-1.6c1-1.1,1.6-2.6,1.6-4.4C198.3,316.9,197.8,315.4,196.8,314.3z"
					/>
			</g>
			<g>
				<path class="st0" d="M169,224.5c-0.9-1.7-2.2-3-3.9-3.9c-1.7-0.9-3.5-1.4-5.5-1.4c-2.8,0-5,0.9-6.6,2.6v-10.6h-6.3v30h6v-2.5
					c1.6,1.9,3.9,2.8,6.9,2.8c2,0,3.9-0.5,5.5-1.4c1.7-0.9,3-2.2,3.9-3.9c0.9-1.7,1.4-3.7,1.4-5.9
					C170.4,228.1,169.9,226.1,169,224.5z M162.4,234.7c-1,1.1-2.4,1.6-4,1.6c-1.6,0-2.9-0.5-4-1.6c-1-1.1-1.6-2.6-1.6-4.4
					c0-1.8,0.5-3.3,1.6-4.4c1-1.1,2.4-1.6,4-1.6c1.6,0,2.9,0.5,4,1.6c1,1.1,1.6,2.6,1.6,4.4C164,232.2,163.5,233.6,162.4,234.7z"/>
				<path class="st0" d="M207.5,224.6c-1-1.7-2.4-3-4.2-4c-1.8-1-3.9-1.4-6.2-1.4c-2.3,0-4.3,0.5-6.2,1.4c-1.8,1-3.2,2.3-4.3,4
					c-1,1.7-1.5,3.6-1.5,5.8c0,2.2,0.5,4.1,1.5,5.8c1,1.7,2.5,3,4.3,4c1.8,1,3.9,1.4,6.2,1.4c2.3,0,4.3-0.5,6.2-1.4
					c1.8-1,3.2-2.3,4.2-4c1-1.7,1.5-3.6,1.5-5.8C209.1,228.2,208.6,226.3,207.5,224.6z M201.1,234.7c-1,1.1-2.4,1.6-4,1.6
					s-3-0.5-4-1.6c-1.1-1.1-1.6-2.6-1.6-4.4c0-1.8,0.5-3.3,1.6-4.4c1-1.1,2.4-1.6,4-1.6s2.9,0.5,4,1.6c1,1.1,1.6,2.6,1.6,4.4
					C202.7,232.2,202.2,233.6,201.1,234.7z"/>
				<path class="st0" d="M246.2,224.6c-1-1.7-2.4-3-4.2-4s-3.9-1.4-6.2-1.4c-2.3,0-4.4,0.5-6.2,1.4c-1.8,1-3.2,2.3-4.3,4
					c-1,1.7-1.5,3.6-1.5,5.8c0,2.2,0.5,4.1,1.5,5.8c1,1.7,2.5,3,4.3,4c1.8,1,3.9,1.4,6.2,1.4c2.3,0,4.3-0.5,6.2-1.4
					c1.8-1,3.2-2.3,4.2-4c1-1.7,1.5-3.6,1.5-5.8C247.8,228.2,247.3,226.3,246.2,224.6z M239.8,234.7c-1,1.1-2.4,1.6-4,1.6
					c-1.6,0-3-0.5-4-1.6c-1.1-1.1-1.6-2.6-1.6-4.4c0-1.8,0.5-3.3,1.6-4.4c1-1.1,2.4-1.6,4-1.6c1.6,0,2.9,0.5,4,1.6
					c1,1.1,1.6,2.6,1.6,4.4C241.4,232.2,240.8,233.6,239.8,234.7z"/>
				<path class="st0" d="M278.1,228.7l9.1-9.2h-7.5l-9.2,8.8v-17h-6.3v30h6.3v-5.5l3-3l6.9,8.5h7.7L278.1,228.7z"/>
				<path class="st0" d="M181.1,260.3c-1.6-1.6-3.8-2.4-6.5-2.4c-1.6,0-3.1,0.3-4.5,0.9c-1.4,0.6-2.5,1.5-3.4,2.6
					c-0.8-1.2-1.8-2-3-2.7s-2.6-0.9-4.2-0.9c-1.4,0-2.7,0.2-3.9,0.7c-1.2,0.5-2.2,1.2-3,2.1v-2.5h-6V280h6.3v-10.9
					c0-1.9,0.4-3.3,1.3-4.3c0.9-1,2-1.4,3.5-1.4c2.8,0,4.1,1.7,4.1,5.2V280h6.3v-10.9c0-1.9,0.4-3.3,1.3-4.3c0.9-1,2-1.4,3.5-1.4
					c1.3,0,2.3,0.4,3.1,1.3c0.7,0.8,1.1,2.1,1.1,3.9V280h6.3v-12.5C183.5,264.3,182.7,261.9,181.1,260.3z"/>
				<path class="st0" d="M216.5,258.2l-6.1,14.8l-6.1-14.8h-6.5l9.4,21.9l-0.1,0.2c-0.4,1-0.9,1.7-1.4,2.1c-0.5,0.4-1.2,0.6-2.1,0.6
					c-0.6,0-1.2-0.1-1.9-0.4c-0.6-0.2-1.2-0.6-1.7-1l-2.3,4.5c0.7,0.6,1.6,1.1,2.7,1.4c1.1,0.4,2.2,0.5,3.4,0.5
					c2.1,0,3.9-0.5,5.3-1.5c1.5-1,2.7-2.8,3.7-5.3l9.8-23.1H216.5z"/>
			</g>
		</g>
	</g>
	<g>
		<g>
			<path class="st0" d="M381.3,308.4c-31.3,0-56.8,25.5-56.8,56.8c0,31.3,25.5,56.8,56.8,56.8c31.3,0,56.8-25.5,56.8-56.8
				C438.1,333.9,412.7,308.4,381.3,308.4z M381.3,408.2c-23.7,0-42.9-19.2-42.9-42.9c0-23.7,19.3-42.9,42.9-42.9
				c23.7,0,42.9,19.3,42.9,42.9C424.2,388.9,405,408.2,381.3,408.2z"/>
		</g>
		<g>
			<path class="st0" d="M372.5,388.8c-1.4,0-2.9-0.5-4-1.6l-14.7-14.7c-2.2-2.2-2.2-5.8,0-8c2.2-2.2,5.8-2.2,8,0l10.8,10.8
				l28.4-28.4c2.2-2.2,5.8-2.2,8,0c2.2,2.2,2.2,5.8,0,8l-32.3,32.3C375.4,388.2,374,388.8,372.5,388.8z"/>
		</g>
	</g>
</g>
</svg>
