<svg width="235" height="61" viewBox="0 0 235 61" fill="none" xmlns="http://www.w3.org/2000/svg">
<path d="M1 39.3782C1.61877 36.5002 1.96413 33.5214 1.96413 30.4708C1.96413 27.3913 1.61877 24.3982 1 21.5202" stroke="#FF682B" stroke-width="2" stroke-linecap="round" stroke-linejoin="round"/>
<path d="M5.44652 48.1129C7.54747 42.6735 8.72745 36.7592 8.72745 30.5571C8.72745 24.2974 7.53308 18.3256 5.37457 12.8286" stroke="#FF682B" stroke-width="2" stroke-linecap="round" stroke-linejoin="round"/>
<path d="M14.8864 38.8457C14.1237 43.9398 12.6703 48.818 10.6269 53.3653" stroke="#FF682B" stroke-width="2" stroke-linecap="round" stroke-linejoin="round"/>
<path d="M14.8288 22.1102C14.0374 17.0161 12.5408 12.1523 10.4543 7.60501" stroke="#FF682B" stroke-width="2" stroke-linecap="round" stroke-linejoin="round"/>
<path d="M20.369 15.4763C19.3617 11.5047 17.9802 7.67695 16.239 4.05066" stroke="#FF682B" stroke-width="2" stroke-linecap="round" stroke-linejoin="round"/>
<path d="M20.4985 45.4652C19.5344 49.4512 18.1817 53.2934 16.4837 56.934" stroke="#FF682B" stroke-width="2" stroke-linecap="round" stroke-linejoin="round"/>
<path d="M26.8445 48.1705C25.866 51.9407 24.5709 55.5814 22.988 59.0781" stroke="#FF682B" stroke-width="2" stroke-linecap="round" stroke-linejoin="round"/>
<path d="M26.6143 12.7135C25.5926 8.95769 24.2543 5.31701 22.6426 1.83463" stroke="#FF682B" stroke-width="2" stroke-linecap="round" stroke-linejoin="round"/>
<path d="M33.4927 12.325C32.4998 8.42526 31.2047 4.64068 29.6362 1" stroke="#FF682B" stroke-width="2" stroke-linecap="round" stroke-linejoin="round"/>
<path d="M33.7517 48.4727C32.8164 52.3868 31.5932 56.2001 30.0823 59.8552" stroke="#FF682B" stroke-width="2" stroke-linecap="round" stroke-linejoin="round"/>
<path d="M40.9899 14.8864C40.0833 10.2816 38.7738 5.83504 37.1334 1.54681" stroke="#FF682B" stroke-width="2" stroke-linecap="round" stroke-linejoin="round"/>
<path d="M41.2489 45.7386C40.4143 50.3722 39.2199 54.8763 37.6514 59.2077" stroke="#FF682B" stroke-width="2" stroke-linecap="round" stroke-linejoin="round"/>
<path d="M48.3576 44.4579C47.7532 48.5303 46.8466 52.5163 45.7098 56.3872" stroke="#FF682B" stroke-width="2" stroke-linecap="round" stroke-linejoin="round"/>
<path d="M48.1417 16.5124C47.451 12.2961 46.4581 8.16618 45.2062 4.18015" stroke="#FF682B" stroke-width="2" stroke-linecap="round" stroke-linejoin="round"/>
<path d="M66.2588 41.5224C65.6976 47.8108 64.5752 53.941 62.9347 59.8553" stroke="#FF682B" stroke-width="2" stroke-linecap="round" stroke-linejoin="round"/>
<path d="M69.9858 59.8553C72.2451 51.0774 73.4538 41.8822 73.4538 32.4135C73.4538 30.2118 73.3675 28.0245 73.238 25.8517" stroke="#FF682B" stroke-width="2" stroke-linecap="round" stroke-linejoin="round"/>
<path d="M79.2098 47.6526C79.8574 42.688 80.2171 37.6371 80.2171 32.4999C80.2171 26.0675 79.6703 19.7791 78.6774 13.6345" stroke="#FF682B" stroke-width="2" stroke-linecap="round" stroke-linejoin="round"/>
<path d="M86.6495 23.6931C86.1458 16.6276 85.0522 9.73481 83.4117 3.05783" stroke="#FF682B" stroke-width="2" stroke-linecap="round" stroke-linejoin="round"/>
<path d="M86.0451 47.6526C86.448 44.3572 86.7358 41.0188 86.8653 37.6515" stroke="#FF682B" stroke-width="2" stroke-linecap="round" stroke-linejoin="round"/>
<path d="M92.9091 47.6526C93.2833 44.3572 93.5423 41.0188 93.6718 37.6515" stroke="#FF682B" stroke-width="2" stroke-linecap="round" stroke-linejoin="round"/>
<path d="M90.3333 2.91391C91.9882 9.93625 93.053 17.1744 93.5135 24.5853" stroke="#FF682B" stroke-width="2" stroke-linecap="round" stroke-linejoin="round"/>
<path d="M99.73 47.6525C100.262 42.7743 100.536 37.8241 100.536 32.802C100.536 23.6931 99.6437 14.8001 97.9456 6.19485" stroke="#FF682B" stroke-width="2" stroke-linecap="round" stroke-linejoin="round"/>
<path d="M105.745 54.128C106.767 47.192 107.314 40.1121 107.314 32.8883C107.314 30.8593 107.256 28.8447 107.184 26.8301" stroke="#FF682B" stroke-width="2" stroke-linecap="round" stroke-linejoin="round"/>
<path d="M111.688 59.8553C112.753 53.9266 113.472 47.8684 113.832 41.7094" stroke="#FF682B" stroke-width="2" stroke-linecap="round" stroke-linejoin="round"/>
<path d="M119.43 54.2432C119.171 56.1283 118.898 57.999 118.567 59.8553" stroke="#FF682B" stroke-width="2" stroke-linecap="round" stroke-linejoin="round"/>
<path d="M134.626 59.8553C135.979 51.1925 136.684 42.3282 136.684 33.2913C136.684 22.9304 135.763 12.7711 133.978 2.91391" stroke="#FF682B" stroke-width="2" stroke-linecap="round" stroke-linejoin="round"/>
<path d="M140.842 2.91391C142.224 10.886 143.073 19.0451 143.346 27.3338" stroke="#FF682B" stroke-width="2" stroke-linecap="round" stroke-linejoin="round"/>
<path d="M141.504 59.8553C142.785 51.25 143.461 42.4577 143.476 33.4927" stroke="#FF682B" stroke-width="2" stroke-linecap="round" stroke-linejoin="round"/>
<path d="M149.937 43.9975C150.138 40.5295 150.239 37.0327 150.239 33.5071" stroke="#FF682B" stroke-width="2" stroke-linecap="round" stroke-linejoin="round"/>
<path d="M149.174 13.6489C148.786 10.037 148.296 6.45386 147.692 2.91391" stroke="#FF682B" stroke-width="2" stroke-linecap="round" stroke-linejoin="round"/>
<path d="M156.614 45.6524C156.858 41.6663 157.002 37.6371 157.002 33.5935C157.002 33.5072 157.002 33.4208 157.002 33.3201" stroke="#FF682B" stroke-width="2" stroke-linecap="round" stroke-linejoin="round"/>
<path d="M154.542 2.91391C155.117 6.48264 155.607 10.0945 155.981 13.7352" stroke="#FF682B" stroke-width="2" stroke-linecap="round" stroke-linejoin="round"/>
<path d="M162.701 54.4302C163.406 47.6094 163.78 40.6878 163.78 33.6798C163.78 32.5574 163.751 31.435 163.737 30.3126" stroke="#FF682B" stroke-width="2" stroke-linecap="round" stroke-linejoin="round"/>
<path d="M162.989 16.124C162.614 11.8789 162.125 7.66264 161.478 3.48953" stroke="#FF682B" stroke-width="2" stroke-linecap="round" stroke-linejoin="round"/>
<path d="M168.903 59.8553C169.522 54.9483 169.968 49.9981 170.241 44.9904" stroke="#FF682B" stroke-width="2" stroke-linecap="round" stroke-linejoin="round"/>
<path d="M170.443 40.2273C170.515 38.0832 170.558 35.939 170.558 33.7805C170.558 24.2831 169.896 14.944 168.644 5.79193" stroke="#FF682B" stroke-width="2" stroke-linecap="round" stroke-linejoin="round"/>
<path d="M175.724 59.8553C175.968 57.8407 176.184 55.8261 176.371 53.7971" stroke="#FF682B" stroke-width="2" stroke-linecap="round" stroke-linejoin="round"/>
<path d="M176.213 12.1667C176.918 19.0595 177.278 26.0675 177.307 33.1474" stroke="#FF682B" stroke-width="2" stroke-linecap="round" stroke-linejoin="round"/>
<path d="M143.361 27.3482V33.5071H143.461" stroke="#FF682B" stroke-width="2" stroke-linecap="round" stroke-linejoin="round"/>
<path d="M191.884 9.34619C192.574 15.8505 192.963 22.4411 193.093 29.0893" stroke="#FF682B" stroke-width="2" stroke-linecap="round" stroke-linejoin="round"/>
<path d="M191.999 55.8548C192.402 51.8688 192.69 47.854 192.877 43.8104" stroke="#FF682B" stroke-width="2" stroke-linecap="round" stroke-linejoin="round"/>
<path d="M198.561 58.2435C198.949 54.5741 199.251 50.8902 199.482 47.1776" stroke="#FF682B" stroke-width="2" stroke-linecap="round" stroke-linejoin="round"/>
<path d="M198.086 4.13702C199.28 13.6344 199.899 23.3189 199.899 33.1329" stroke="#FF682B" stroke-width="2" stroke-linecap="round" stroke-linejoin="round"/>
<path d="M204.605 1.84897C205.079 5.46087 205.468 9.08716 205.785 12.7566" stroke="#FF682B" stroke-width="2" stroke-linecap="round" stroke-linejoin="round"/>
<path d="M206.648 35.1619C206.648 34.5576 206.677 33.9532 206.677 33.3344C206.677 29.8808 206.59 26.4416 206.447 23.0168" stroke="#FF682B" stroke-width="2" stroke-linecap="round" stroke-linejoin="round"/>
<path d="M205.238 59.5387C205.626 56.0275 205.928 52.4875 206.159 48.9332" stroke="#FF682B" stroke-width="2" stroke-linecap="round" stroke-linejoin="round"/>
<path d="M213.397 36.8312C213.411 35.6944 213.44 34.5719 213.44 33.4351C213.44 30.6147 213.368 27.8086 213.282 25.0026" stroke="#FF682B" stroke-width="2" stroke-linecap="round" stroke-linejoin="round"/>
<path d="M212.922 49.2642C212.692 52.8185 212.404 56.3441 212.03 59.8552" stroke="#FF682B" stroke-width="2" stroke-linecap="round" stroke-linejoin="round"/>
<path d="M211.31 1.07193C211.771 4.55432 212.145 8.06548 212.462 11.591" stroke="#FF682B" stroke-width="2" stroke-linecap="round" stroke-linejoin="round"/>
<path d="M219.326 12.3537C219.023 8.65547 218.649 4.97163 218.174 1.31656" stroke="#FF682B" stroke-width="2" stroke-linecap="round" stroke-linejoin="round"/>
<path d="M218.937 59.1357C219.326 55.2216 219.628 51.2787 219.844 47.3071" stroke="#FF682B" stroke-width="2" stroke-linecap="round" stroke-linejoin="round"/>
<path d="M220.146 39.6372C220.189 37.6082 220.218 35.5792 220.218 33.5359C220.218 31.2622 220.189 29.003 220.131 26.7581" stroke="#FF682B" stroke-width="2" stroke-linecap="round" stroke-linejoin="round"/>
<path d="M225.959 56.6894C226.636 49.0914 226.995 41.4072 226.995 33.6366C226.995 32.1544 226.967 30.6722 226.938 29.19" stroke="#FF682B" stroke-width="2" stroke-linecap="round" stroke-linejoin="round"/>
<path d="M226.305 14.8576C226.017 10.7996 225.628 6.77037 225.139 2.75555" stroke="#FF682B" stroke-width="2" stroke-linecap="round" stroke-linejoin="round"/>
<path d="M233.27 49.6527C233.543 45.0191 233.701 40.3423 233.73 35.6368" stroke="#FF682B" stroke-width="2" stroke-linecap="round" stroke-linejoin="round"/>
</svg>