<svg width="121" height="32" viewBox="0 0 121 32" fill="none" xmlns="http://www.w3.org/2000/svg">
<path d="M1 20.5624C1.3154 19.0954 1.49144 17.5771 1.49144 16.0221C1.49144 14.4524 1.3154 12.9267 1 11.4597" stroke="white" stroke-width="2" stroke-linecap="round" stroke-linejoin="round"/>
<path d="M3.26647 25.0146C4.33738 22.242 4.93884 19.2273 4.93884 16.066C4.93884 12.8753 4.33004 9.83125 3.2298 7.0293" stroke="white" stroke-width="2" stroke-linecap="round" stroke-linejoin="round"/>
<path d="M8.07825 20.291C7.6895 22.8876 6.94867 25.3741 5.9071 27.692" stroke="white" stroke-width="2" stroke-linecap="round" stroke-linejoin="round"/>
<path d="M8.04886 11.7603C7.64544 9.16377 6.8826 6.68455 5.81903 4.3667" stroke="white" stroke-width="2" stroke-linecap="round" stroke-linejoin="round"/>
<path d="M10.8729 8.37889C10.3594 6.35444 9.65529 4.40334 8.76776 2.55493" stroke="white" stroke-width="2" stroke-linecap="round" stroke-linejoin="round"/>
<path d="M10.9388 23.665C10.4473 25.6968 9.75786 27.6553 8.89233 29.511" stroke="white" stroke-width="2" stroke-linecap="round" stroke-linejoin="round"/>
<path d="M14.1735 25.0439C13.6748 26.9657 13.0146 28.8215 12.2078 30.6038" stroke="white" stroke-width="2" stroke-linecap="round" stroke-linejoin="round"/>
<path d="M14.0563 6.97077C13.5355 5.05634 12.8533 3.2006 12.0318 1.42554" stroke="white" stroke-width="2" stroke-linecap="round" stroke-linejoin="round"/>
<path d="M17.5623 6.77262C17.0562 4.78484 16.3961 2.85575 15.5966 1" stroke="white" stroke-width="2" stroke-linecap="round" stroke-linejoin="round"/>
<path d="M17.6943 25.198C17.2176 27.1931 16.5941 29.1369 15.8239 31" stroke="white" stroke-width="2" stroke-linecap="round" stroke-linejoin="round"/>
<path d="M21.3839 8.07832C20.9218 5.73113 20.2543 3.46463 19.4181 1.27881" stroke="white" stroke-width="2" stroke-linecap="round" stroke-linejoin="round"/>
<path d="M21.5159 23.8044C21.0904 26.1663 20.4816 28.4621 19.6821 30.67" stroke="white" stroke-width="2" stroke-linecap="round" stroke-linejoin="round"/>
<path d="M25.1394 23.1516C24.8313 25.2274 24.3692 27.2592 23.7897 29.2323" stroke="white" stroke-width="2" stroke-linecap="round" stroke-linejoin="round"/>
<path d="M25.0293 8.90716C24.6772 6.75801 24.1711 4.65288 23.533 2.62109" stroke="white" stroke-width="2" stroke-linecap="round" stroke-linejoin="round"/>
<path d="M34.2641 21.6553C33.9781 24.8607 33.4059 27.9853 32.5698 31" stroke="white" stroke-width="2" stroke-linecap="round" stroke-linejoin="round"/>
<path d="M36.1639 31C37.3155 26.5257 37.9316 21.8386 37.9316 17.0122C37.9316 15.89 37.8876 14.7751 37.8216 13.6675" stroke="white" stroke-width="2" stroke-linecap="round" stroke-linejoin="round"/>
<path d="M40.8656 24.78C41.1956 22.2495 41.379 19.6749 41.379 17.0563C41.379 13.7776 41.1003 10.5722 40.5942 7.44019" stroke="white" stroke-width="2" stroke-linecap="round" stroke-linejoin="round"/>
<path d="M44.6578 12.5674C44.401 8.96594 43.8436 5.45249 43.0074 2.04907" stroke="white" stroke-width="2" stroke-linecap="round" stroke-linejoin="round"/>
<path d="M44.3497 24.7799C44.555 23.1002 44.7017 21.3985 44.7678 19.6821" stroke="white" stroke-width="2" stroke-linecap="round" stroke-linejoin="round"/>
<path d="M47.8484 24.7799C48.0392 23.1002 48.1712 21.3985 48.2372 19.6821" stroke="white" stroke-width="2" stroke-linecap="round" stroke-linejoin="round"/>
<path d="M46.5355 1.97559C47.379 5.55505 47.9218 9.24453 48.1565 13.022" stroke="white" stroke-width="2" stroke-linecap="round" stroke-linejoin="round"/>
<path d="M51.3252 24.78C51.5966 22.2934 51.7359 19.7702 51.7359 17.2103C51.7359 12.5673 51.2812 8.03426 50.4156 3.64795" stroke="white" stroke-width="2" stroke-linecap="round" stroke-linejoin="round"/>
<path d="M54.3912 28.0807C54.912 24.5452 55.1907 20.9364 55.1907 17.2543C55.1907 16.22 55.1614 15.1932 55.1247 14.1663" stroke="white" stroke-width="2" stroke-linecap="round" stroke-linejoin="round"/>
<path d="M57.4206 31.0001C57.9634 27.9781 58.3301 24.8901 58.5135 21.7507" stroke="white" stroke-width="2" stroke-linecap="round" stroke-linejoin="round"/>
<path d="M61.3668 28.1394C61.2348 29.1003 61.0954 30.0538 60.9267 31" stroke="white" stroke-width="2" stroke-linecap="round" stroke-linejoin="round"/>
<path d="M69.1124 31C69.8019 26.5844 70.1613 22.0661 70.1613 17.4597C70.1613 12.1785 69.6919 7.00004 68.7823 1.97559" stroke="white" stroke-width="2" stroke-linecap="round" stroke-linejoin="round"/>
<path d="M72.2811 1.97559C72.9853 6.03915 73.418 10.1981 73.5574 14.423" stroke="white" stroke-width="2" stroke-linecap="round" stroke-linejoin="round"/>
<path d="M72.6186 31.0002C73.2714 26.6138 73.6161 22.1322 73.6235 17.5625" stroke="white" stroke-width="2" stroke-linecap="round" stroke-linejoin="round"/>
<path d="M76.9169 22.917C77.0196 21.1493 77.0709 19.3669 77.0709 17.5698" stroke="white" stroke-width="2" stroke-linecap="round" stroke-linejoin="round"/>
<path d="M76.5281 7.44747C76.33 5.60639 76.0807 3.77999 75.7726 1.97559" stroke="white" stroke-width="2" stroke-linecap="round" stroke-linejoin="round"/>
<path d="M80.3203 23.7604C80.445 21.7286 80.5184 19.6749 80.5184 17.6137C80.5184 17.5697 80.5184 17.5257 80.5184 17.4744" stroke="white" stroke-width="2" stroke-linecap="round" stroke-linejoin="round"/>
<path d="M79.264 1.97559C79.5574 3.79466 79.8068 5.63573 79.9975 7.49148" stroke="white" stroke-width="2" stroke-linecap="round" stroke-linejoin="round"/>
<path d="M83.4229 28.2348C83.7823 24.758 83.973 21.2299 83.973 17.6578C83.973 17.0857 83.9584 16.5135 83.951 15.9414" stroke="white" stroke-width="2" stroke-linecap="round" stroke-linejoin="round"/>
<path d="M83.5697 8.70915C83.379 6.54533 83.1296 4.39618 82.7995 2.26904" stroke="white" stroke-width="2" stroke-linecap="round" stroke-linejoin="round"/>
<path d="M86.5843 31.0001C86.8997 28.4989 87.1271 25.9757 87.2664 23.4231" stroke="white" stroke-width="2" stroke-linecap="round" stroke-linejoin="round"/>
<path d="M87.3692 20.9952C87.4059 19.9023 87.4279 18.8094 87.4279 17.7091C87.4279 12.8681 87.0905 8.10766 86.4523 3.44263" stroke="white" stroke-width="2" stroke-linecap="round" stroke-linejoin="round"/>
<path d="M90.0611 31.0001C90.1858 29.9732 90.2958 28.9463 90.3912 27.9121" stroke="white" stroke-width="2" stroke-linecap="round" stroke-linejoin="round"/>
<path d="M90.3105 6.69189C90.6699 10.2053 90.8533 13.7775 90.868 17.3863" stroke="white" stroke-width="2" stroke-linecap="round" stroke-linejoin="round"/>
<path d="M73.5648 14.4304V17.5698H73.6161" stroke="white" stroke-width="2" stroke-linecap="round" stroke-linejoin="round"/>
<path d="M98.2983 5.25415C98.6504 8.56955 98.8484 11.929 98.9144 15.3177" stroke="white" stroke-width="2" stroke-linecap="round" stroke-linejoin="round"/>
<path d="M98.357 28.9609C98.5624 26.9291 98.7091 24.8827 98.8044 22.8215" stroke="white" stroke-width="2" stroke-linecap="round" stroke-linejoin="round"/>
<path d="M101.702 30.1784C101.9 28.308 102.054 26.4303 102.171 24.5378" stroke="white" stroke-width="2" stroke-linecap="round" stroke-linejoin="round"/>
<path d="M101.46 2.59888C102.068 7.43995 102.384 12.3764 102.384 17.3788" stroke="white" stroke-width="2" stroke-linecap="round" stroke-linejoin="round"/>
<path d="M104.782 1.43262C105.024 3.27369 105.223 5.1221 105.384 6.99252" stroke="white" stroke-width="2" stroke-linecap="round" stroke-linejoin="round"/>
<path d="M105.824 18.4131C105.824 18.105 105.839 17.797 105.839 17.4816C105.839 15.7212 105.795 13.9681 105.721 12.2224" stroke="white" stroke-width="2" stroke-linecap="round" stroke-linejoin="round"/>
<path d="M105.105 30.8385C105.303 29.0488 105.457 27.2444 105.575 25.4326" stroke="white" stroke-width="2" stroke-linecap="round" stroke-linejoin="round"/>
<path d="M109.264 19.264C109.271 18.6845 109.286 18.1124 109.286 17.5329C109.286 16.0953 109.249 14.6649 109.205 13.2346" stroke="white" stroke-width="2" stroke-linecap="round" stroke-linejoin="round"/>
<path d="M109.022 25.6013C108.905 27.4131 108.758 29.2101 108.567 30.9999" stroke="white" stroke-width="2" stroke-linecap="round" stroke-linejoin="round"/>
<path d="M108.2 1.03662C108.435 2.81168 108.626 4.60141 108.787 6.39848" stroke="white" stroke-width="2" stroke-linecap="round" stroke-linejoin="round"/>
<path d="M112.286 6.78729C112.132 4.90221 111.941 3.02446 111.699 1.16138" stroke="white" stroke-width="2" stroke-linecap="round" stroke-linejoin="round"/>
<path d="M112.088 30.6331C112.286 28.638 112.44 26.6282 112.55 24.6038" stroke="white" stroke-width="2" stroke-linecap="round" stroke-linejoin="round"/>
<path d="M112.704 20.6944C112.726 19.6602 112.741 18.626 112.741 17.5844C112.741 16.4255 112.726 15.2739 112.697 14.1296" stroke="white" stroke-width="2" stroke-linecap="round" stroke-linejoin="round"/>
<path d="M115.667 29.3863C116.012 25.5134 116.196 21.5965 116.196 17.6356C116.196 16.8801 116.181 16.1246 116.166 15.3691" stroke="white" stroke-width="2" stroke-linecap="round" stroke-linejoin="round"/>
<path d="M115.844 8.06348C115.697 5.99502 115.499 3.94123 115.249 1.89478" stroke="white" stroke-width="2" stroke-linecap="round" stroke-linejoin="round"/>
<path d="M119.394 25.7995C119.533 23.4377 119.614 21.0538 119.628 18.6553" stroke="white" stroke-width="2" stroke-linecap="round" stroke-linejoin="round"/>
</svg>