<?xml version="1.0" encoding="utf-8"?>
<!-- Generator: Adobe Illustrator 25.0.0, SVG Export Plug-In . SVG Version: 6.00 Build 0)  -->
<svg version="1.1" id="Layer_1" width="180" xmlns="http://www.w3.org/2000/svg" xmlns:xlink="http://www.w3.org/1999/xlink" x="0px" y="0px"
	 viewBox="0 0 999.5 500" style="enable-background:new 0 0 999.5 500;" xml:space="preserve">
<style type="text/css">
	.st0{fill:#FFFFFF;}
</style>
<g>
	<g>
		<g>
			<g>
				<path class="st0" d="M407.6,116.1v185.2c0,0.9-0.1,1.7-0.3,2.5c-6.4-2.5-13.3-4-20.4-4.4V173.9H87.3v200.7h230.5
					c1.2,8.5,4,16.4,8,23.5c-0.9,0.2-1.9,0.4-3,0.4H76.3c-6.5,0-11.7-5.2-11.7-11.7V116.1c0-6.5,5.2-11.7,11.7-11.7h319.6
					C402.3,104.4,407.6,109.6,407.6,116.1z"/>
				<path class="st0" d="M89.2,121L89.2,121c-3.1,0-5.7-2.6-5.7-5.7V83.7c0-3.1,2.6-5.7,5.7-5.7l0,0c3.1,0,5.7,2.6,5.7,5.7v31.6
					C94.9,118.5,92.4,121,89.2,121z"/>
				<path class="st0" d="M163.3,121L163.3,121c-3.1,0-5.7-2.6-5.7-5.7V83.7c0-3.1,2.6-5.7,5.7-5.7l0,0c3.1,0,5.7,2.6,5.7,5.7v31.6
					C169,118.5,166.4,121,163.3,121z"/>
				<path class="st0" d="M237.3,121L237.3,121c-3.1,0-5.7-2.6-5.7-5.7V83.7c0-3.1,2.6-5.7,5.7-5.7l0,0c3.1,0,5.7,2.6,5.7,5.7v31.6
					C243.1,118.5,240.5,121,237.3,121z"/>
				<path class="st0" d="M311.4,121L311.4,121c-3.1,0-5.7-2.6-5.7-5.7V83.7c0-3.1,2.6-5.7,5.7-5.7l0,0c3.1,0,5.7,2.6,5.7,5.7v31.6
					C317.1,118.5,314.6,121,311.4,121z"/>
				<path class="st0" d="M385.5,121L385.5,121c-3.1,0-5.7-2.6-5.7-5.7V83.7c0-3.1,2.6-5.7,5.7-5.7l0,0c3.1,0,5.7,2.6,5.7,5.7v31.6
					C391.2,118.5,388.6,121,385.5,121z"/>
				<g>
					<g>
						<path class="st0" d="M199.5,314.4c-1-1.1-2.4-1.6-4-1.6s-2.9,0.5-4,1.6c-1,1.1-1.6,2.6-1.6,4.4s0.5,3.3,1.6,4.4
							c1,1.1,2.4,1.6,4,1.6s2.9-0.5,4-1.6c1-1.1,1.6-2.6,1.6-4.4C201,317,200.5,315.5,199.5,314.4z M199.5,314.4
							c-1-1.1-2.4-1.6-4-1.6s-2.9,0.5-4,1.6c-1,1.1-1.6,2.6-1.6,4.4s0.5,3.3,1.6,4.4c1,1.1,2.4,1.6,4,1.6s2.9-0.5,4-1.6
							c1-1.1,1.6-2.6,1.6-4.4C201,317,200.5,315.5,199.5,314.4z M199.5,314.4c-1-1.1-2.4-1.6-4-1.6s-2.9,0.5-4,1.6
							c-1,1.1-1.6,2.6-1.6,4.4s0.5,3.3,1.6,4.4c1,1.1,2.4,1.6,4,1.6s2.9-0.5,4-1.6c1-1.1,1.6-2.6,1.6-4.4
							C201,317,200.5,315.5,199.5,314.4z M232,320.6c-2.6,0-3.9,0.8-3.9,2.5c0,0.8,0.3,1.5,0.9,1.9c0.6,0.5,1.5,0.7,2.6,0.7
							s2-0.2,2.9-0.8s1.4-1.2,1.8-2.2v-2.2H232V320.6z M232,320.6c-2.6,0-3.9,0.8-3.9,2.5c0,0.8,0.3,1.5,0.9,1.9
							c0.6,0.5,1.5,0.7,2.6,0.7s2-0.2,2.9-0.8s1.4-1.2,1.8-2.2v-2.2H232V320.6z M199.5,314.4c-1-1.1-2.4-1.6-4-1.6s-2.9,0.5-4,1.6
							c-1,1.1-1.6,2.6-1.6,4.4s0.5,3.3,1.6,4.4c1,1.1,2.4,1.6,4,1.6s2.9-0.5,4-1.6c1-1.1,1.6-2.6,1.6-4.4
							C201,317,200.5,315.5,199.5,314.4z M331.1,296.3H139.3c-4.6,0-8.3,3.7-8.3,8.3v32.9c0,4.6,3.7,8.3,8.3,8.3h180.8
							c3.6-11.8,10.4-22.1,19.4-30.1v-11.2C339.5,300,335.7,296.3,331.1,296.3z M166.4,326.7c-0.8,1-2,1.9-3.5,2.5
							c-1.6,0.6-3.4,0.9-5.5,0.9c-1.8,0-3.6-0.2-5.3-0.7c-1.7-0.4-3.1-1-4.1-1.7l2.1-4.5c1,0.6,2.1,1.1,3.5,1.5s2.7,0.6,4,0.6
							c2.7,0,4-0.7,4-2c0-0.6-0.4-1.1-1.1-1.3c-0.7-0.3-1.9-0.5-3.4-0.7c-1.8-0.3-3.3-0.6-4.4-0.9c-1.2-0.3-2.2-1-3-1.9
							c-0.9-0.9-1.3-2.2-1.3-3.8c0-1.4,0.4-2.6,1.2-3.7s2-1.9,3.5-2.5s3.3-0.9,5.4-0.9c1.5,0,3.1,0.2,4.6,0.5s2.8,0.8,3.8,1.4
							l-2.1,4.5c-1.9-1.1-4-1.6-6.3-1.6c-1.3,0-2.4,0.2-3,0.6c-0.7,0.4-1,0.9-1,1.5c0,0.7,0.4,1.2,1.1,1.4c0.7,0.3,1.9,0.5,3.5,0.8
							c1.8,0.3,3.2,0.6,4.4,1c1.1,0.3,2.1,0.9,3,1.8c0.8,0.9,1.3,2.1,1.3,3.7C167.6,324.5,167.2,325.7,166.4,326.7z M206,324.7
							c-1,1.7-2.2,3-3.9,3.9s-3.5,1.4-5.5,1.4c-2.8,0-5-0.9-6.6-2.6v10.2h-6.3V308h6v2.5c1.6-1.9,3.8-2.8,6.8-2.8
							c2,0,3.9,0.5,5.5,1.4c1.7,0.9,3,2.2,3.9,3.9c0.9,1.7,1.4,3.6,1.4,5.9C207.4,321.1,206.9,323,206,324.7z M242.7,329.7h-5.9V327
							c-1.2,2-3.4,3-6.6,3c-1.7,0-3.1-0.3-4.4-0.9c-1.2-0.6-2.2-1.3-2.8-2.3c-0.7-1-1-2.1-1-3.4c0-2,0.8-3.6,2.3-4.8
							c1.5-1.2,3.9-1.7,7.1-1.7h5c0-1.4-0.4-2.4-1.2-3.2c-0.8-0.7-2.1-1.1-3.8-1.1c-1.2,0-2.3,0.2-3.4,0.5c-1.1,0.4-2.1,0.9-2.9,1.5
							l-2.3-4.4c1.2-0.8,2.6-1.5,4.3-2s3.4-0.7,5.1-0.7c3.4,0,6,0.8,7.8,2.4s2.7,4,2.7,7.3L242.7,329.7L242.7,329.7z M267.2,323.2
							c1.1,1.1,2.4,1.6,4.1,1.6c2.2,0,3.8-1,4.9-3l4.9,2.7c-0.8,1.7-2,3.1-3.8,4c-1.7,1-3.7,1.5-6,1.5s-4.4-0.5-6.2-1.4
							c-1.8-1-3.3-2.3-4.3-4s-1.6-3.6-1.6-5.8c0-2.2,0.5-4.1,1.6-5.8c1-1.7,2.5-3,4.3-4s3.9-1.4,6.2-1.4c2.3,0,4.3,0.5,6,1.4
							c1.7,1,3,2.3,3.8,4.1l-4.9,2.6c-1.1-2-2.8-3-4.9-3c-1.7,0-3,0.5-4.1,1.6s-1.6,2.5-1.6,4.4
							C265.6,320.7,266.1,322.2,267.2,323.2z M317.8,320.6h-16.5c0.3,1.3,1,2.4,2.1,3.2c1.1,0.8,2.5,1.2,4.1,1.2
							c1.1,0,2.1-0.2,3-0.5s1.7-0.9,2.4-1.6l3.4,3.6c-2.1,2.4-5.1,3.5-9,3.5c-2.4,0-4.6-0.5-6.5-1.4c-1.9-1-3.3-2.3-4.4-4
							c-1-1.7-1.5-3.6-1.5-5.8c0-2.1,0.5-4,1.5-5.8c1-1.7,2.4-3.1,4.2-4c1.8-1,3.8-1.4,5.9-1.4s4.1,0.5,5.8,1.4
							c1.7,0.9,3.1,2.2,4.1,4c1,1.7,1.5,3.7,1.5,6C317.9,319,317.9,319.6,317.8,320.6z M306.6,312.4c-1.4,0-2.6,0.4-3.6,1.2
							c-1,0.8-1.6,1.9-1.8,3.3h10.7c-0.2-1.4-0.8-2.5-1.8-3.3C309.2,312.8,308,312.4,306.6,312.4z M228.1,323.2
							c0,0.8,0.3,1.5,0.9,1.9c0.6,0.5,1.5,0.7,2.6,0.7s2-0.2,2.9-0.8s1.4-1.2,1.8-2.2v-2.2H232C229.4,320.6,228.1,321.5,228.1,323.2
							z M195.5,312.8c-1.6,0-2.9,0.5-4,1.6c-1,1.1-1.6,2.6-1.6,4.4s0.5,3.3,1.6,4.4c1,1.1,2.4,1.6,4,1.6s2.9-0.5,4-1.6
							c1-1.1,1.6-2.6,1.6-4.4s-0.5-3.3-1.6-4.4S197.1,312.8,195.5,312.8z M199.5,314.4c-1-1.1-2.4-1.6-4-1.6s-2.9,0.5-4,1.6
							c-1,1.1-1.6,2.6-1.6,4.4s0.5,3.3,1.6,4.4c1,1.1,2.4,1.6,4,1.6s2.9-0.5,4-1.6c1-1.1,1.6-2.6,1.6-4.4
							C201,317,200.5,315.5,199.5,314.4z M232,320.6c-2.6,0-3.9,0.8-3.9,2.5c0,0.8,0.3,1.5,0.9,1.9c0.6,0.5,1.5,0.7,2.6,0.7
							s2-0.2,2.9-0.8s1.4-1.2,1.8-2.2v-2.2H232V320.6z M232,320.6c-2.6,0-3.9,0.8-3.9,2.5c0,0.8,0.3,1.5,0.9,1.9
							c0.6,0.5,1.5,0.7,2.6,0.7s2-0.2,2.9-0.8s1.4-1.2,1.8-2.2v-2.2H232V320.6z M199.5,314.4c-1-1.1-2.4-1.6-4-1.6s-2.9,0.5-4,1.6
							c-1,1.1-1.6,2.6-1.6,4.4s0.5,3.3,1.6,4.4c1,1.1,2.4,1.6,4,1.6s2.9-0.5,4-1.6c1-1.1,1.6-2.6,1.6-4.4
							C201,317,200.5,315.5,199.5,314.4z"/>
					</g>
					<g>
						<path class="st0" d="M171.7,224.6c-0.9-1.7-2.2-3-3.9-3.9s-3.5-1.4-5.5-1.4c-2.8,0-5,0.9-6.6,2.6v-10.6h-6.3v30h6v-2.5
							c1.6,1.9,3.9,2.8,6.9,2.8c2,0,3.9-0.5,5.5-1.4c1.7-0.9,3-2.2,3.9-3.9s1.4-3.7,1.4-5.9C173.1,228.2,172.6,226.2,171.7,224.6z
							 M165.1,234.8c-1,1.1-2.4,1.6-4,1.6s-2.9-0.5-4-1.6c-1-1.1-1.6-2.6-1.6-4.4c0-1.8,0.5-3.3,1.6-4.4c1-1.1,2.4-1.6,4-1.6
							s2.9,0.5,4,1.6c1,1.1,1.6,2.6,1.6,4.4C166.7,232.3,166.2,233.7,165.1,234.8z"/>
						<path class="st0" d="M210.2,224.7c-1-1.7-2.4-3-4.2-4s-3.9-1.4-6.2-1.4s-4.3,0.5-6.2,1.4c-1.8,1-3.2,2.3-4.3,4
							c-1,1.7-1.5,3.6-1.5,5.8s0.5,4.1,1.5,5.8s2.5,3,4.3,4s3.9,1.4,6.2,1.4s4.3-0.5,6.2-1.4c1.8-1,3.2-2.3,4.2-4s1.5-3.6,1.5-5.8
							C211.8,228.3,211.3,226.4,210.2,224.7z M203.8,234.8c-1,1.1-2.4,1.6-4,1.6s-3-0.5-4-1.6c-1.1-1.1-1.6-2.6-1.6-4.4
							c0-1.8,0.5-3.3,1.6-4.4c1-1.1,2.4-1.6,4-1.6s2.9,0.5,4,1.6c1,1.1,1.6,2.6,1.6,4.4C205.4,232.3,204.9,233.7,203.8,234.8z"/>
						<path class="st0" d="M248.9,224.7c-1-1.7-2.4-3-4.2-4s-3.9-1.4-6.2-1.4s-4.4,0.5-6.2,1.4c-1.8,1-3.2,2.3-4.3,4
							c-1,1.7-1.5,3.6-1.5,5.8s0.5,4.1,1.5,5.8s2.5,3,4.3,4s3.9,1.4,6.2,1.4s4.3-0.5,6.2-1.4c1.8-1,3.2-2.3,4.2-4s1.5-3.6,1.5-5.8
							C250.5,228.3,250,226.4,248.9,224.7z M242.5,234.8c-1,1.1-2.4,1.6-4,1.6s-3-0.5-4-1.6c-1.1-1.1-1.6-2.6-1.6-4.4
							c0-1.8,0.5-3.3,1.6-4.4c1-1.1,2.4-1.6,4-1.6s2.9,0.5,4,1.6c1,1.1,1.6,2.6,1.6,4.4C244.1,232.3,243.5,233.7,242.5,234.8z"/>
						<path class="st0" d="M280.8,228.8l9.1-9.2h-7.5l-9.2,8.8v-17h-6.3v30h6.3v-5.5l3-3l6.9,8.5h7.7L280.8,228.8z"/>
						<path class="st0" d="M183.8,260.4c-1.6-1.6-3.8-2.4-6.5-2.4c-1.6,0-3.1,0.3-4.5,0.9s-2.5,1.5-3.4,2.6c-0.8-1.2-1.8-2-3-2.7
							s-2.6-0.9-4.2-0.9c-1.4,0-2.7,0.2-3.9,0.7s-2.2,1.2-3,2.1v-2.5h-6v21.9h6.3v-10.9c0-1.9,0.4-3.3,1.3-4.3c0.9-1,2-1.4,3.5-1.4
							c2.8,0,4.1,1.7,4.1,5.2v11.4h6.3v-10.9c0-1.9,0.4-3.3,1.3-4.3c0.9-1,2-1.4,3.5-1.4c1.3,0,2.3,0.4,3.1,1.3
							c0.7,0.8,1.1,2.1,1.1,3.9v11.4h6.3v-12.5C186.2,264.4,185.4,262,183.8,260.4z"/>
						<path class="st0" d="M219.2,258.3l-6.1,14.8l-6.1-14.8h-6.5l9.4,21.9l-0.1,0.2c-0.4,1-0.9,1.7-1.4,2.1s-1.2,0.6-2.1,0.6
							c-0.6,0-1.2-0.1-1.9-0.4c-0.6-0.2-1.2-0.6-1.7-1l-2.3,4.5c0.7,0.6,1.6,1.1,2.7,1.4c1.1,0.4,2.2,0.5,3.4,0.5
							c2.1,0,3.9-0.5,5.3-1.5c1.5-1,2.7-2.8,3.7-5.3l9.8-23.1L219.2,258.3L219.2,258.3z"/>
					</g>
				</g>
			</g>
			<g>
				<g>
					<path class="st0" d="M384,308.5c-31.3,0-56.8,25.5-56.8,56.8S352.7,422,384,422s56.8-25.5,56.8-56.8
						C440.8,334,415.4,308.5,384,308.5z M384,408.3c-23.7,0-42.9-19.2-42.9-42.9c0-23.7,19.3-42.9,42.9-42.9
						c23.7,0,42.9,19.3,42.9,42.9C426.9,389,407.7,408.3,384,408.3z"/>
				</g>
				<g>
					<path class="st0" d="M375.2,388.9c-1.4,0-2.9-0.5-4-1.6l-14.7-14.7c-2.2-2.2-2.2-5.8,0-8s5.8-2.2,8,0l10.8,10.8l28.4-28.4
						c2.2-2.2,5.8-2.2,8,0s2.2,5.8,0,8l-32.3,32.3C378.1,388.3,376.7,388.9,375.2,388.9z"/>
				</g>
			</g>
		</g>
	</g>
	<g>
		<path class="st0" d="M502.3,293.5c-6.6-1.9-11.9-4.4-16-7.5l7-15.6c3.8,2.8,8.4,5.1,13.7,6.8c5.3,1.7,10.6,2.6,15.9,2.6
			c5.9,0,10.3-0.9,13.1-2.6c2.8-1.8,4.2-4.1,4.2-7c0-2.1-0.8-3.9-2.5-5.3c-1.7-1.4-3.8-2.5-6.4-3.4c-2.6-0.9-6.1-1.8-10.6-2.8
			c-6.8-1.6-12.4-3.2-16.8-4.9c-4.4-1.6-8.1-4.2-11.2-7.8c-3.1-3.6-4.7-8.4-4.7-14.4c0-5.2,1.4-9.9,4.2-14.2
			c2.8-4.2,7.1-7.6,12.8-10.1c5.7-2.5,12.6-3.7,20.8-3.7c5.7,0,11.3,0.7,16.8,2.1c5.5,1.4,10.3,3.3,14.4,5.9l-6.4,15.8
			c-8.3-4.7-16.6-7-24.9-7c-5.8,0-10.1,0.9-12.9,2.8c-2.8,1.9-4.2,4.4-4.2,7.4s1.6,5.4,4.8,6.9c3.2,1.5,8.1,3,14.7,4.4
			c6.8,1.6,12.4,3.2,16.8,4.9c4.4,1.6,8.1,4.2,11.2,7.7c3.1,3.5,4.7,8.2,4.7,14.2c0,5.1-1.4,9.8-4.3,14c-2.9,4.2-7.2,7.6-12.9,10.1
			c-5.7,2.5-12.7,3.7-20.9,3.7C515.8,296.4,508.9,295.4,502.3,293.5z"/>
		<path class="st0" d="M602.1,222.1h-28.7v-16.9h78.2v16.9h-28.7v72.8h-20.8V222.1z"/>
		<path class="st0" d="M726.9,275.6h-41.7l-7.9,19.2H656l40-89.7h20.5l40.1,89.7h-21.8L726.9,275.6z M720.4,259.9l-14.2-34.4
			l-14.2,34.4H720.4z"/>
		<path class="st0" d="M796.4,221.8v23.7h41.5v16.7h-41.5v32.7h-20.8v-89.7h67.8v16.7H796.4z"/>
		<path class="st0" d="M887.9,221.8v23.7h41.5v16.7h-41.5v32.7h-20.8v-89.7h67.8v16.7H887.9z"/>
	</g>
</g>
</svg>
