<svg width="20" height="20" viewBox="0 0 20 20" fill="none" xmlns="http://www.w3.org/2000/svg">
<path d="M10 1.11111C11.7581 1.11111 13.4766 1.63244 14.9384 2.60916C16.4002 3.58588 17.5395 4.97414 18.2123 6.59837C18.885 8.2226 19.0611 10.0099 18.7181 11.7341C18.3751 13.4584 17.5285 15.0423 16.2854 16.2854C15.0423 17.5285 13.4584 18.3751 11.7341 18.7181C10.0099 19.0611 8.22261 18.885 6.59837 18.2123C4.97414 17.5395 3.58589 16.4002 2.60916 14.9384C1.63244 13.4766 1.11112 11.7581 1.11112 10C1.11376 7.64333 2.05112 5.38395 3.71753 3.71753C5.38395 2.05111 7.64334 1.11376 10 1.11111ZM10 0C8.02219 0 6.08879 0.58649 4.4443 1.6853C2.79981 2.78412 1.51809 4.3459 0.761209 6.17316C0.00433286 8.00042 -0.1937 10.0111 0.192152 11.9509C0.578004 13.8907 1.53041 15.6725 2.92894 17.0711C4.32746 18.4696 6.10929 19.422 8.0491 19.8078C9.98891 20.1937 11.9996 19.9957 13.8268 19.2388C15.6541 18.4819 17.2159 17.2002 18.3147 15.5557C19.4135 13.9112 20 11.9778 20 10C20 8.68678 19.7413 7.38642 19.2388 6.17316C18.7362 4.95991 17.9997 3.85752 17.0711 2.92893C16.1425 2.00035 15.0401 1.26375 13.8268 0.761204C12.6136 0.258658 11.3132 0 10 0Z" fill="white"/>
<path d="M8.12419 14.8722C8.00095 14.8741 7.88056 14.8351 7.78197 14.7611L4.62642 12.2944C4.56655 12.2504 4.51611 12.1948 4.4781 12.131C4.44009 12.0671 4.41527 11.9963 4.40512 11.9227C4.39496 11.8491 4.39967 11.7742 4.41898 11.7025C4.43828 11.6307 4.47178 11.5636 4.5175 11.505C4.56321 11.4464 4.62022 11.3976 4.68513 11.3614C4.75005 11.3253 4.82155 11.3025 4.89542 11.2945C4.96929 11.2865 5.04402 11.2933 5.11519 11.3147C5.18636 11.3361 5.25252 11.3715 5.30975 11.4189L8.04197 13.55L14.3031 6.03997C14.3498 5.98394 14.4072 5.93767 14.4718 5.9038C14.5365 5.86993 14.6072 5.84913 14.6799 5.84258C14.7525 5.83602 14.8258 5.84385 14.8955 5.86562C14.9651 5.88738 15.0298 5.92265 15.0859 5.96942C15.1419 6.01618 15.1882 6.07353 15.222 6.13817C15.2559 6.20282 15.2767 6.2735 15.2833 6.34619C15.2898 6.41888 15.282 6.49215 15.2602 6.56181C15.2385 6.63147 15.2032 6.69616 15.1564 6.75219L8.55086 14.6755C8.49843 14.7375 8.43305 14.7872 8.35934 14.8212C8.28563 14.8552 8.20536 14.8726 8.12419 14.8722Z" fill="white"/>
</svg>