<svg width="17" height="17" viewBox="0 0 17 17" fill="none" xmlns="http://www.w3.org/2000/svg">
<mask id="path-1-inside-1" fill="white">
<path d="M8.5 0.944444C9.99435 0.944444 11.4551 1.38757 12.6976 2.21778C13.9401 3.048 14.9086 4.22802 15.4804 5.60861C16.0523 6.98921 16.2019 8.50838 15.9104 9.97401C15.6188 11.4396 14.8992 12.7859 13.8426 13.8426C12.7859 14.8992 11.4397 15.6188 9.97402 15.9104C8.50838 16.2019 6.98921 16.0523 5.60862 15.4804C4.22802 14.9086 3.048 13.9401 2.21779 12.6976C1.38757 11.4551 0.944448 9.99434 0.944448 8.5C0.946698 6.49683 1.74345 4.57635 3.1599 3.1599C4.57636 1.74345 6.49683 0.946694 8.5 0.944444ZM8.5 0C6.81886 0 5.17547 0.498516 3.77766 1.43251C2.37984 2.3665 1.29037 3.69402 0.647028 5.24719C0.00368293 6.80036 -0.164645 8.50943 0.163329 10.1583C0.491303 11.8071 1.30085 13.3217 2.4896 14.5104C3.67834 15.6992 5.1929 16.5087 6.84173 16.8367C8.49057 17.1646 10.1996 16.9963 11.7528 16.353C13.306 15.7096 14.6335 14.6202 15.5675 13.2223C16.5015 11.8245 17 10.1811 17 8.5C17 7.38376 16.7801 6.27846 16.353 5.24719C15.9258 4.21592 15.2997 3.27889 14.5104 2.48959C13.7211 1.70029 12.7841 1.07419 11.7528 0.647024C10.7215 0.219859 9.61624 0 8.5 0Z"/>
</mask>
<path d="M8.5 0.944444C9.99435 0.944444 11.4551 1.38757 12.6976 2.21778C13.9401 3.048 14.9086 4.22802 15.4804 5.60861C16.0523 6.98921 16.2019 8.50838 15.9104 9.97401C15.6188 11.4396 14.8992 12.7859 13.8426 13.8426C12.7859 14.8992 11.4397 15.6188 9.97402 15.9104C8.50838 16.2019 6.98921 16.0523 5.60862 15.4804C4.22802 14.9086 3.048 13.9401 2.21779 12.6976C1.38757 11.4551 0.944448 9.99434 0.944448 8.5C0.946698 6.49683 1.74345 4.57635 3.1599 3.1599C4.57636 1.74345 6.49683 0.946694 8.5 0.944444ZM8.5 0C6.81886 0 5.17547 0.498516 3.77766 1.43251C2.37984 2.3665 1.29037 3.69402 0.647028 5.24719C0.00368293 6.80036 -0.164645 8.50943 0.163329 10.1583C0.491303 11.8071 1.30085 13.3217 2.4896 14.5104C3.67834 15.6992 5.1929 16.5087 6.84173 16.8367C8.49057 17.1646 10.1996 16.9963 11.7528 16.353C13.306 15.7096 14.6335 14.6202 15.5675 13.2223C16.5015 11.8245 17 10.1811 17 8.5C17 7.38376 16.7801 6.27846 16.353 5.24719C15.9258 4.21592 15.2997 3.27889 14.5104 2.48959C13.7211 1.70029 12.7841 1.07419 11.7528 0.647024C10.7215 0.219859 9.61624 0 8.5 0Z" fill="#FF682B"/>
<path d="M0.944448 8.5L-0.055552 8.49887V8.5H0.944448ZM17 8.5H16H17ZM8.5 1.94444C9.79657 1.94444 11.064 2.32892 12.1421 3.04925L13.2532 1.38631C11.8463 0.446219 10.1921 -0.0555558 8.5 -0.0555558V1.94444ZM12.1421 3.04925C13.2201 3.76959 14.0604 4.79342 14.5565 5.9913L16.4043 5.22593C15.7568 3.66261 14.6602 2.32641 13.2532 1.38631L12.1421 3.04925ZM14.5565 5.9913C15.0527 7.18917 15.1825 8.50727 14.9296 9.77892L16.8912 10.1691C17.2213 8.50949 17.0519 6.78925 16.4043 5.22593L14.5565 5.9913ZM14.9296 9.77892C14.6766 11.0506 14.0523 12.2187 13.1355 13.1355L14.5497 14.5497C15.7462 13.3532 16.561 11.8287 16.8912 10.1691L14.9296 9.77892ZM13.1355 13.1355C12.2187 14.0523 11.0506 14.6766 9.77893 14.9296L10.1691 16.8912C11.8287 16.561 13.3532 15.7462 14.5497 14.5497L13.1355 13.1355ZM9.77893 14.9296C8.50727 15.1825 7.18917 15.0527 5.9913 14.5565L5.22593 16.4043C6.78926 17.0518 8.50949 17.2213 10.1691 16.8912L9.77893 14.9296ZM5.9913 14.5565C4.79343 14.0604 3.76959 13.2201 3.04926 12.1421L1.38632 13.2532C2.32642 14.6602 3.66261 15.7567 5.22593 16.4043L5.9913 14.5565ZM3.04926 12.1421C2.32892 11.064 1.94445 9.79656 1.94445 8.5H-0.055552C-0.055552 10.1921 0.446223 11.8463 1.38632 13.2532L3.04926 12.1421ZM1.94445 8.50112C1.9464 6.76278 2.63782 5.0962 3.86701 3.86701L2.4528 2.45279C0.849082 4.05651 -0.0530041 6.23088 -0.0555513 8.49887L1.94445 8.50112ZM3.86701 3.86701C5.0962 2.63781 6.76279 1.9464 8.50113 1.94444L8.49888 -0.0555552C6.23088 -0.053008 4.05651 0.849078 2.4528 2.45279L3.86701 3.86701ZM8.5 -1C6.62108 -1 4.78435 -0.442835 3.22209 0.601038L4.33323 2.26398C5.56659 1.43987 7.01664 1 8.5 1V-1ZM3.22209 0.601038C1.65982 1.64491 0.442181 3.12861 -0.276852 4.86451L1.57091 5.62987C2.13856 4.25943 3.09986 3.08809 4.33323 2.26398L3.22209 0.601038ZM-0.276852 4.86451C-0.995884 6.6004 -1.18402 8.51054 -0.817456 10.3534L1.14411 9.96317C0.854725 8.50832 1.00325 7.00032 1.57091 5.62987L-0.276852 4.86451ZM-0.817456 10.3534C-0.450897 12.1962 0.45389 13.8889 1.78249 15.2175L3.1967 13.8033C2.14781 12.7544 1.4335 11.418 1.14411 9.96317L-0.817456 10.3534ZM1.78249 15.2175C3.11109 16.5461 4.80383 17.4509 6.64664 17.8175L7.03682 15.8559C5.58197 15.5665 4.2456 14.8522 3.1967 13.8033L1.78249 15.2175ZM6.64664 17.8175C8.48946 18.184 10.3996 17.9959 12.1355 17.2769L11.3701 15.4291C9.99968 15.9967 8.49168 16.1453 7.03682 15.8559L6.64664 17.8175ZM12.1355 17.2769C13.8714 16.5578 15.3551 15.3402 16.399 13.7779L14.736 12.6668C13.9119 13.9001 12.7406 14.8614 11.3701 15.4291L12.1355 17.2769ZM16.399 13.7779C17.4428 12.2156 18 10.3789 18 8.5H16C16 9.98336 15.5601 11.4334 14.736 12.6668L16.399 13.7779ZM18 8.5C18 7.25244 17.7543 6.0171 17.2769 4.86451L15.4291 5.62987C15.806 6.53981 16 7.51508 16 8.5H18ZM17.2769 4.86451C16.7994 3.71191 16.0997 2.66464 15.2175 1.78249L13.8033 3.1967C14.4997 3.89314 15.0522 4.71993 15.4291 5.62987L17.2769 4.86451ZM15.2175 1.78249C14.3354 0.900329 13.2881 0.200564 12.1355 -0.276856L11.3701 1.5709C12.2801 1.94781 13.1069 2.50026 13.8033 3.1967L15.2175 1.78249ZM12.1355 -0.276856C10.9829 -0.754275 9.74756 -1 8.5 -1V1C9.48492 1 10.4602 1.19399 11.3701 1.5709L12.1355 -0.276856Z" fill="#FF682B" mask="url(#path-1-inside-1)"/>
<path d="M8.68139 13.6964H8.60583C7.75516 13.6822 6.92175 13.4541 6.18245 13.033C5.44316 12.612 4.8218 12.0115 4.37567 11.2871C4.31004 11.1804 4.28949 11.052 4.31854 10.9301C4.34759 10.8083 4.42385 10.7029 4.53056 10.6373C4.63726 10.5717 4.76567 10.5511 4.88752 10.5802C5.00938 10.6092 5.11471 10.6855 5.18033 10.7922C5.59933 11.4753 6.20891 12.021 6.93404 12.362C7.65917 12.7031 8.46821 12.8248 9.26158 12.712C10.055 12.5992 10.798 12.2569 11.3994 11.7272C12.0007 11.1975 12.434 10.5035 12.646 9.73075C12.858 8.95795 12.8394 8.14003 12.5926 7.37765C12.3457 6.61528 11.8813 5.94173 11.2565 5.43989C10.6318 4.93805 9.87392 4.62984 9.07625 4.55318C8.27858 4.47652 7.4759 4.63476 6.767 5.00843C6.71206 5.03897 6.65157 5.05824 6.58908 5.06509C6.5266 5.07195 6.46337 5.06627 6.40311 5.04837C6.34286 5.03047 6.28678 5.00072 6.23817 4.96087C6.18955 4.92101 6.14939 4.87185 6.12003 4.81627C6.09066 4.76069 6.07269 4.6998 6.06717 4.63719C6.06165 4.57457 6.06868 4.51148 6.08786 4.45161C6.10704 4.39175 6.13798 4.33632 6.17886 4.28857C6.21974 4.24082 6.26975 4.20171 6.32595 4.17354C7.40144 3.60691 8.64513 3.44693 9.82901 3.72293C11.0129 3.99893 12.0576 4.69242 12.7717 5.67625C13.4857 6.66007 13.8212 7.86831 13.7166 9.07943C13.612 10.2905 13.0744 11.4234 12.2023 12.2703C11.2608 13.1886 9.99654 13.7007 8.68139 13.6964Z" fill="#FF682B"/>
</svg>