<svg width="20" height="20" viewBox="0 0 20 20" fill="none" xmlns="http://www.w3.org/2000/svg">
<path d="M10 1.11111C11.7581 1.11111 13.4766 1.63244 14.9384 2.60916C16.4002 3.58588 17.5395 4.97414 18.2123 6.59837C18.885 8.2226 19.0611 10.0099 18.7181 11.7341C18.3751 13.4584 17.5285 15.0423 16.2854 16.2854C15.0423 17.5285 13.4584 18.3751 11.7341 18.7181C10.0099 19.0611 8.22261 18.885 6.59837 18.2123C4.97414 17.5395 3.58589 16.4002 2.60916 14.9384C1.63244 13.4766 1.11112 11.7581 1.11112 10C1.11376 7.64333 2.05112 5.38395 3.71753 3.71753C5.38395 2.05111 7.64334 1.11376 10 1.11111ZM10 0C8.02219 0 6.08879 0.58649 4.4443 1.6853C2.79981 2.78412 1.51809 4.3459 0.761209 6.17316C0.00433286 8.00042 -0.1937 10.0111 0.192152 11.9509C0.578004 13.8907 1.53041 15.6725 2.92894 17.0711C4.32746 18.4696 6.10929 19.422 8.0491 19.8078C9.98891 20.1937 11.9996 19.9957 13.8268 19.2388C15.6541 18.4819 17.2159 17.2002 18.3147 15.5557C19.4135 13.9112 20 11.9778 20 10C20 7.34783 18.9464 4.8043 17.0711 2.92893C15.1957 1.05357 12.6522 0 10 0Z" fill="white"/>
<path d="M14.3334 15.0555C14.2603 15.0555 14.1879 15.0411 14.1204 15.0131C14.053 14.985 13.9916 14.944 13.9401 14.8922L5.25006 6.20555C5.14544 6.10138 5.0865 5.95992 5.08618 5.81229C5.08587 5.66465 5.14422 5.52294 5.24839 5.41833C5.35256 5.31372 5.49402 5.25477 5.64165 5.25446C5.78929 5.25414 5.931 5.31249 6.03561 5.41666L14.7267 14.1067C14.8046 14.1844 14.8577 14.2834 14.8792 14.3913C14.9007 14.4992 14.8897 14.6111 14.8476 14.7127C14.8055 14.8144 14.7341 14.9012 14.6426 14.9622C14.551 15.0233 14.4434 15.0557 14.3334 15.0555Z" fill="white"/>
<path d="M5.55557 14.9678C5.44555 14.968 5.33795 14.9355 5.2464 14.8745C5.15486 14.8134 5.0835 14.7266 5.04137 14.6249C4.99924 14.5233 4.98823 14.4115 5.00975 14.3036C5.03127 14.1957 5.08434 14.0966 5.16224 14.0189L13.8533 5.32888C13.9581 5.22768 14.0985 5.17168 14.2441 5.17295C14.3898 5.17421 14.5291 5.23264 14.6321 5.33565C14.7351 5.43865 14.7936 5.57799 14.7948 5.72366C14.7961 5.86932 14.7401 6.00966 14.6389 6.11443L5.94891 14.8044C5.89731 14.8562 5.83601 14.8973 5.76851 14.9253C5.70102 14.9533 5.62866 14.9678 5.55557 14.9678Z" fill="white"/>
</svg>