<svg width="81" height="80" viewBox="0 0 81 80" fill="none" xmlns="http://www.w3.org/2000/svg">
<path d="M40.0013 80C17.9424 80 0.00134277 62.0547 0.00134277 40C0.00134277 17.9411 17.9466 0 40.0013 0C62.0603 0 80.0013 17.9453 80.0013 40C80.0013 62.0589 62.0603 80 40.0013 80ZM40.0013 2.78737C19.4834 2.78737 2.78871 19.4821 2.78871 40C2.78871 60.5179 19.4834 77.2126 40.0013 77.2126C60.5192 77.2126 77.214 60.5179 77.214 40C77.214 19.4821 60.5192 2.78737 40.0013 2.78737Z" fill="#FF682B"/>
<path d="M22.9185 75.9536C22.2574 75.9536 21.6721 75.4821 21.5458 74.8126C21.3606 73.8021 16.9858 49.9452 16.9395 41.6252C16.8974 32.5136 21.3521 6.25258 21.5416 5.141C21.6721 4.3831 22.3921 3.86942 23.15 3.99995C23.9079 4.13047 24.4216 4.85047 24.2911 5.60837C24.2448 5.87784 19.689 32.741 19.7311 41.6126C19.7732 49.6884 24.2448 74.0631 24.2911 74.3073C24.43 75.0652 23.929 75.7936 23.1711 75.9326C23.0869 75.9494 23.0027 75.9536 22.9185 75.9536Z" fill="#FF682B"/>
<path d="M28.4174 43.0147C27.7943 43.0147 27.2216 43.0105 26.7079 43.0021C18.7501 42.88 1.449 41.4021 1.27637 41.3894C0.510056 41.3221 -0.0583654 40.6484 0.0047925 39.8821C0.0721609 39.1157 0.745845 38.5431 1.51216 38.6105C1.68479 38.6273 18.889 40.0926 26.7501 40.2147C37.9458 40.3747 78.1395 38.6231 78.5437 38.6063C79.3101 38.5768 79.9669 39.1705 80.0006 39.941C80.0343 40.7115 79.4364 41.3642 78.6658 41.3979C78.2827 41.4105 41.5627 43.0147 28.4174 43.0147Z" fill="#FF682B"/>
<path d="M27.4322 24.2105C15.1248 24.2105 10.0301 15.5537 9.81535 15.1831C9.4322 14.5137 9.66378 13.6631 10.3332 13.28C10.9985 12.8968 11.849 13.1284 12.2364 13.7937C12.4175 14.1052 16.7964 21.4189 27.4322 21.4189C39.4911 21.4189 66.1101 11.0989 66.3796 10.9979C67.0996 10.72 67.908 11.0737 68.1859 11.7895C68.4638 12.5095 68.1101 13.3179 67.3943 13.5958C66.2785 14.0337 40.0132 24.2105 27.4322 24.2105Z" fill="#FF682B"/>
<path d="M11.6595 67.04C11.1501 67.04 10.6616 66.7621 10.4132 66.2779C10.0638 65.5915 10.3374 64.7494 11.0238 64.4C11.4406 64.1894 21.3438 59.2 29.9332 59.5242C42.4848 59.9957 69.0111 63.9831 69.2764 64.021C70.0385 64.1347 70.5648 64.8463 70.4469 65.6084C70.329 66.3705 69.6216 66.8926 68.8595 66.7789C68.5943 66.7368 42.2238 62.7747 29.828 62.3073C21.9753 62.0084 12.3838 66.8336 12.2911 66.88C12.089 66.9936 11.8743 67.04 11.6595 67.04Z" fill="#FF682B"/>
</svg>