<svg width="94" height="80" viewBox="0 0 94 80" fill="none" xmlns="http://www.w3.org/2000/svg">
<path d="M91.7611 0H1.64573C0.738272 0 0 0.738272 0 1.64573V60.7332C0 61.6406 0.738272 62.3789 1.64573 62.3789H31.0331L32.9505 76.8265C33.0479 77.5288 33.6478 78.062 34.3553 78.062C34.4168 78.062 34.4783 78.0569 34.545 78.0467C34.9193 77.9954 35.2576 77.8006 35.4832 77.5032C35.7139 77.2007 35.8113 76.8265 35.7601 76.4522L35.3448 73.3402C36.1907 73.5504 37.2879 73.7606 38.6978 73.9144C38.7388 73.9195 38.7901 73.9246 38.8311 73.9246L39.0823 77.8723C39.1284 78.6209 39.7539 79.2053 40.5024 79.2053C40.5281 79.2053 40.5742 79.2053 40.6306 79.1951C41.3894 79.1233 41.9636 78.4619 41.9123 77.6878L41.6867 74.1297C42.5224 74.1656 43.3889 74.1861 44.2861 74.1861C44.7936 74.1861 45.3217 74.1759 45.8549 74.1656V78.5799C45.8549 79.3643 46.4906 80 47.2751 80C48.0595 80 48.6952 79.3643 48.6952 78.5799V74.0528C50.0846 73.9759 51.5458 73.8682 53.0736 73.7298L52.7506 77.6621C52.7198 78.0415 52.8377 78.4107 53.0838 78.6978C53.3248 78.9798 53.658 79.1541 54.0272 79.19C54.0887 79.2002 54.14 79.2002 54.1707 79.2002C54.9192 79.2002 55.5293 78.6363 55.5857 77.8929L55.9498 73.4325C57.0161 73.3094 58.1133 73.1761 59.2361 73.0274L58.8003 76.4573C58.749 76.8316 58.8516 77.2058 59.0823 77.5083C59.313 77.8108 59.6514 78.0005 60.0308 78.0467C60.0923 78.0569 60.1589 78.0569 60.2102 78.0569C60.9228 78.0569 61.5278 77.5237 61.615 76.8213L62.2866 71.5304C62.2917 71.4996 62.2968 71.4688 62.2968 71.4381L63.4453 62.3738H91.7508C92.6583 62.3738 93.3966 61.6355 93.3966 60.728V1.64573C93.4068 0.738272 92.6685 0 91.7611 0ZM48.7055 51.4278V50.6691C49.4899 50.6588 50.264 50.6383 51.0228 50.6127C52.4994 50.5665 53.8118 50.505 54.9962 50.4384L54.9141 51.4227H48.7055V51.4278ZM37.5904 47.07C40.3691 46.8393 43.7221 46.6906 47.193 46.6547C51.8175 46.6086 55.1243 46.7572 57.416 46.9521C51.8072 47.4442 43.394 47.5929 37.5904 47.07ZM45.8652 50.6896V51.4278H40.2512L40.1948 50.5409C42.2866 50.6486 44.3168 50.6844 45.8652 50.6896ZM40.4614 54.7244H45.8652V56.2164C43.8452 56.2061 42.0764 56.1241 40.5434 56.001L40.4614 54.7244ZM48.7055 56.1856V54.7296H54.6424L54.5501 55.8575C52.4378 56.0267 50.4896 56.1343 48.7055 56.1856ZM37.6775 55.6883C35.2935 55.3602 33.7913 54.9603 33.0479 54.7244H37.616L37.6775 55.6883ZM40.728 58.8875C42.2353 59.0003 43.9426 59.0669 45.8652 59.072V59.0772H40.7383L40.728 58.8875ZM45.8652 62.3789V64.3476C44.04 64.3527 42.4404 64.2912 41.0613 64.1835L40.9485 62.3789H45.8652ZM48.7055 62.3789H54.0169L53.8887 63.958C52.0072 64.1271 50.2897 64.2297 48.7055 64.2912V62.3789ZM48.7055 59.0823V59.0361C50.5101 58.9849 52.3814 58.8875 54.3143 58.7285L54.2835 59.0823H48.7055ZM57.4263 55.5806L57.4981 54.7244H61.5688L61.5227 55.0833C60.0974 55.2781 58.7285 55.4422 57.4263 55.5806ZM57.7647 51.4278L57.8621 50.2281C59.7642 50.0538 61.1689 49.8436 62.2097 49.618L61.979 51.4278H57.7647ZM65.2499 48.2287C65.6088 47.7467 65.7319 47.1571 65.5832 46.6137C65.2294 44.8603 63.071 44.081 57.3494 43.635C53.5965 43.3427 48.6029 43.271 43.6503 43.4299C30.0795 43.8606 28.8952 45.1474 28.7567 46.788C28.7106 47.3417 28.8798 47.7878 29.1771 48.1466C29.1669 48.2492 29.1669 48.3517 29.1823 48.4542L29.577 51.4278H27.8083V27.4699H66.7521V51.4278H64.8449L65.2499 48.2287ZM32.1969 49.5668C32.5096 49.6386 32.8121 49.7001 33.0941 49.7616C34.3194 50.0231 35.7959 50.2128 37.3391 50.3461L37.4058 51.4278H32.443L32.1969 49.5668ZM37.8621 58.6106L37.8928 59.0823H33.4581L33.2838 57.7596C34.3348 58.0364 35.8421 58.3543 37.8621 58.6106ZM57.1905 58.4619C58.4876 58.3286 59.8052 58.1748 61.1535 57.9954L61.0151 59.0772H57.1392L57.1905 58.4619ZM38.103 62.3789L38.1953 63.8605C35.9856 63.5324 34.6424 63.1172 33.9554 62.8557L33.8939 62.3789H38.103ZM34.3758 65.9933C35.3602 66.2702 36.6778 66.5573 38.385 66.7829L38.6567 71.0177C36.6932 70.7767 35.5345 70.4537 34.9449 70.2384L34.3758 65.9933ZM41.2458 67.0649C42.5327 67.152 43.9733 67.2084 45.5883 67.2084C45.6806 67.2084 45.7729 67.2033 45.8652 67.2033V71.3048C44.204 71.3407 42.7583 71.3151 41.5124 71.2535L41.2458 67.0649ZM48.7055 67.1418C50.2845 67.0802 51.9354 66.9777 53.6529 66.829L53.3248 70.8536C51.6483 71.0126 50.1153 71.1254 48.7106 71.2023V67.1418H48.7055ZM56.524 66.547C57.698 66.4189 58.8977 66.2702 60.123 66.1061L59.6155 70.1154C58.426 70.2794 57.2879 70.423 56.1958 70.5511L56.524 66.547ZM56.7598 63.6657L56.8675 62.3789H60.5947L60.4922 63.1941C59.1951 63.3735 57.9492 63.5324 56.7598 63.6657ZM64.1733 56.7239C64.2092 56.5957 64.2246 56.4676 64.2246 56.3343L64.4296 54.7244H68.4081C69.3156 54.7244 70.0538 53.9862 70.0538 53.0736V25.8241C70.0538 24.9167 69.3156 24.1784 68.4081 24.1784H26.1625C25.2551 24.1784 24.5168 24.9167 24.5168 25.8241V53.0787C24.5168 53.9862 25.2551 54.7244 26.1625 54.7244H30.0128L30.5922 59.0823H3.29146V3.29146H90.1102V59.0823H63.8759L64.1733 56.7239Z" fill="#FF682B"/>
</svg>