<svg width="104" height="80" viewBox="0 0 104 80" fill="none" xmlns="http://www.w3.org/2000/svg">
<path d="M101.878 71.0826H99.2835V66.3598C99.2835 65.6381 98.6925 65.0471 97.9707 65.0471H95.3295V60.3243C95.3295 60.0366 95.2301 59.7699 95.0732 59.5502V19.2207C95.0732 18.499 94.4822 17.9079 93.7605 17.9079H73.363V1.31276C73.363 0.591003 72.772 0 72.0502 0H32.6726C31.9508 0 31.3598 0.591003 31.3598 1.31276V17.9079H11.1506C10.4289 17.9079 9.83787 18.499 9.83787 19.2207V59.7071C9.73849 59.8902 9.67573 60.0994 9.67573 60.3243V65.0471H5.74791C5.02615 65.0471 4.43515 65.6381 4.43515 66.3598V71.0826H1.31276C0.591004 71.0826 0 71.6737 0 72.3954V78.6872C0 79.409 0.591004 80 1.31276 80H101.878C102.599 80 103.19 79.409 103.19 78.6872V72.3954C103.19 71.6737 102.599 71.0826 101.878 71.0826ZM12.3013 61.6423H32.6726H41.909H64.5607H72.045C72.0659 61.6423 72.0816 61.637 72.1025 61.637H72.1862C72.2071 61.637 72.2228 61.6423 72.2437 61.6423H92.704V64.7803H12.3013V61.6423ZM33.9854 19.2207V2.62552H70.7322V59.0115H65.8734V33.9435C65.8734 33.2218 65.2824 32.6308 64.5607 32.6308H41.909C41.1872 32.6308 40.5962 33.2218 40.5962 33.9435V59.0115H33.9854V19.2207ZM92.4477 59.0115H73.5565V20.5335H92.4477V59.0115ZM63.2479 59.0115H54.5136V35.2563H63.2479V59.0115ZM51.8881 59.0115H43.227V35.2563H51.8881V59.0115ZM31.3598 59.0115H12.4686V20.5335H31.3598V59.0115ZM96.658 67.6726V70.8159H7.0659V67.6726H96.658ZM100.565 73.7082V77.3692H2.63075V73.7082H100.565Z" fill="#FF682B"/>
</svg>
