<svg width="104" height="80" viewBox="0 0 104 80" fill="none" xmlns="http://www.w3.org/2000/svg">
<path d="M14.796 29.4038H19.8378C20.2719 29.4038 20.6276 29.0533 20.6276 28.614V23.5722C20.6276 23.1381 20.2771 22.7824 19.8378 22.7824H14.796C14.3619 22.7824 14.0062 23.1328 14.0062 23.5722V28.614C14.0062 29.0481 14.3566 29.4038 14.796 29.4038ZM19.0428 24.3671V27.8243H15.5857V24.3671H19.0428Z" fill="#FF682B"/>
<path d="M23.7343 29.4038H28.7762C29.2103 29.4038 29.5659 29.0533 29.5659 28.614V23.5722C29.5659 23.1381 29.2155 22.7824 28.7762 22.7824H23.7343C23.3002 22.7824 22.9446 23.1328 22.9446 23.5722V28.614C22.9446 29.0481 23.295 29.4038 23.7343 29.4038ZM27.9812 24.3671V27.8243H24.5241V24.3671H27.9812Z" fill="#FF682B"/>
<path d="M14.796 37.2542H19.8378C20.2719 37.2542 20.6276 36.8986 20.6276 36.4645V31.4226C20.6276 30.9885 20.2771 30.6329 19.8378 30.6329H14.796C14.3619 30.6329 14.0062 30.9833 14.0062 31.4226V36.4645C14.0062 36.8986 14.3566 37.2542 14.796 37.2542ZM19.0428 32.2124V35.6695H15.5857V32.2124H19.0428Z" fill="#FF682B"/>
<path d="M23.7343 37.2542H28.7762C29.2103 37.2542 29.5659 36.8986 29.5659 36.4645V31.4226C29.5659 30.9885 29.2155 30.6329 28.7762 30.6329H23.7343C23.3002 30.6329 22.9446 30.9833 22.9446 31.4226V36.4645C22.9446 36.8986 23.295 37.2542 23.7343 37.2542ZM27.9812 32.2124V35.6695H24.5241V32.2124H27.9812Z" fill="#FF682B"/>
<path d="M14.796 45.1046H19.8378C20.2719 45.1046 20.6276 44.749 20.6276 44.3149V39.273C20.6276 38.8389 20.2771 38.4833 19.8378 38.4833H14.796C14.3619 38.4833 14.0062 38.8337 14.0062 39.273V44.3149C14.0062 44.749 14.3566 45.1046 14.796 45.1046ZM19.0428 40.0628V43.5199H15.5857V40.0628H19.0428Z" fill="#FF682B"/>
<path d="M23.7343 45.1046H28.7762C29.2103 45.1046 29.5659 44.749 29.5659 44.3149V39.273C29.5659 38.8389 29.2155 38.4833 28.7762 38.4833H23.7343C23.3002 38.4833 22.9446 38.8337 22.9446 39.273V44.3149C22.9446 44.749 23.295 45.1046 23.7343 45.1046ZM27.9812 40.0628V43.5199H24.5241V40.0628H27.9812Z" fill="#FF682B"/>
<path d="M76.0094 29.4038H81.0512C81.4853 29.4038 81.8409 29.0533 81.8409 28.614V23.5722C81.8409 23.1381 81.4905 22.7824 81.0512 22.7824H76.0094C75.5753 22.7824 75.2196 23.1328 75.2196 23.5722V28.614C75.2196 29.0481 75.57 29.4038 76.0094 29.4038ZM80.2562 24.3671V27.8243H76.7991V24.3671H80.2562Z" fill="#FF682B"/>
<path d="M84.9477 29.4038H89.9896C90.4237 29.4038 90.7793 29.0533 90.7793 28.614V23.5722C90.7793 23.1381 90.4289 22.7824 89.9896 22.7824H84.9477C84.5136 22.7824 84.158 23.1328 84.158 23.5722V28.614C84.158 29.0481 84.5084 29.4038 84.9477 29.4038ZM89.1946 24.3671V27.8243H85.7375V24.3671H89.1946Z" fill="#FF682B"/>
<path d="M76.0094 37.2542H81.0512C81.4853 37.2542 81.8409 36.8986 81.8409 36.4645V31.4226C81.8409 30.9885 81.4905 30.6329 81.0512 30.6329H76.0094C75.5753 30.6329 75.2196 30.9833 75.2196 31.4226V36.4645C75.2196 36.8986 75.57 37.2542 76.0094 37.2542ZM80.2562 32.2124V35.6695H76.7991V32.2124H80.2562Z" fill="#FF682B"/>
<path d="M84.9477 37.2542H89.9896C90.4237 37.2542 90.7793 36.8986 90.7793 36.4645V31.4226C90.7793 30.9885 90.4289 30.6329 89.9896 30.6329H84.9477C84.5136 30.6329 84.158 30.9833 84.158 31.4226V36.4645C84.158 36.8986 84.5084 37.2542 84.9477 37.2542ZM89.1946 32.2124V35.6695H85.7375V32.2124H89.1946Z" fill="#FF682B"/>
<path d="M76.0094 45.1046H81.0512C81.4853 45.1046 81.8409 44.749 81.8409 44.3149V39.273C81.8409 38.8389 81.4905 38.4833 81.0512 38.4833H76.0094C75.5753 38.4833 75.2196 38.8337 75.2196 39.273V44.3149C75.2196 44.749 75.57 45.1046 76.0094 45.1046ZM80.2562 40.0628V43.5199H76.7991V40.0628H80.2562Z" fill="#FF682B"/>
<path d="M84.9477 45.1046H89.9896C90.4237 45.1046 90.7793 44.749 90.7793 44.3149V39.273C90.7793 38.8389 90.4289 38.4833 89.9896 38.4833H84.9477C84.5136 38.4833 84.158 38.8337 84.158 39.273V44.3149C84.158 44.749 84.5084 45.1046 84.9477 45.1046ZM89.1946 40.0628V43.5199H85.7375V40.0628H89.1946Z" fill="#FF682B"/>
<path d="M53.2009 26.4749C58.4049 26.4749 62.6413 22.2385 62.6413 17.0346C62.6413 11.8306 58.4049 7.59418 53.2009 7.59418C47.9969 7.59418 43.7605 11.8306 43.7605 17.0346C43.7605 22.2385 47.9969 26.4749 53.2009 26.4749ZM46.3913 17.0346C46.3913 13.2793 49.4456 10.2249 53.2009 10.2249C56.9561 10.2249 60.0105 13.2793 60.0105 17.0346C60.0105 20.7898 56.9561 23.8442 53.2009 23.8442C49.4456 23.8442 46.3913 20.7898 46.3913 17.0346Z" fill="#FF682B"/>
<path d="M101.878 71.0826H99.2835V66.3598C99.2835 65.6381 98.6925 65.0471 97.9707 65.0471H95.3295V60.3243C95.3295 60.0366 95.2301 59.7699 95.0732 59.5502V19.2207C95.0732 18.499 94.4822 17.9079 93.7605 17.9079H73.363V1.31276C73.363 0.591003 72.772 0 72.0502 0H32.6726C31.9508 0 31.3598 0.591003 31.3598 1.31276V17.9079H11.1506C10.4289 17.9079 9.83787 18.499 9.83787 19.2207V59.7071C9.73849 59.8902 9.67573 60.0994 9.67573 60.3243V65.0471H5.74791C5.02615 65.0471 4.43515 65.6381 4.43515 66.3598V71.0826H1.31276C0.591004 71.0826 0 71.6737 0 72.3954V78.6872C0 79.409 0.591004 80 1.31276 80H101.878C102.599 80 103.19 79.409 103.19 78.6872V72.3954C103.19 71.6737 102.599 71.0826 101.878 71.0826ZM12.3013 61.6423H32.6726H41.909H64.5607H72.045C72.0659 61.6423 72.0816 61.637 72.1025 61.637H72.1862C72.2071 61.637 72.2228 61.6423 72.2437 61.6423H92.704V64.7803H12.3013V61.6423ZM33.9854 19.2207V2.62552H70.7322V59.0115H65.8734V33.9435C65.8734 33.2218 65.2824 32.6308 64.5607 32.6308H41.909C41.1872 32.6308 40.5962 33.2218 40.5962 33.9435V59.0115H33.9854V19.2207ZM92.4477 59.0115H73.5565V20.5335H92.4477V59.0115ZM63.2479 59.0115H54.5136V35.2563H63.2479V59.0115ZM51.8881 59.0115H43.227V35.2563H51.8881V59.0115ZM31.3598 59.0115H12.4686V20.5335H31.3598V59.0115ZM96.658 67.6726V70.8159H7.0659V67.6726H96.658ZM100.565 73.7082V77.3692H2.63075V73.7082H100.565Z" fill="#FF682B"/>
<path d="M52.5993 18.6663H58.0281C58.3838 18.6663 58.7185 18.5251 58.9643 18.274C59.2101 18.023 59.3461 17.6935 59.3409 17.3535C59.3409 16.6318 58.7499 16.0408 58.0281 16.0408H53.9173V12.6726C53.9173 11.9508 53.3263 11.3598 52.6045 11.3598C51.8827 11.3598 51.2917 11.9508 51.2917 12.6726V17.1234C51.2917 17.1548 51.297 17.1809 51.3022 17.2123C51.297 17.2594 51.2865 17.3065 51.2865 17.3535C51.2865 18.0753 51.8775 18.6663 52.5993 18.6663Z" fill="#FF682B"/>
</svg>