<svg width="40" height="80" viewBox="0 0 40 80" fill="none" xmlns="http://www.w3.org/2000/svg">
<path d="M29.3341 43.565C30.0624 43.565 30.7773 43.489 31.461 43.3371C36.5594 42.1842 39.5175 36.8982 39.6381 36.6747C40 36.0179 39.8168 35.1912 39.2091 34.7533C39.16 34.7176 34.1197 31.0803 28.9587 32.2466C26.5637 32.7873 24.6423 34.2439 23.2615 35.6604V30.4146C23.9944 30.5754 24.7361 30.6558 25.4823 30.6558C28.1991 30.6558 30.7729 29.5745 32.7345 27.6174C35.4468 24.9051 36.4253 21.0846 35.344 17.4027C34.9463 16.0488 34.9463 14.6189 35.344 13.2605C36.4253 9.5741 35.4468 5.75365 32.7345 3.04135C30.0222 0.329053 26.2017 -0.649519 22.5153 0.431826C21.1614 0.82951 19.7315 0.82951 18.3732 0.431826C14.6912 -0.649519 10.8752 0.329053 8.15847 3.04135C5.44618 5.75365 4.46761 9.5741 5.54895 13.2605C5.94663 14.6144 5.94663 16.0443 5.54895 17.4027C4.46761 21.0846 5.44618 24.9006 8.15847 27.6174C10.1424 29.6013 12.7251 30.6603 15.4062 30.6603C15.9468 30.6603 16.492 30.6112 17.0371 30.5263V46.3711H2.06809C1.25038 46.3711 0.584595 47.0369 0.584595 47.8546V59.5572C0.584595 60.3749 1.25038 61.0407 2.06809 61.0407H5.23616L10.0441 78.9008C10.2139 79.5487 10.8037 80 11.4785 80H29.3743C30.0579 80 30.6522 79.5353 30.8176 78.8606L35.1027 61.0407H38.2395C39.0572 61.0407 39.723 60.3749 39.723 59.5572V47.8546C39.723 47.0369 39.0572 46.3711 38.2395 46.3711H23.2615V42.0234C24.7719 42.7562 26.9613 43.565 29.3341 43.565ZM10.2631 25.5128C8.32827 23.578 7.63567 20.8567 8.39977 18.2338C8.95384 16.3347 8.95384 14.324 8.39977 12.4249C7.63121 9.79752 8.32827 7.07628 10.2631 5.14595C11.6795 3.72948 13.516 2.97433 15.4285 2.97433C16.13 2.97433 16.8405 3.0771 17.542 3.28264C19.4411 3.83672 21.4519 3.83672 23.3509 3.28264C25.9783 2.51408 28.6995 3.21115 30.6299 5.14595C32.5647 7.08075 33.2617 9.80199 32.4932 12.4249C31.9391 14.324 31.9391 16.3347 32.4932 18.2338C33.2617 20.8612 32.5647 23.5824 30.6299 25.5128C28.6951 27.4476 25.9738 28.1402 23.3509 27.3761C21.4385 26.822 19.3919 26.8309 17.542 27.3761C14.9146 28.1446 12.1934 27.4476 10.2631 25.5128ZM20.013 46.3666V30.4369H20.2946V46.3666H20.013ZM36.7515 49.3336V58.0648H33.932H6.3756H3.55606V49.3336H18.5251H21.778H36.7515ZM32.0464 61.0363L28.1991 77.0241H12.6179L8.31933 61.0363H32.0464ZM24.182 39.1502C25.2366 37.7427 27.1356 35.7006 29.6156 35.1421C32.1 34.5835 34.6916 35.6113 36.2421 36.429C35.1876 37.8365 33.2886 39.8786 30.8086 40.4371C28.3376 41.0001 25.7415 39.9679 24.182 39.1502Z" fill="#FF682B"/>
</svg>