<svg width="49" height="80" viewBox="0 0 49 80" fill="none" xmlns="http://www.w3.org/2000/svg">
<path d="M31.1713 14.6145C31.1713 10.9772 28.2133 8.01917 24.576 8.01917C20.9388 8.01917 17.9807 10.9772 17.9807 14.6145C17.9807 18.2517 20.9388 21.2098 24.576 21.2098C28.2133 21.2098 31.1713 18.2517 31.1713 14.6145ZM20.9522 14.6145C20.9522 12.6171 22.5787 10.9906 24.576 10.9906C26.5734 10.9906 28.1999 12.6171 28.1999 14.6145C28.1999 16.6118 26.5734 18.2383 24.576 18.2383C22.5787 18.2383 20.9522 16.6118 20.9522 14.6145Z" fill="#FF682B"/>
<path d="M33.3341 43.565C34.0624 43.565 34.7773 43.489 35.461 43.3371C40.5594 42.1842 43.5175 36.8982 43.6381 36.6747C44 36.0179 43.8168 35.1912 43.2091 34.7533C43.16 34.7176 38.1197 31.0803 32.9587 32.2466C30.5637 32.7873 28.6423 34.2439 27.2615 35.6604V30.4146C27.9944 30.5754 28.7361 30.6558 29.4823 30.6558C32.1991 30.6558 34.7729 29.5745 36.7345 27.6174C39.4468 24.9051 40.4253 21.0846 39.344 17.4027C38.9463 16.0488 38.9463 14.6189 39.344 13.2605C40.4253 9.5741 39.4468 5.75365 36.7345 3.04135C34.0222 0.329053 30.2017 -0.649519 26.5153 0.431826C25.1614 0.82951 23.7315 0.82951 22.3732 0.431826C18.6912 -0.649519 14.8752 0.329053 12.1585 3.04135C9.44618 5.75365 8.46761 9.5741 9.54895 13.2605C9.94663 14.6144 9.94663 16.0443 9.54895 17.4027C8.46761 21.0846 9.44618 24.9006 12.1585 27.6174C14.1424 29.6013 16.7251 30.6603 19.4062 30.6603C19.9468 30.6603 20.492 30.6112 21.0371 30.5263V46.3711H6.06809C5.25038 46.3711 4.58459 47.0369 4.58459 47.8546V59.5572C4.58459 60.3749 5.25038 61.0407 6.06809 61.0407H9.23616L14.0441 78.9008C14.2139 79.5487 14.8037 80 15.4785 80H33.3743C34.0579 80 34.6522 79.5353 34.8176 78.8606L39.1027 61.0407H42.2395C43.0572 61.0407 43.723 60.3749 43.723 59.5572V47.8546C43.723 47.0369 43.0572 46.3711 42.2395 46.3711H27.2615V42.0234C28.7719 42.7562 30.9613 43.565 33.3341 43.565ZM14.2631 25.5128C12.3283 23.578 11.6357 20.8567 12.3998 18.2338C12.9538 16.3347 12.9538 14.324 12.3998 12.4249C11.6312 9.79752 12.3283 7.07628 14.2631 5.14595C15.6795 3.72948 17.516 2.97433 19.4285 2.97433C20.13 2.97433 20.8405 3.0771 21.542 3.28264C23.4411 3.83672 25.4519 3.83672 27.3509 3.28264C29.9783 2.51408 32.6995 3.21115 34.6299 5.14595C36.5647 7.08075 37.2617 9.80199 36.4932 12.4249C35.9391 14.324 35.9391 16.3347 36.4932 18.2338C37.2617 20.8612 36.5647 23.5824 34.6299 25.5128C32.6951 27.4476 29.9738 28.1402 27.3509 27.3761C25.4385 26.822 23.3919 26.8309 21.542 27.3761C18.9146 28.1446 16.1934 27.4476 14.2631 25.5128ZM24.013 46.3666V30.4369H24.2946V46.3666H24.013ZM40.7515 49.3336V58.0648H37.932H10.3756H7.55606V49.3336H22.5251H25.778H40.7515ZM36.0464 61.0363L32.1991 77.0241H16.6179L12.3193 61.0363H36.0464ZM28.182 39.1502C29.2366 37.7427 31.1356 35.7006 33.6156 35.1421C36.1 34.5835 38.6916 35.6113 40.2421 36.429C39.1876 37.8365 37.2886 39.8786 34.8086 40.4371C32.3376 41.0001 29.7415 39.9679 28.182 39.1502Z" fill="#FF682B"/>
<path d="M6.07251 39.5658C6.82766 39.5658 7.52026 39.1503 7.87773 38.4889L9.00376 36.4246L11.0681 35.2941C11.7295 34.9277 12.1405 34.2351 12.1405 33.4844C12.1405 32.7292 11.7295 32.0366 11.0681 31.6747L9.00822 30.5487L7.8822 28.4843C7.51579 27.823 6.82319 27.4119 6.07251 27.4119C5.31735 27.4119 4.62476 27.823 4.26282 28.4843L3.13679 30.5487L1.07241 31.6792C0.41109 32.0456 0 32.7382 0 33.4888C0 34.244 0.41109 34.9366 1.07241 35.2985L3.13679 36.4246L4.26729 38.4889C4.62923 39.1547 5.32182 39.5658 6.07251 39.5658ZM6.06804 29.9454L7.03321 31.7104C7.22535 32.059 7.50685 32.3405 7.85092 32.5281L9.62039 33.4933L7.85092 34.4585C7.50238 34.6506 7.22088 34.9321 7.03321 35.2762L6.06804 37.0457L5.10287 35.2762C4.91073 34.9277 4.62923 34.6461 4.28516 34.4585L2.51569 33.4933L4.28069 32.5281C4.63369 32.336 4.91967 32.0545 5.10287 31.7104L6.06804 29.9454Z" fill="#FF682B"/>
<path d="M47.4718 12.5009L46.8016 12.1345L46.4352 11.4642C46.2341 11.1023 45.8543 10.8744 45.4387 10.8744C45.0276 10.8744 44.6434 11.0978 44.4423 11.4642L44.0759 12.1345L43.4056 12.5009C43.0437 12.702 42.8158 13.0818 42.8158 13.4973C42.8158 13.9129 43.0392 14.2927 43.4056 14.4938L44.0759 14.8602L44.4423 15.5349C44.6434 15.8968 45.0232 16.1247 45.4387 16.1247C45.8543 16.1247 46.2341 15.8968 46.4352 15.5349L46.8016 14.8646L47.4763 14.4982C47.8382 14.2972 48.0661 13.9173 48.0661 13.5018C48.0617 13.0818 47.8338 12.6975 47.4718 12.5009ZM45.4745 13.9754L45.4387 14.0425L45.403 13.9754C45.3002 13.7833 45.1438 13.6269 44.9472 13.5241L44.8847 13.4929L44.9472 13.4616C45.1393 13.3588 45.2957 13.2024 45.403 13.0058L45.4387 12.9388L45.4745 13.0013C45.5772 13.1935 45.7336 13.3543 45.9302 13.4571L45.9928 13.4884L45.9302 13.5197C45.7336 13.6269 45.5772 13.7833 45.4745 13.9754Z" fill="#FF682B"/>
<path d="M14.9064 41.6257L15.2728 42.296C15.4739 42.6579 15.8537 42.8858 16.2693 42.8858C16.6893 42.8858 17.0736 42.6579 17.2657 42.2915L17.6321 41.6213L18.3024 41.2549C18.6643 41.0538 18.8922 40.674 18.8922 40.2584C18.8922 39.8473 18.6688 39.4631 18.3024 39.262L17.6321 38.8956L17.2657 38.2209C17.0647 37.8589 16.6848 37.6355 16.2693 37.6355C15.8537 37.6355 15.4695 37.8634 15.2728 38.2253L14.9064 38.8956L14.2362 39.2665C13.8742 39.4675 13.6464 39.8473 13.6464 40.2629C13.6464 40.6785 13.8742 41.0627 14.2362 41.2593L14.9064 41.6257ZM16.2335 39.7669L16.2648 39.7043L16.3006 39.7669C16.4033 39.959 16.5597 40.1154 16.7563 40.2227L16.8189 40.254L16.7563 40.2852C16.5642 40.388 16.4078 40.5444 16.3006 40.741L16.2693 40.8036L16.238 40.741C16.1352 40.5489 15.9788 40.3925 15.7822 40.2852L15.7197 40.254L15.7822 40.2182C15.9744 40.1199 16.1308 39.959 16.2335 39.7669Z" fill="#FF682B"/>
</svg>