<svg width="96" height="70" viewBox="0 0 96 70" fill="none" xmlns="http://www.w3.org/2000/svg">
<path d="M91.4166 54.531H53.4688V34.7602C54.1444 34.7949 54.9066 34.8238 55.7496 34.8238C61.4371 34.8238 69.4979 33.7555 75.6243 28.6569C85.065 20.8041 85.8561 6.74974 85.9138 5.17339C85.9543 4.15136 85.2152 3.26214 84.1989 3.10624C83.5811 3.01385 68.9262 0.888956 59.2372 8.95547C53.2378 13.9501 50.7318 21.445 49.6867 26.6475C48.5665 20.9138 45.8238 12.3738 39.1315 6.80171C28.4089 -2.11939 12.3105 0.259573 11.6349 0.363508C10.6244 0.51941 9.89113 1.40286 9.92 2.42489C9.94309 3.11779 10.6187 19.4529 21.2431 28.2989C27.9931 33.9114 36.8738 35.0894 43.133 35.0894C44.3398 35.0894 45.4023 35.0432 46.2742 34.9854V54.531H8.73629C7.62188 54.531 6.71533 55.4375 6.71533 56.552V67.979C6.71533 69.0935 7.62188 70 8.73629 70H91.4166C92.5311 70 93.4376 69.0935 93.4376 67.979V56.552C93.4376 55.4375 92.5311 54.531 91.4166 54.531ZM46.2568 30.9262C42.2092 31.2034 31.1805 31.3073 23.83 25.1924C16.5083 19.1007 14.5913 8.21638 14.1236 4.18023C18.1771 3.90885 29.223 3.81646 36.5505 9.91398C43.8721 16.0057 45.7891 26.89 46.2568 30.9262ZM49.7098 34.3041H50.0736C50.1486 34.3387 50.2237 34.3791 50.2988 34.4022V54.531H49.45V34.4831C49.5424 34.4311 49.629 34.3676 49.7098 34.3041ZM47.2211 58.5729C47.4175 58.6595 47.6369 58.7115 47.8621 58.7115H51.8809C52.1119 58.7115 52.3255 58.6595 52.5218 58.5729H89.3957V65.9581H10.7573V58.5729H47.2211ZM53.157 30.6894C53.6651 26.4454 55.4667 17.3511 61.824 12.0677C64.0066 10.2489 70.2774 6.16077 81.7103 6.92874C81.2079 11.167 79.4121 20.244 73.0432 25.5504C70.8606 27.3693 64.5898 31.4574 53.157 30.6894Z" fill="#FF682B"/>
<path d="M93.7668 32.4564L90.285 30.5509L88.3795 27.0691C87.8021 26.0239 86.705 25.3715 85.5097 25.3715C84.3145 25.3715 83.2116 26.0239 82.64 27.0691L80.7345 30.5509L77.2527 32.4564C76.2075 33.0338 75.5551 34.1309 75.5551 35.3261C75.5551 36.5214 76.2075 37.6242 77.2527 38.1959L80.7345 40.1014L82.64 43.5832C83.2174 44.6283 84.3145 45.2808 85.5097 45.2808C86.705 45.2808 87.8021 44.6283 88.3795 43.5832L90.285 40.1014L93.7668 38.1959C94.8119 37.6185 95.4644 36.5214 95.4644 35.3261C95.4644 34.1309 94.8119 33.028 93.7668 32.4564ZM85.5097 41.6084L83.7486 38.3864C83.4483 37.8379 82.998 37.3817 82.4494 37.0815L79.2274 35.3204L82.4494 33.5592C82.998 33.259 83.4426 32.8086 83.7486 32.26L85.5097 29.0381L87.2709 32.2543C87.5653 32.8086 88.0157 33.259 88.57 33.565L91.792 35.3261L88.57 37.0873C88.0215 37.3875 87.5769 37.8379 87.2709 38.3864L85.5097 41.6084Z" fill="#FF682B"/>
<path d="M28.0335 43.7564L28.6745 44.9228C28.9805 45.4771 29.5579 45.8235 30.1931 45.8235C30.8282 45.8235 31.4057 45.4771 31.7059 44.9228L32.3411 43.7621L33.5075 43.1212C34.0618 42.8152 34.4082 42.2378 34.4082 41.6026C34.4082 40.9732 34.0618 40.39 33.5075 40.084L32.3469 39.4431L31.7117 38.2767C31.4057 37.7224 30.8282 37.3759 30.1931 37.3759C29.5637 37.3759 28.9805 37.7224 28.6745 38.2767L28.0393 39.4373L26.8729 40.0782C26.3186 40.3843 25.9722 40.9617 25.9722 41.5968C25.9722 42.2262 26.3186 42.8094 26.8729 43.1154L28.0335 43.7564ZM31.4692 41.6142L31.0881 41.822C30.7936 41.9837 30.5511 42.2204 30.401 42.5092L30.1931 42.8903L29.9852 42.5034C29.8293 42.2147 29.5868 41.9722 29.2981 41.8163L28.917 41.6084L29.3039 41.3947C29.5926 41.2388 29.8351 40.9963 29.991 40.7076L30.1931 40.3265L30.4067 40.7134C30.5684 41.0079 30.8052 41.2504 31.0939 41.4005L31.4692 41.6142Z" fill="#FF682B"/>
<path d="M8.43606 15.7401C8.43606 15.1107 8.08961 14.5275 7.53529 14.2215L6.37468 13.5863L5.73375 12.4257C5.42772 11.8714 4.8503 11.525 4.21514 11.525C3.57999 11.525 3.00257 11.8714 2.69654 12.4257L2.06138 13.5863L0.889223 14.2273C0.340677 14.5333 0 15.1107 0 15.7401C0 16.3695 0.340676 16.9527 0.894996 17.2529L2.06138 17.8881L2.70231 19.0545C3.00834 19.6088 3.58576 19.9553 4.22092 19.9553C4.85608 19.9553 5.43927 19.6088 5.73375 19.0545L6.36891 17.8939L7.53529 17.2529C8.08961 16.9527 8.43606 16.3695 8.43606 15.7401ZM4.42879 16.6409L4.22092 17.022L4.01305 16.6351C3.85715 16.3464 3.61463 16.1039 3.32592 15.948L2.94483 15.7459L3.32592 15.538C3.61463 15.3821 3.85715 15.1396 4.01305 14.8509L4.22092 14.464L4.42879 14.8451C4.59047 15.1396 4.83298 15.3821 5.11592 15.5322L5.49701 15.7401L5.11014 15.948C4.82721 16.1039 4.58469 16.3464 4.42879 16.6409Z" fill="#FF682B"/>
</svg>