<svg width="88" height="70" viewBox="0 0 88 70" fill="none" xmlns="http://www.w3.org/2000/svg">
<path d="M85.4166 54.531H47.4688V34.7602C48.1444 34.7949 48.9066 34.8238 49.7496 34.8238C55.4371 34.8238 63.4979 33.7555 69.6243 28.6569C79.065 20.8041 79.8561 6.74974 79.9138 5.17339C79.9543 4.15136 79.2152 3.26214 78.1989 3.10624C77.5811 3.01385 62.9262 0.888956 53.2372 8.95547C47.2378 13.9501 44.7318 21.445 43.6867 26.6475C42.5665 20.9138 39.8238 12.3738 33.1315 6.80171C22.4089 -2.11939 6.3105 0.259573 5.63493 0.363508C4.62445 0.51941 3.89113 1.40286 3.92 2.42489C3.94309 3.11779 4.61867 19.4529 15.2431 28.2989C21.9931 33.9114 30.8738 35.0894 37.133 35.0894C38.3398 35.0894 39.4023 35.0432 40.2742 34.9854V54.531H2.73629C1.62188 54.531 0.715332 55.4375 0.715332 56.552V67.979C0.715332 69.0935 1.62188 70 2.73629 70H85.4166C86.5311 70 87.4376 69.0935 87.4376 67.979V56.552C87.4376 55.4375 86.5311 54.531 85.4166 54.531ZM40.2568 30.9262C36.2092 31.2034 25.1805 31.3073 17.83 25.1924C10.5083 19.1007 8.5913 8.21638 8.12359 4.18023C12.1771 3.90885 23.223 3.81646 30.5505 9.91398C37.8721 16.0057 39.7891 26.89 40.2568 30.9262ZM43.7098 34.3041H44.0736C44.1486 34.3387 44.2237 34.3791 44.2988 34.4022V54.531H43.45V34.4831C43.5424 34.4311 43.629 34.3676 43.7098 34.3041ZM41.2211 58.5729C41.4175 58.6595 41.6369 58.7115 41.8621 58.7115H45.8809C46.1119 58.7115 46.3255 58.6595 46.5218 58.5729H83.3957V65.9581H4.75725V58.5729H41.2211ZM47.157 30.6894C47.6651 26.4454 49.4667 17.3511 55.824 12.0677C58.0066 10.2489 64.2774 6.16077 75.7103 6.92874C75.2079 11.167 73.4121 20.244 67.0432 25.5504C64.8606 27.3693 58.5898 31.4574 47.157 30.6894Z" fill="#FF682B"/>
</svg>