<svg width="438" height="328" viewBox="0 0 438 328" fill="none" xmlns="http://www.w3.org/2000/svg">
<path d="M438 19.8H0V328H438V19.8Z" fill="#E6E6E6"/>
<path d="M419.3 90H21.8999V309H419.3V90Z" fill="white"/>
<path d="M419.6 90H22.2V309H419.6V90Z" stroke="#EAEAEA" stroke-miterlimit="10"/>
<path d="M22.2 265.2H419.6" stroke="#EAEAEA" stroke-miterlimit="10"/>
<path d="M22.2 221.4H419.6" stroke="#EAEAEA" stroke-miterlimit="10"/>
<path d="M22.2 177.6H419.6" stroke="#EAEAEA" stroke-miterlimit="10"/>
<path d="M22.2 133.8H419.6" stroke="#EAEAEA" stroke-miterlimit="10"/>
<path d="M369.9 90V309" stroke="#EAEAEA" stroke-miterlimit="10"/>
<path d="M320.2 90V309" stroke="#EAEAEA" stroke-miterlimit="10"/>
<path d="M270.5 90V309" stroke="#EAEAEA" stroke-miterlimit="10"/>
<path d="M220.9 90V309" stroke="#EAEAEA" stroke-miterlimit="10"/>
<path d="M171.2 90V309" stroke="#EAEAEA" stroke-miterlimit="10"/>
<path d="M121.5 90V309" stroke="#EAEAEA" stroke-miterlimit="10"/>
<path d="M71.8999 90V309" stroke="#EAEAEA" stroke-miterlimit="10"/>
<path d="M32 37.3C29.5 37.3 27.5 35.3 27.5 32.8V4.5C27.5 2 29.5 0 32 0C34.5 0 36.5 2 36.5 4.5V32.8C36.5 35.3 34.4 37.3 32 37.3Z" fill="#D9D9D9"/>
<path d="M72.1001 37.3C69.6001 37.3 67.6001 35.3 67.6001 32.8V4.5C67.6001 2 69.6001 0 72.1001 0C74.6001 0 76.6001 2 76.6001 4.5V32.8C76.5001 35.3 74.5001 37.3 72.1001 37.3Z" fill="#D9D9D9"/>
<path d="M112.1 37.3C109.6 37.3 107.6 35.3 107.6 32.8V4.5C107.6 2 109.6 0 112.1 0C114.6 0 116.6 2 116.6 4.5V32.8C116.6 35.3 114.6 37.3 112.1 37.3Z" fill="#D9D9D9"/>
<path d="M152.2 37.3C149.7 37.3 147.7 35.3 147.7 32.8V4.5C147.7 2 149.7 0 152.2 0C154.7 0 156.7 2 156.7 4.5V32.8C156.7 35.3 154.7 37.3 152.2 37.3Z" fill="#D9D9D9"/>
<path d="M192.3 37.3C189.8 37.3 187.8 35.3 187.8 32.8V4.5C187.8 2 189.8 0 192.3 0C194.8 0 196.8 2 196.8 4.5V32.8C196.8 35.3 194.8 37.3 192.3 37.3Z" fill="#D9D9D9"/>
<path d="M232.4 37.3C229.9 37.3 227.9 35.3 227.9 32.8V4.5C227.9 2 229.9 0 232.4 0C234.9 0 236.9 2 236.9 4.5V32.8C236.9 35.3 234.8 37.3 232.4 37.3Z" fill="#D9D9D9"/>
<path d="M272.5 37.3C270 37.3 268 35.3 268 32.8V4.5C268 2 270 0 272.5 0C275 0 277 2 277 4.5V32.8C276.9 35.3 274.9 37.3 272.5 37.3Z" fill="#D9D9D9"/>
<path d="M312.5 37.3C310 37.3 308 35.3 308 32.8V4.5C308 2 310 0 312.5 0C315 0 317 2 317 4.5V32.8C317 35.3 315 37.3 312.5 37.3Z" fill="#D9D9D9"/>
<path d="M352.6 37.3C350.1 37.3 348.1 35.3 348.1 32.8V4.5C348.1 2 350.1 0 352.6 0C355.1 0 357.1 2 357.1 4.5V32.8C357.1 35.3 355.1 37.3 352.6 37.3Z" fill="#D9D9D9"/>
<path d="M392.7 37.3C390.2 37.3 388.2 35.3 388.2 32.8V4.5C388.2 2 390.2 0 392.7 0C395.2 0 397.2 2 397.2 4.5V32.8C397.2 35.3 395.2 37.3 392.7 37.3Z" fill="#D9D9D9"/>
<path opacity="0.73" d="M419.6 89.4H21.8999V307H419.6V89.4Z" fill="white"/>
<path d="M154.9 176.1C160.147 176.1 164.4 171.847 164.4 166.6C164.4 161.353 160.147 157.1 154.9 157.1C149.653 157.1 145.4 161.353 145.4 166.6C145.4 171.847 149.653 176.1 154.9 176.1Z" fill="#D8D8D8"/>
<path d="M272.6 176.1C277.847 176.1 282.1 171.847 282.1 166.6C282.1 161.353 277.847 157.1 272.6 157.1C267.353 157.1 263.1 161.353 263.1 166.6C263.1 171.847 267.353 176.1 272.6 176.1Z" fill="#D8D8D8"/>
<path d="M215.7 206.5H213.8C210.4 206.5 207.6 203.7 207.6 200.3V179C207.6 175.6 210.4 172.8 213.8 172.8H215.7C219.1 172.8 221.9 175.6 221.9 179V200.3C222 203.7 219.2 206.5 215.7 206.5Z" fill="#D8D8D8"/>
<path d="M269.1 246.2C269.1 249.6 266 251.7 263.7 249.9C252.1 241.4 237.3 235.2 218 235.2C198.8 235.2 184.2 241.2 172.7 249.8C170.3 251.6 167.2 249.5 167.2 246.1C167.2 244.7 167.7 243.4 168.7 242.6C179 233.4 194.7 224.1 218.2 224.1C241.6 224.1 257.1 233.3 267.7 242.6C268.5 243.5 269.1 244.8 269.1 246.2Z" fill="#D8D8D8"/>
</svg>