<svg width="94" height="80" viewBox="0 0 94 80" fill="none" xmlns="http://www.w3.org/2000/svg">
<path d="M1.9389 53.9553H91.2633C92.0138 53.9553 92.6236 53.3455 92.6236 52.595V1.36035C92.6236 0.609811 92.0138 0 91.2633 0H1.9389C1.18836 0 0.578552 0.609811 0.578552 1.36035V52.595C0.578552 53.3455 1.18836 53.9553 1.9389 53.9553ZM89.8977 2.71549V51.2294H3.29925V2.71549H89.8977Z" fill="#FF682B"/>
<path d="M12.4464 69.7791C14.5052 68.3667 15.7457 66.0473 15.7457 63.5194C15.7457 59.3289 12.337 55.915 8.14125 55.915C3.94553 55.915 0.536843 59.3289 0.536843 63.5194C0.536843 66.0473 1.77731 68.3667 3.83087 69.7739C1.47501 71.1395 0 73.6569 0 76.4297V78.8064C0 79.4632 0.536843 80 1.19356 80C1.85028 80 2.38713 79.4632 2.38713 78.8064V76.4297C2.38713 73.5005 4.76904 71.1186 7.69822 71.1186H8.04743C8.10997 71.1238 8.16731 71.1238 8.24549 71.1186H8.58427C11.5135 71.1186 13.8954 73.5005 13.8954 76.4297V78.8064C13.8954 79.4632 14.4322 80 15.0889 80C15.4069 80 15.7196 79.8697 15.9437 79.6404C16.1678 79.411 16.2825 79.1087 16.2721 78.8064V76.4297C16.2721 73.6621 14.7971 71.1447 12.4464 69.7791ZM13.3585 63.5194C13.3585 66.3965 11.0183 68.7367 8.14125 68.7367C5.26419 68.7367 2.92397 66.3965 2.92397 63.5194C2.92397 60.6424 5.26419 58.3022 8.14125 58.3022C11.0183 58.3022 13.3585 60.6424 13.3585 63.5194Z" fill="#FF682B"/>
<path d="M31.6737 69.7791C33.7325 68.3667 34.9782 66.0473 34.9782 63.5194C34.9782 59.3289 31.5643 55.915 27.3738 55.915C23.1833 55.915 19.7693 59.3289 19.7693 63.5194C19.7693 66.0421 21.0098 68.3615 23.0634 69.7739C20.7075 71.1395 19.2273 73.6569 19.2273 76.4297V78.8064C19.2273 79.4632 19.7641 80 20.4209 80C21.0776 80 21.6144 79.4632 21.6144 78.8064V76.4297C21.6144 73.5005 23.9963 71.1186 26.9255 71.1186H27.2799C27.3425 71.1238 27.3998 71.1238 27.478 71.1186H27.8116C30.7407 71.1186 33.1227 73.5005 33.1227 76.4297V78.8064C33.1227 79.4632 33.6595 80 34.3162 80C34.6342 80 34.9469 79.8697 35.171 79.6404C35.3951 79.411 35.5098 79.1087 35.5046 78.8064V76.4297C35.4994 73.6621 34.0244 71.1499 31.6737 69.7791ZM32.591 63.5194C32.591 66.3965 30.2508 68.7367 27.3738 68.7367C24.4967 68.7367 22.1565 66.3965 22.1565 63.5194C22.1565 60.6424 24.4967 58.3022 27.3738 58.3022C30.2508 58.3022 32.591 60.6424 32.591 63.5194Z" fill="#FF682B"/>
<path d="M50.901 69.7791C52.9598 68.3667 54.2055 66.0473 54.2055 63.5194C54.2055 59.3289 50.7968 55.915 46.6011 55.915C42.4053 55.915 38.9966 59.3289 38.9966 63.5194C38.9966 66.0421 40.2371 68.3615 42.2907 69.7739C39.9348 71.1395 38.4546 73.6569 38.4546 76.4297V78.8064C38.4546 79.4632 38.9914 80 39.6482 80C40.3049 80 40.8417 79.4632 40.8417 78.8064V76.4297C40.8417 73.5005 43.2236 71.1186 46.1528 71.1186H46.5072C46.5698 71.1238 46.6271 71.1238 46.7053 71.1186H47.0389C49.968 71.1186 52.35 73.5005 52.35 76.4297V78.8064C52.35 79.4632 52.8868 80 53.5435 80C53.8615 80 54.1742 79.8697 54.3983 79.6404C54.6224 79.411 54.7371 79.1087 54.7267 78.8064V76.4297C54.7267 73.6621 53.2516 71.1499 50.901 69.7791ZM51.8183 63.5194C51.8183 66.3965 49.4781 68.7367 46.6011 68.7367C43.724 68.7367 41.3838 66.3965 41.3838 63.5194C41.3838 60.6424 43.724 58.3022 46.6011 58.3022C49.4781 58.3022 51.8183 60.6424 51.8183 63.5194Z" fill="#FF682B"/>
<path d="M70.1284 69.7791C72.1871 68.3667 73.4328 66.0473 73.4328 63.5194C73.4328 59.3289 70.0241 55.915 65.8284 55.915C61.6327 55.915 58.224 59.3289 58.224 63.5194C58.224 66.0421 59.4645 68.3615 61.518 69.7739C59.1622 71.1395 57.6819 73.6569 57.6819 76.4297V78.8064C57.6819 79.4632 58.2188 80 58.8755 80C59.5322 80 60.0691 79.4632 60.0691 78.8064V76.4297C60.0691 73.5005 62.451 71.1186 65.3802 71.1186H65.7346C65.7971 71.1238 65.8545 71.1238 65.9326 71.1186H66.2662C69.1954 71.1186 71.5773 73.5005 71.5773 76.4297V78.8064C71.5773 79.4632 72.1142 80 72.7709 80C73.0888 80 73.4015 79.8697 73.6257 79.6404C73.8498 79.411 73.9644 79.1087 73.954 78.8064V76.4297C73.954 73.6621 72.479 71.1499 70.1284 69.7791ZM71.0457 63.5194C71.0457 66.3965 68.7055 68.7367 65.8284 68.7367C62.9513 68.7367 60.6111 66.3965 60.6111 63.5194C60.6111 60.6424 62.9513 58.3022 65.8284 58.3022C68.7055 58.3022 71.0457 60.6424 71.0457 63.5194Z" fill="#FF682B"/>
<path d="M89.3557 69.7791C91.4144 68.3667 92.6601 66.0473 92.6601 63.5194C92.6601 59.3289 89.2514 55.915 85.0557 55.915C80.86 55.915 77.4513 59.3289 77.4513 63.5194C77.4513 66.0473 78.6918 68.3615 80.7453 69.7739C78.3895 71.1395 76.9092 73.6569 76.9092 76.4297V78.8064C76.9092 79.4632 77.4461 80 78.1028 80C78.7595 80 79.2964 79.4632 79.2964 78.8064V76.4297C79.2964 73.5005 81.6783 71.1186 84.6075 71.1186H84.9619C85.0244 71.1238 85.0818 71.1238 85.1599 71.1186H85.4935C88.4227 71.1186 90.8046 73.5005 90.8046 76.4297V78.8064C90.8046 79.4632 91.3414 80 91.9982 80C92.3265 80 92.6288 79.8749 92.853 79.6456C93.0719 79.4162 93.1917 79.1139 93.1813 78.8064V76.4297C93.1813 73.6621 91.7063 71.1499 89.3557 69.7791ZM90.273 63.5194C90.273 66.3965 87.9328 68.7367 85.0557 68.7367C82.1786 68.7367 79.8384 66.3965 79.8384 63.5194C79.8384 60.6424 82.1786 58.3022 85.0557 58.3022C87.9328 58.3022 90.273 60.6424 90.273 63.5194Z" fill="#FF682B"/>
<path d="M25.9352 33.6439H67.2669C68.0175 33.6439 68.6273 33.0341 68.6273 32.2836C68.6273 31.533 68.0175 30.9232 67.2669 30.9232H25.9352C25.1847 30.9232 24.5749 31.533 24.5749 32.2836C24.5749 33.0341 25.1847 33.6439 25.9352 33.6439Z" fill="#FF682B"/>
<path d="M25.9352 39.9766H67.2669C68.0175 39.9766 68.6273 39.3667 68.6273 38.6162C68.6273 37.8657 68.0175 37.2559 67.2669 37.2559H25.9352C25.1847 37.2559 24.5749 37.8657 24.5749 38.6162C24.5749 39.3667 25.1847 39.9766 25.9352 39.9766Z" fill="#FF682B"/>
<path d="M25.9352 46.3092H67.2669C68.0175 46.3092 68.6273 45.6994 68.6273 44.9489C68.6273 44.1983 68.0175 43.5885 67.2669 43.5885H25.9352C25.1847 43.5885 24.5749 44.1983 24.5749 44.9489C24.5749 45.6994 25.1847 46.3092 25.9352 46.3092Z" fill="#FF682B"/>
<path d="M25.9978 28.8957H44.4589C45.2095 28.8957 45.8193 28.2859 45.8193 27.5354V9.07422C45.8193 8.32368 45.2095 7.71387 44.4589 7.71387H25.9978C25.2473 7.71387 24.6375 8.32368 24.6375 9.07422V27.5354C24.6375 28.2859 25.2473 28.8957 25.9978 28.8957ZM27.3582 26.175V10.4346H43.0986V26.175H27.3582Z" fill="#FF682B"/>
<path d="M48.5452 28.8957H67.0063C67.7568 28.8957 68.3666 28.2859 68.3666 27.5354V9.07422C68.3666 8.32368 67.7568 7.71387 67.0063 7.71387H48.5452C47.7946 7.71387 47.1848 8.32368 47.1848 9.07422V27.5354C47.1848 28.2859 47.7946 28.8957 48.5452 28.8957ZM49.9055 26.175V10.4346H65.646V26.175H49.9055Z" fill="#FF682B"/>
<path d="M79.312 14.4582L80.4014 15.1358L80.9538 16.2981C81.1311 16.663 81.4855 16.8975 81.8868 16.9183H81.9441C82.3246 16.9183 82.6686 16.7255 82.8719 16.4076L83.5495 15.3182L84.7013 14.771C85.0714 14.599 85.3111 14.2446 85.332 13.838C85.3528 13.4367 85.1548 13.0562 84.816 12.8477L83.7267 12.1701L83.1794 11.0183C83.0074 10.6482 82.653 10.4085 82.2569 10.3876C81.8555 10.3564 81.4698 10.5544 81.2561 10.9036L80.5786 11.9877L79.4267 12.535C79.0567 12.707 78.8169 13.0614 78.7961 13.468C78.7752 13.8693 78.9733 14.2498 79.312 14.4582ZM81.4855 13.4627C81.6783 13.3741 81.8399 13.2282 81.9441 13.0562L82.1213 12.7695L82.2673 13.0718C82.3559 13.2647 82.5018 13.4263 82.6738 13.5305L82.9605 13.7077L82.653 13.8536C82.4601 13.9475 82.2986 14.0882 82.1943 14.2602L82.0171 14.5469L81.8712 14.2446C81.7826 14.0517 81.6366 13.8901 81.4646 13.7859L81.178 13.6087L81.4855 13.4627Z" fill="#FF682B"/>
<path d="M11.1226 32.2471L12.2067 32.9298L12.7539 34.0869C12.9259 34.457 13.2803 34.6967 13.6869 34.7176H13.7442C14.1247 34.7176 14.4739 34.5195 14.672 34.1964L15.3547 33.1123L16.5014 32.565C16.8819 32.393 17.1269 32.0334 17.1477 31.6372C17.1685 31.2359 16.9705 30.8554 16.6317 30.647L15.5476 29.9694L14.9951 28.8071C14.8179 28.4422 14.4635 28.2077 14.0726 28.1869C13.6713 28.1504 13.2803 28.3589 13.0719 28.7029L12.3891 29.787L11.232 30.3342C10.8619 30.5062 10.6222 30.8606 10.6013 31.2672C10.5909 31.6581 10.789 32.0386 11.1226 32.2471ZM13.2803 31.2463C13.4732 31.1525 13.6296 31.0118 13.739 30.8398L13.9162 30.5531L14.0622 30.8554C14.1508 31.0483 14.2967 31.2046 14.4687 31.3141L14.7554 31.4913L14.4531 31.6372C14.2602 31.7311 14.0986 31.8718 13.9944 32.0438L13.8172 32.3305L13.6765 32.0386C13.5879 31.8405 13.4419 31.6737 13.2647 31.5643L12.978 31.3871L13.2803 31.2463Z" fill="#FF682B"/>
<path d="M76.5601 45.7515L77.6442 46.429L78.1914 47.5809C78.3634 47.951 78.7179 48.1907 79.1244 48.2116H79.1817C79.5622 48.2116 79.9114 48.0135 80.1095 47.6904L80.7871 46.6063L81.9337 46.059C82.3142 45.887 82.5644 45.5274 82.58 45.1312C82.6009 44.7299 82.4028 44.3494 82.064 44.1409L80.9799 43.4634L80.4274 42.2959C80.2502 41.931 79.8958 41.6965 79.5049 41.6756C79.1036 41.6444 78.7126 41.8476 78.5042 42.1916L77.8266 43.2757L76.6747 43.823C76.3047 43.995 76.0649 44.3494 76.0441 44.756C76.0284 45.1625 76.2265 45.543 76.5601 45.7515ZM78.7179 44.7508C78.9107 44.6622 79.0671 44.5162 79.1765 44.3442L79.3537 44.0576L79.4997 44.3599C79.5883 44.5527 79.7342 44.7091 79.9062 44.8185L80.1929 44.9957L79.8906 45.1417C79.6977 45.2303 79.5414 45.3762 79.4319 45.5482L79.2547 45.8349L79.114 45.543C79.0254 45.3449 78.8794 45.1782 78.7022 45.0687L78.4156 44.8915L78.7179 44.7508Z" fill="#FF682B"/>
</svg>
