<svg width="103" height="70" viewBox="0 0 103 70" fill="none" xmlns="http://www.w3.org/2000/svg">
<path d="M101.414 29.726H99.4641V16.9657C99.5389 16.8 99.5763 16.6343 99.5763 16.4634C99.5763 16.2924 99.5389 16.1214 99.4641 15.9611V1.17557C99.4641 0.529008 98.9298 0 98.2725 0H4.10382C3.44656 0 2.91221 0.529008 2.91221 1.17557V15.7313C2.77863 15.9344 2.70916 16.1641 2.70916 16.4046C2.70916 16.645 2.77863 16.8748 2.91221 17.0779V29.6672H1.2771C0.571756 29.6672 0 30.2282 0 30.9229V37.8321C0 38.5267 0.571756 39.0878 1.2771 39.0878H2.91221V52.0565C2.77863 52.2595 2.70916 52.4893 2.70916 52.7298C2.70916 52.9702 2.77863 53.2 2.91221 53.4031V68.8244C2.91221 69.471 3.44656 70 4.10382 70H98.2779C98.5985 70 98.9137 69.8664 99.1328 69.6367C99.3519 69.4122 99.4695 69.113 99.4641 68.8244V53.2908C99.5336 53.1305 99.571 52.9649 99.5763 52.7885C99.5763 52.6176 99.5389 52.4466 99.4641 52.2863V39.1519H101.409C102.104 39.1519 102.676 38.5908 102.692 37.8962V30.9817C102.692 30.287 102.12 29.726 101.414 29.726ZM100.137 32.2374V36.6405H99.4641V32.2374H100.137ZM80.0031 34.4176C80.0031 32.2802 80.5748 30.9924 81.184 30.2336V38.5374C80.5748 37.8107 80.0031 36.555 80.0031 34.4176ZM81.184 16.4634V27.0595C80.1259 27.5725 77.4489 29.3626 77.4489 34.4176C77.4489 39.3657 79.9389 41.0969 81.184 41.658V52.7885C81.184 53.4832 81.7557 54.0443 82.4611 54.0443H97.0809V67.6435H52.0031V42.7695C56.1122 42.2031 59.1847 38.8153 59.1847 34.7916C59.1847 30.7679 56.1122 27.3802 52.0031 26.8137V2.35649H97.0809V15.2076H82.4611C81.7557 15.2076 81.184 15.7687 81.184 16.4634ZM52.0031 40.3756V29.2076C54.755 29.742 56.7962 32.0931 56.7962 34.7916C56.7962 37.4901 54.755 39.8412 52.0031 40.3756ZM91.5824 26.1137V42.716C91.5824 43.4107 92.1542 43.9718 92.8595 43.9718H97.0809V51.5328H83.7382V17.7191H97.0809V24.858H92.8595C92.1542 24.858 91.5824 25.4191 91.5824 26.1137ZM97.0809 27.3695V41.4603H94.1366V27.3695H97.0809ZM49.6198 29.2076V40.3809C46.8679 39.8466 44.8267 37.4954 44.8267 34.797C44.8267 32.0931 46.8679 29.742 49.6198 29.2076ZM22.2878 34.3534C22.2878 36.4802 21.7107 37.7359 21.1015 38.4679V30.1588C21.7107 30.9176 22.2878 32.2053 22.2878 34.3534ZM21.1015 52.7298V41.5886C22.3466 41.0328 24.8366 39.2962 24.8366 34.3481C24.8366 29.2931 22.1595 27.5031 21.1015 26.9901V16.4046C21.1015 15.7099 20.5298 15.1489 19.8244 15.1489H5.30076V2.35649H49.6198V26.8137C45.5107 27.3802 42.4382 30.7679 42.4382 34.7916C42.4382 38.8153 45.5107 42.2031 49.6198 42.7695V67.6435H5.30076V53.9855H19.8244C20.5244 53.9855 21.0855 53.4351 21.1015 52.7298ZM10.8366 42.6573V26.055C10.8366 25.3603 10.2649 24.7992 9.55954 24.7992H5.30076V17.6603H18.5473V51.474H5.30076V43.913H9.55954C10.2595 43.913 10.8206 43.3626 10.8366 42.6573ZM5.30076 41.4015V27.3107H8.28244V41.4015H5.30076ZM2.91221 32.1786V36.5817H2.5542V32.1786H2.91221Z" fill="#FF682B"/>
</svg>