<svg width="30" height="30" viewBox="0 0 30 30" fill="none" xmlns="http://www.w3.org/2000/svg">
<path d="M15 1.66667C17.6371 1.66667 20.215 2.44865 22.4076 3.91374C24.6003 5.37882 26.3092 7.4612 27.3184 9.89755C28.3276 12.3339 28.5916 15.0148 28.0771 17.6012C27.5627 20.1876 26.2928 22.5634 24.4281 24.4281C22.5634 26.2928 20.1876 27.5627 17.6012 28.0771C15.0148 28.5916 12.3339 28.3276 9.89756 27.3184C7.46121 26.3092 5.37883 24.6003 3.91374 22.4076C2.44866 20.2149 1.66667 17.6371 1.66667 15C1.67064 11.465 3.07668 8.07592 5.5763 5.57629C8.07592 3.07667 11.465 1.67064 15 1.66667ZM15 0C12.0333 0 9.13319 0.879735 6.66645 2.52796C4.19972 4.17618 2.27713 6.51886 1.14181 9.25975C0.00649929 12.0006 -0.290551 15.0166 0.288227 17.9264C0.867006 20.8361 2.29562 23.5088 4.3934 25.6066C6.49119 27.7044 9.16394 29.133 12.0736 29.7118C14.9834 30.2906 17.9994 29.9935 20.7403 28.8582C23.4811 27.7229 25.8238 25.8003 27.472 23.3336C29.1203 20.8668 30 17.9667 30 15C30 13.0302 29.612 11.0796 28.8582 9.25975C28.1044 7.43986 26.9995 5.78628 25.6066 4.3934C24.2137 3.00052 22.5601 1.89563 20.7403 1.14181C18.9204 0.387986 16.9698 0 15 0Z" fill="#FF682B"/>
<path d="M12.1867 22.3083C12.0018 22.3112 11.8212 22.2526 11.6733 22.1416L6.93999 18.4416C6.85019 18.3756 6.77454 18.2923 6.71752 18.1965C6.6605 18.1007 6.62327 17.9945 6.60804 17.8841C6.59281 17.7737 6.59988 17.6613 6.62883 17.5537C6.65779 17.4461 6.70804 17.3453 6.77661 17.2575C6.84519 17.1696 6.93069 17.0964 7.02806 17.0422C7.12544 16.9879 7.2327 16.9538 7.3435 16.9417C7.45431 16.9297 7.5664 16.94 7.67315 16.972C7.7799 17.0041 7.87914 17.0572 7.96499 17.1283L12.0633 20.325L21.455 9.05996C21.5251 8.97591 21.6111 8.90651 21.7081 8.8557C21.8051 8.8049 21.9111 8.77369 22.0202 8.76386C22.1292 8.75404 22.2391 8.76578 22.3436 8.79843C22.4481 8.83107 22.5451 8.88398 22.6292 8.95413C22.7132 9.02427 22.7826 9.11029 22.8334 9.20726C22.8842 9.30423 22.9154 9.41026 22.9252 9.51929C22.9351 9.62832 22.9233 9.73822 22.8907 9.84271C22.858 9.94721 22.8051 10.0442 22.735 10.1283L12.8267 22.0133C12.748 22.1062 12.6499 22.1808 12.5394 22.2318C12.4288 22.2827 12.3084 22.3089 12.1867 22.3083Z" fill="#FF682B"/>
</svg>