<svg width="26" height="30" viewBox="0 0 26 30" fill="none" xmlns="http://www.w3.org/2000/svg">
<path d="M25.1379 4.91427H23.7042V2.89504C23.7042 2.6535 23.5079 2.45714 23.2663 2.45714H21.8327V0.437905C21.8327 0.196362 21.6364 0 21.3948 0H0.437906C0.196362 0 0 0.196362 0 0.437905V24.6461C0 24.8876 0.196362 25.084 0.437906 25.084H1.87152V27.1032C1.87152 27.3448 2.06789 27.5411 2.30943 27.5411H3.74305V29.5621C3.74305 29.8036 3.93941 30 4.18095 30H25.1379C25.3794 30 25.5758 29.8036 25.5758 29.5621V5.35218C25.5758 5.11063 25.3794 4.91427 25.1379 4.91427ZM0.875811 24.2082V0.875811H20.9569V2.89504V24.2082H2.30943H0.875811ZM2.74734 26.6653V25.084H21.3948C21.6364 25.084 21.8327 24.8876 21.8327 24.6461V3.33295H22.8284V5.3348C22.8284 5.34001 22.8267 5.34523 22.8267 5.35218V26.6653H4.18095H2.74734ZM4.61886 27.5411H23.2663C23.5079 27.5411 23.7042 27.3448 23.7042 27.1032V5.79008H24.7V29.1242H4.61886V27.5411Z" fill="#FF682B"/>
<path d="M19.5215 2.45721H2.30943C2.06788 2.45721 1.87152 2.65358 1.87152 2.89512C1.87152 3.13666 2.06788 3.33303 2.30943 3.33303H19.5215C19.7631 3.33303 19.9594 3.13666 19.9594 2.89512C19.9594 2.65358 19.7631 2.45721 19.5215 2.45721Z" fill="#FF682B"/>
<path d="M19.5215 5.2132H2.30943C2.06788 5.2132 1.87152 5.40956 1.87152 5.6511C1.87152 5.89264 2.06788 6.08901 2.30943 6.08901H19.5215C19.7631 6.08901 19.9594 5.89264 19.9594 5.6511C19.9594 5.40956 19.7631 5.2132 19.5215 5.2132Z" fill="#FF682B"/>
<path d="M19.5215 7.97095H2.30943C2.06788 7.97095 1.87152 8.16731 1.87152 8.40885C1.87152 8.6504 2.06788 8.84676 2.30943 8.84676H19.5215C19.7631 8.84676 19.9594 8.6504 19.9594 8.40885C19.9594 8.16731 19.7631 7.97095 19.5215 7.97095Z" fill="#FF682B"/>
<path d="M19.5215 10.727H2.30943C2.06788 10.727 1.87152 10.9234 1.87152 11.1649C1.87152 11.4064 2.06788 11.6028 2.30943 11.6028H19.5215C19.7631 11.6028 19.9594 11.4064 19.9594 11.1649C19.9594 10.9234 19.7631 10.727 19.5215 10.727Z" fill="#FF682B"/>
<path d="M19.5215 13.483H2.30943C2.06788 13.483 1.87152 13.6793 1.87152 13.9209C1.87152 14.1624 2.06788 14.3588 2.30943 14.3588H19.5215C19.7631 14.3588 19.9594 14.1624 19.9594 13.9209C19.9594 13.6793 19.7631 13.483 19.5215 13.483Z" fill="#FF682B"/>
<path d="M19.5215 16.239H2.30943C2.06788 16.239 1.87152 16.4353 1.87152 16.6769C1.87152 16.9184 2.06788 17.1148 2.30943 17.1148H19.5215C19.7631 17.1148 19.9594 16.9184 19.9594 16.6769C19.9594 16.4353 19.7631 16.239 19.5215 16.239Z" fill="#FF682B"/>
<path d="M19.5215 18.9968H2.30943C2.06788 18.9968 1.87152 19.1931 1.87152 19.4347C1.87152 19.6762 2.06788 19.8726 2.30943 19.8726H19.5215C19.7631 19.8726 19.9594 19.6762 19.9594 19.4347C19.9594 19.1931 19.7631 18.9968 19.5215 18.9968Z" fill="#FF682B"/>
</svg>