<svg width="28" height="30" viewBox="0 0 28 30" fill="none" xmlns="http://www.w3.org/2000/svg">
<path d="M27.5 2H24V0.5C24 0.2235 23.7765 0 23.5 0H20C19.7235 0 19.5 0.2235 19.5 0.5V2H8.5V0.5C8.5 0.2235 8.2765 0 8 0H4.5C4.2235 0 4 0.2235 4 0.5V2H0.5C0.2235 2 0 2.2235 0 2.5V8V29.5C0 29.7765 0.2235 30 0.5 30H27.5C27.7765 30 28 29.7765 28 29.5V8V2.5C28 2.2235 27.7765 2 27.5 2ZM20.5 1H23V2.5V4H20.5V2.5V1ZM5 1H7.5V2.5V4H5V2.5V1ZM1 3H4V4.5C4 4.7765 4.2235 5 4.5 5H8C8.2765 5 8.5 4.7765 8.5 4.5V3H19.5V4.5C19.5 4.7765 19.7235 5 20 5H23.5C23.7765 5 24 4.7765 24 4.5V3H27V7.5H1V3ZM1 29V8.5H27V29H1Z" fill="#FF682B"/>
<path d="M18 11.5H14.5H13.5H10H9H4.5V16V17V20.5V21.5V26H9H10H13.5H14.5H18H19H23.5V21.5V20.5V17V16V11.5H19H18ZM14.5 12.5H18V16H14.5V12.5ZM18 20.5H14.5V17H18V20.5ZM10 17H13.5V20.5H10V17ZM10 12.5H13.5V16H10V12.5ZM5.5 12.5H9V16H5.5V12.5ZM5.5 17H9V20.5H5.5V17ZM9 25H5.5V21.5H9V25ZM13.5 25H10V21.5H13.5V25ZM18 25H14.5V21.5H18V25ZM22.5 25H19V21.5H22.5V25ZM22.5 20.5H19V17H22.5V20.5ZM22.5 12.5V16H19V12.5H22.5Z" fill="#FF682B"/>
</svg>