<svg width="30" height="30" viewBox="0 0 30 30" fill="none" xmlns="http://www.w3.org/2000/svg">
<path d="M15 1.66667C17.6371 1.66667 20.215 2.44865 22.4076 3.91374C24.6003 5.37882 26.3092 7.4612 27.3184 9.89755C28.3276 12.3339 28.5916 15.0148 28.0771 17.6012C27.5627 20.1876 26.2928 22.5634 24.4281 24.4281C22.5634 26.2928 20.1876 27.5627 17.6012 28.0771C15.0148 28.5916 12.3339 28.3276 9.89756 27.3184C7.46121 26.3092 5.37883 24.6003 3.91374 22.4076C2.44866 20.2149 1.66667 17.6371 1.66667 15C1.67064 11.465 3.07668 8.07592 5.5763 5.57629C8.07592 3.07667 11.465 1.67064 15 1.66667ZM15 0C12.0333 0 9.13319 0.879735 6.66645 2.52796C4.19972 4.17618 2.27713 6.51886 1.14181 9.25975C0.00649929 12.0006 -0.290551 15.0166 0.288227 17.9264C0.867006 20.8361 2.29562 23.5088 4.3934 25.6066C6.49119 27.7044 9.16394 29.133 12.0736 29.7118C14.9834 30.2906 17.9994 29.9935 20.7403 28.8582C23.4811 27.7229 25.8238 25.8003 27.472 23.3336C29.1203 20.8668 30 17.9667 30 15C30 11.0218 28.4196 7.20644 25.6066 4.3934C22.7936 1.58035 18.9783 0 15 0Z" fill="#FF682B"/>
<path d="M21.5 22.5832C21.3903 22.5832 21.2818 22.5616 21.1805 22.5195C21.0793 22.4775 20.9874 22.4159 20.91 22.3382L7.87496 9.30824C7.71804 9.15198 7.62962 8.93979 7.62915 8.71834C7.62868 8.49689 7.7162 8.28432 7.87246 8.1274C8.02872 7.97048 8.24091 7.88206 8.46236 7.88159C8.68381 7.88112 8.89637 7.96865 9.05329 8.1249L22.09 21.1599C22.2068 21.2764 22.2864 21.4251 22.3187 21.5869C22.351 21.7488 22.3345 21.9165 22.2713 22.069C22.2081 22.2215 22.101 22.3517 21.9637 22.4433C21.8264 22.5348 21.665 22.5835 21.5 22.5832Z" fill="#FF682B"/>
<path d="M8.33336 22.4515C8.16833 22.4518 8.00692 22.4031 7.8696 22.3116C7.73229 22.22 7.62525 22.0898 7.56205 21.9373C7.49886 21.7848 7.48235 21.6171 7.51463 21.4552C7.54691 21.2934 7.62652 21.1448 7.74336 21.0282L20.78 7.9932C20.9372 7.84141 21.1477 7.75741 21.3662 7.75931C21.5847 7.76121 21.7937 7.84885 21.9482 8.00335C22.1027 8.15786 22.1904 8.36687 22.1923 8.58537C22.1942 8.80387 22.1102 9.01437 21.9584 9.17154L8.92336 22.2065C8.84596 22.2842 8.75401 22.3458 8.65277 22.3878C8.55153 22.4299 8.44298 22.4515 8.33336 22.4515Z" fill="#FF682B"/>
</svg>