<svg width="21" height="14" viewBox="0 0 21 14" fill="none" xmlns="http://www.w3.org/2000/svg">
<path d="M10.125 3.3125C11.2266 3.3125 12.1523 3.69922 12.9023 4.47266C13.6758 5.22266 14.0625 6.14844 14.0625 7.25C14.0625 8.32812 13.6758 9.25391 12.9023 10.0273C12.1523 10.7773 11.2266 11.1523 10.125 11.1523C9.04688 11.1523 8.12109 10.7773 7.34766 10.0273C6.59766 9.25391 6.22266 8.32812 6.22266 7.25C6.22266 6.875 6.26953 6.51172 6.36328 6.16016C6.66797 6.32422 6.98438 6.40625 7.3125 6.40625C7.85156 6.40625 8.30859 6.21875 8.68359 5.84375C9.08203 5.44531 9.28125 4.97656 9.28125 4.4375C9.28125 4.10938 9.19922 3.79297 9.03516 3.48828C9.38672 3.37109 9.75 3.3125 10.125 3.3125ZM20.1445 6.72266C20.2148 6.88672 20.25 7.0625 20.25 7.25C20.25 7.4375 20.2148 7.61328 20.1445 7.77734C19.1602 9.65234 17.7773 11.1641 15.9961 12.3125C14.2148 13.4375 12.2578 14 10.125 14C8.71875 14 7.35938 13.7422 6.04688 13.2266C4.75781 12.6875 3.60938 11.9609 2.60156 11.0469C1.59375 10.1094 0.761719 9.01953 0.105469 7.77734C0.0351562 7.61328 0 7.4375 0 7.25C0 7.0625 0.0351562 6.88672 0.105469 6.72266C1.08984 4.84766 2.47266 3.34766 4.25391 2.22266C6.03516 1.07422 7.99219 0.5 10.125 0.5C12.2578 0.5 14.2148 1.07422 15.9961 2.22266C17.7773 3.34766 19.1602 4.84766 20.1445 6.72266ZM10.125 12.3125C11.8594 12.3125 13.4648 11.8672 14.9414 10.9766C16.4414 10.0625 17.625 8.82031 18.4922 7.25C17.625 5.67969 16.4414 4.44922 14.9414 3.55859C13.4648 2.64453 11.8594 2.1875 10.125 2.1875C8.39062 2.1875 6.77344 2.64453 5.27344 3.55859C3.79688 4.44922 2.625 5.67969 1.75781 7.25C2.32031 8.28125 3.03516 9.18359 3.90234 9.95703C4.76953 10.707 5.73047 11.293 6.78516 11.7148C7.86328 12.1133 8.97656 12.3125 10.125 12.3125Z" fill="#FF682B"/>
</svg>