<svg width="30" height="30" viewBox="0 0 30 30" fill="none" xmlns="http://www.w3.org/2000/svg">
<path d="M12.754 10.5251H14.236V17.0118C14.236 17.0961 14.3082 17.1652 14.3964 17.1652H15.5996C15.6878 17.1652 15.76 17.0961 15.76 17.0118V10.5251H17.246C17.3803 10.5251 17.4545 10.3775 17.3723 10.2778L15.1263 7.55886C15.1113 7.54052 15.0922 7.52569 15.0703 7.5155C15.0484 7.5053 15.0243 7.5 15 7.5C14.9757 7.5 14.9516 7.5053 14.9297 7.5155C14.9078 7.52569 14.8887 7.54052 14.8737 7.55886L12.6277 10.2758C12.5455 10.3775 12.6197 10.5251 12.754 10.5251ZM22.3396 16.4365H21.1364C21.0481 16.4365 20.9759 16.5056 20.9759 16.5899V19.5428H9.02406V16.5899C9.02406 16.5056 8.95187 16.4365 8.86364 16.4365H7.66043C7.57219 16.4365 7.5 16.5056 7.5 16.5899V20.3864C7.5 20.7258 7.78676 21 8.14171 21H21.8583C22.2132 21 22.5 20.7258 22.5 20.3864V16.5899C22.5 16.5056 22.4278 16.4365 22.3396 16.4365Z" fill="#FF682B"/>
<path d="M15 1.66667C17.6371 1.66667 20.215 2.44865 22.4076 3.91374C24.6003 5.37882 26.3092 7.4612 27.3184 9.89755C28.3276 12.3339 28.5916 15.0148 28.0771 17.6012C27.5627 20.1876 26.2928 22.5634 24.4281 24.4281C22.5634 26.2928 20.1876 27.5627 17.6012 28.0771C15.0148 28.5916 12.3339 28.3276 9.89756 27.3184C7.46121 26.3092 5.37883 24.6003 3.91374 22.4076C2.44866 20.2149 1.66667 17.6371 1.66667 15C1.67064 11.465 3.07668 8.07592 5.5763 5.57629C8.07593 3.07667 11.465 1.67064 15 1.66667V1.66667ZM15 0C12.0333 0 9.13319 0.879735 6.66645 2.52796C4.19972 4.17618 2.27713 6.51886 1.14181 9.25975C0.00649929 12.0006 -0.290551 15.0166 0.288227 17.9264C0.867006 20.8361 2.29562 23.5088 4.3934 25.6066C6.49119 27.7044 9.16394 29.133 12.0736 29.7118C14.9834 30.2906 17.9994 29.9935 20.7403 28.8582C23.4811 27.7229 25.8238 25.8003 27.472 23.3336C29.1203 20.8668 30 17.9667 30 15C30 11.0218 28.4196 7.20644 25.6066 4.3934C22.7936 1.58035 18.9783 0 15 0V0Z" fill="#FF682B"/>
</svg>
