<svg width="30" height="30" viewBox="0 0 30 30" fill="none" xmlns="http://www.w3.org/2000/svg">
<path d="M15 1.66667C17.6371 1.66667 20.215 2.44865 22.4076 3.91374C24.6003 5.37882 26.3092 7.4612 27.3184 9.89755C28.3276 12.3339 28.5916 15.0148 28.0771 17.6012C27.5627 20.1876 26.2928 22.5634 24.4281 24.4281C22.5634 26.2928 20.1876 27.5627 17.6012 28.0771C15.0148 28.5916 12.3339 28.3276 9.89756 27.3184C7.46121 26.3092 5.37883 24.6003 3.91374 22.4076C2.44866 20.2149 1.66667 17.6371 1.66667 15C1.67064 11.465 3.07668 8.07592 5.5763 5.57629C8.07592 3.07667 11.465 1.67064 15 1.66667ZM15 0C12.0333 0 9.13319 0.879735 6.66645 2.52796C4.19972 4.17618 2.27713 6.51886 1.14181 9.25975C0.00649929 12.0006 -0.290551 15.0166 0.288227 17.9264C0.867006 20.8361 2.29562 23.5088 4.3934 25.6066C6.49119 27.7044 9.16394 29.133 12.0736 29.7118C14.9834 30.2906 17.9994 29.9935 20.7403 28.8582C23.4811 27.7229 25.8238 25.8003 27.472 23.3336C29.1203 20.8668 30 17.9667 30 15C30 13.0302 29.612 11.0796 28.8582 9.25975C28.1044 7.43986 26.9995 5.78628 25.6066 4.3934C24.2137 3.00052 22.5601 1.89563 20.7403 1.14181C18.9204 0.387986 16.9698 0 15 0Z" fill="#FF682B"/>
<path d="M15.32 24.17H15.1867C13.6855 24.1451 12.2148 23.7425 10.9101 22.9994C9.6055 22.2564 8.50897 21.1968 7.72168 19.9184C7.60587 19.7301 7.5696 19.5035 7.62086 19.2884C7.67212 19.0734 7.80671 18.8875 7.99501 18.7717C8.18332 18.6559 8.40991 18.6196 8.62496 18.6709C8.84 18.7221 9.02587 18.8567 9.14168 19.045C9.88109 20.2505 10.9568 21.2134 12.2365 21.8153C13.5161 22.4173 14.9438 22.6319 16.3439 22.4329C17.7439 22.2338 19.0553 21.6297 20.1164 20.695C21.1776 19.7602 21.9423 18.5356 22.3164 17.1719C22.6905 15.8081 22.6577 14.3647 22.2221 13.0193C21.7864 11.674 20.9669 10.4854 19.8644 9.59976C18.7619 8.71417 17.4245 8.17026 16.0168 8.03498C14.6092 7.8997 13.1927 8.17895 11.9417 8.83836C11.8447 8.89226 11.738 8.92626 11.6277 8.93836C11.5174 8.95046 11.4059 8.94043 11.2995 8.90884C11.1932 8.87726 11.0942 8.82476 11.0084 8.75443C10.9227 8.68409 10.8518 8.59734 10.8 8.49926C10.7481 8.40117 10.7164 8.29373 10.7067 8.18322C10.6969 8.07272 10.7094 7.96139 10.7432 7.85575C10.777 7.7501 10.8316 7.65228 10.9038 7.56802C10.9759 7.48375 11.0642 7.41474 11.1633 7.36503C13.0613 6.36509 15.256 6.08277 17.3452 6.56984C19.4344 7.0569 21.2781 8.2807 22.5381 10.0169C23.7982 11.753 24.3902 13.8852 24.2057 16.0225C24.0211 18.1597 23.0724 20.1589 21.5333 21.6534C19.872 23.2739 17.6409 24.1776 15.32 24.17Z" fill="#FF682B"/>
<path d="M8.18666 12.2934C8.04285 12.2933 7.90151 12.256 7.77639 12.1851C7.65127 12.1142 7.54663 12.0121 7.47264 11.8888C7.39865 11.7655 7.35783 11.6251 7.35415 11.4814C7.35048 11.3376 7.38407 11.1953 7.45166 11.0684C8.21174 9.64733 9.34004 8.45686 10.7183 7.62172C10.9075 7.50746 11.1343 7.47303 11.3489 7.52601C11.5635 7.57899 11.7482 7.71503 11.8625 7.90422C11.9768 8.09341 12.0112 8.32024 11.9582 8.53481C11.9052 8.74939 11.7692 8.93412 11.58 9.04839C10.4573 9.72713 9.53799 10.6954 8.91833 11.8517C8.84761 11.9845 8.74224 12.0957 8.61342 12.1735C8.4846 12.2513 8.33713 12.2927 8.18666 12.2934Z" fill="#FF682B"/>
<path d="M7.07331 14.0884C6.92801 14.0873 6.78552 14.0482 6.65998 13.975C6.55825 13.917 6.46991 13.8382 6.4007 13.7437C6.33149 13.6492 6.28297 13.5412 6.25831 13.4267L5.51998 10.0084C5.47334 9.79222 5.51448 9.56639 5.63435 9.38058C5.75422 9.19476 5.94299 9.06417 6.15914 9.01753C6.37529 8.9709 6.60112 9.01204 6.78693 9.13191C6.97275 9.25178 7.10334 9.44055 7.14998 9.6567L7.68664 12.17L10.07 11.375C10.2797 11.3052 10.5086 11.3215 10.7063 11.4205C10.904 11.5194 11.0543 11.6928 11.1241 11.9025C11.194 12.1123 11.1776 12.3412 11.0787 12.5389C10.9798 12.7366 10.8064 12.8869 10.5966 12.9567L7.33664 14.045C7.25171 14.0733 7.16283 14.0879 7.07331 14.0884Z" fill="#FF682B"/>
</svg>