<svg width="30" height="30" viewBox="0 0 30 30" fill="none" xmlns="http://www.w3.org/2000/svg">
<path d="M15 1.66667C17.6371 1.66667 20.215 2.44865 22.4076 3.91374C24.6003 5.37882 26.3092 7.4612 27.3184 9.89755C28.3276 12.3339 28.5916 15.0148 28.0771 17.6012C27.5627 20.1876 26.2928 22.5634 24.4281 24.4281C22.5634 26.2928 20.1876 27.5627 17.6012 28.0771C15.0148 28.5916 12.3339 28.3276 9.89756 27.3184C7.46121 26.3092 5.37883 24.6003 3.91374 22.4076C2.44866 20.2149 1.66667 17.6371 1.66667 15C1.67064 11.465 3.07668 8.07592 5.5763 5.57629C8.07592 3.07667 11.465 1.67064 15 1.66667ZM15 0C12.0333 0 9.13319 0.879735 6.66645 2.52796C4.19972 4.17618 2.27713 6.51886 1.14181 9.25975C0.00649929 12.0006 -0.290551 15.0166 0.288227 17.9264C0.867006 20.8361 2.29562 23.5088 4.3934 25.6066C6.49119 27.7044 9.16394 29.133 12.0736 29.7118C14.9834 30.2906 17.9994 29.9935 20.7403 28.8582C23.4811 27.7229 25.8238 25.8003 27.472 23.3336C29.1203 20.8668 30 17.9667 30 15C30 13.0302 29.612 11.0796 28.8582 9.25975C28.1044 7.43986 26.9995 5.78628 25.6066 4.3934C24.2137 3.00052 22.5601 1.89563 20.7403 1.14181C18.9204 0.387986 16.9698 0 15 0Z" fill="#FF682B"/>
<path d="M15.0933 5.64166C13.2291 5.64166 11.4067 6.1944 9.85664 7.23C8.30654 8.26559 7.0983 9.73754 6.38467 11.4597C5.67104 13.182 5.48407 15.0771 5.8474 16.9055C6.21072 18.734 7.10803 20.4137 8.42587 21.7322C9.74371 23.0508 11.4229 23.949 13.2512 24.3133C15.0794 24.6775 16.9747 24.4916 18.6973 23.7789C20.4198 23.0661 21.8924 21.8587 22.9288 20.3091C23.9653 18.7596 24.519 16.9375 24.52 15.0733C24.5186 12.5732 23.5252 10.1757 21.7578 8.40736C19.9904 6.63901 17.5935 5.64431 15.0933 5.64166ZM22.8433 15.0683C22.8433 16.6011 22.3888 18.0995 21.5372 19.374C20.6856 20.6485 19.4752 21.6418 18.0591 22.2284C16.643 22.815 15.0847 22.9684 13.5813 22.6694C12.078 22.3704 10.6971 21.6323 9.61322 20.5484C8.52936 19.4645 7.79124 18.0836 7.49221 16.5803C7.19317 15.0769 7.34665 13.5187 7.93323 12.1025C8.51981 10.6864 9.51314 9.47602 10.7876 8.62444C12.0621 7.77286 13.5605 7.31833 15.0933 7.31833C17.1489 7.32054 19.1196 8.13845 20.5727 9.59246C22.0258 11.0465 22.8424 13.0177 22.8433 15.0733V15.0683Z" fill="#FF682B"/>
</svg>