<svg width="119" height="119" viewBox="0 0 119 119" fill="none" xmlns="http://www.w3.org/2000/svg">
<path d="M59.5 6.61111C69.9604 6.61111 80.186 9.71299 88.8835 15.5245C97.581 21.336 104.36 29.5961 108.363 39.2603C112.366 48.9245 113.413 59.5587 111.373 69.8181C109.332 80.0775 104.295 89.5014 96.8981 96.8981C89.5015 104.295 80.0776 109.332 69.8181 111.373C59.5587 113.413 48.9245 112.366 39.2603 108.363C29.5961 104.36 21.336 97.581 15.5245 88.8835C9.71302 80.1859 6.61114 69.9604 6.61114 59.5C6.62688 45.4778 12.2041 32.0345 22.1193 22.1193C32.0345 12.2041 45.4778 6.62686 59.5 6.61111ZM59.5 0C47.732 0 36.2283 3.48961 26.4436 10.0276C16.6589 16.5655 9.03261 25.8581 4.52919 36.7303C0.0257805 47.6025 -1.15252 59.566 1.1433 71.1079C3.43912 82.6497 9.10595 93.2516 17.4272 101.573C25.7484 109.894 36.3503 115.561 47.8921 117.857C59.434 120.153 71.3975 118.974 82.2697 114.471C93.1419 109.967 102.435 102.341 108.972 92.5564C115.51 82.7717 119 71.268 119 59.5C119 51.6863 117.461 43.9492 114.471 36.7303C111.481 29.5115 107.098 22.9522 101.573 17.4271C96.0478 11.9021 89.4885 7.51932 82.2697 4.52917C75.0508 1.53901 67.3137 0 59.5 0Z" fill="#52C41A"/>
<path d="M48.3387 88.4896C47.6054 88.5012 46.8891 88.2686 46.3025 87.8285L27.527 73.1518C27.1707 72.8899 26.8707 72.5593 26.6445 72.1794C26.4183 71.7995 26.2706 71.3781 26.2102 70.9402C26.1498 70.5022 26.1778 70.0566 26.2927 69.6296C26.4075 69.2027 26.6069 68.8032 26.8789 68.4546C27.1509 68.1061 27.4901 67.8157 27.8763 67.6006C28.2626 67.3854 28.688 67.25 29.1276 67.2022C29.5671 67.1544 30.0117 67.1953 30.4352 67.3224C30.8586 67.4495 31.2522 67.6603 31.5928 67.9422L47.8495 80.6224L85.1031 35.9379C85.3814 35.6045 85.7226 35.3292 86.1072 35.1276C86.4919 34.9261 86.9124 34.8023 87.3449 34.7634C87.7774 34.7244 88.2134 34.771 88.6278 34.9004C89.0423 35.0299 89.4273 35.2398 89.7606 35.5181C90.094 35.7963 90.3693 36.1375 90.5709 36.5222C90.7724 36.9068 90.8962 37.3274 90.9351 37.7599C90.9741 38.1924 90.9275 38.6283 90.798 39.0428C90.6686 39.4573 90.4587 39.8422 90.1804 40.1756L50.8774 87.3194C50.5654 87.6881 50.1764 87.9839 49.7378 88.1861C49.2992 88.3882 48.8217 88.4918 48.3387 88.4896Z" fill="#52C41A"/>
</svg>