<svg width="119" height="119" viewBox="0 0 119 119" fill="none" xmlns="http://www.w3.org/2000/svg">
<path d="M50.5909 41.7496H56.4693V67.48C56.4693 67.8146 56.7557 68.0884 57.1057 68.0884H61.8784C62.2284 68.0884 62.5148 67.8146 62.5148 67.48V41.7496H68.4091C68.942 41.7496 69.2364 41.164 68.9102 40.7685L60.0011 29.9835C59.9416 29.9107 59.8655 29.8519 59.7787 29.8115C59.6919 29.771 59.5966 29.75 59.5 29.75C59.4034 29.75 59.3081 29.771 59.2213 29.8115C59.1344 29.8519 59.0584 29.9107 58.9989 29.9835L50.0898 40.7609C49.7636 41.164 50.058 41.7496 50.5909 41.7496ZM88.6136 65.1982H83.8409C83.4909 65.1982 83.2045 65.472 83.2045 65.8067V77.5196H35.7955V65.8067C35.7955 65.472 35.5091 65.1982 35.1591 65.1982H30.3864C30.0364 65.1982 29.75 65.472 29.75 65.8067V80.8661C29.75 82.2124 30.8875 83.3 32.2955 83.3H86.7045C88.1125 83.3 89.25 82.2124 89.25 80.8661V65.8067C89.25 65.472 88.9636 65.1982 88.6136 65.1982Z" fill="#1890FF"/>
<path d="M59.5 6.61111C69.9605 6.61111 80.186 9.71299 88.8835 15.5245C97.581 21.336 104.36 29.5961 108.363 39.2603C112.366 48.9245 113.413 59.5587 111.373 69.8181C109.332 80.0775 104.295 89.5014 96.8981 96.8981C89.5015 104.295 80.0776 109.332 69.8181 111.373C59.5587 113.413 48.9245 112.366 39.2603 108.363C29.5961 104.36 21.336 97.581 15.5245 88.8835C9.71302 80.1859 6.61114 69.9604 6.61114 59.5C6.62689 45.4778 12.2042 32.0345 22.1193 22.1193C32.0345 12.2041 45.4779 6.62686 59.5 6.61111ZM59.5 0C47.732 0 36.2283 3.48961 26.4436 10.0276C16.6589 16.5655 9.03261 25.8581 4.52919 36.7303C0.0257805 47.6025 -1.15252 59.566 1.1433 71.1079C3.43912 82.6497 9.10595 93.2516 17.4272 101.573C25.7484 109.894 36.3503 115.561 47.8921 117.857C59.434 120.153 71.3975 118.974 82.2697 114.471C93.1419 109.967 102.435 102.341 108.972 92.5564C115.51 82.7717 119 71.268 119 59.5C119 43.7196 112.731 28.5856 101.573 17.4271C90.4145 6.26873 75.2804 0 59.5 0Z" fill="#1890FF"/>
</svg>