<svg width="119" height="119" viewBox="0 0 119 119" fill="none" xmlns="http://www.w3.org/2000/svg">
<path d="M59.5 6.61111C69.9604 6.61111 80.186 9.71299 88.8835 15.5245C97.581 21.336 104.36 29.5961 108.363 39.2603C112.366 48.9245 113.413 59.5587 111.373 69.8181C109.332 80.0775 104.295 89.5014 96.8981 96.8981C89.5015 104.295 80.0776 109.332 69.8181 111.373C59.5587 113.413 48.9245 112.366 39.2603 108.363C29.5961 104.36 21.336 97.581 15.5245 88.8835C9.71302 80.1859 6.61114 69.9604 6.61114 59.5C6.62688 45.4778 12.2041 32.0345 22.1193 22.1193C32.0345 12.2041 45.4778 6.62686 59.5 6.61111ZM59.5 0C47.732 0 36.2283 3.48961 26.4436 10.0276C16.6589 16.5655 9.03261 25.8581 4.52919 36.7303C0.0257805 47.6025 -1.15252 59.566 1.1433 71.1079C3.43912 82.6497 9.10595 93.2516 17.4272 101.573C25.7484 109.894 36.3503 115.561 47.8921 117.857C59.434 120.153 71.3975 118.974 82.2697 114.471C93.1419 109.967 102.435 102.341 108.972 92.5564C115.51 82.7717 119 71.268 119 59.5C119 43.7196 112.731 28.5856 101.573 17.4271C90.4145 6.26873 75.2804 0 59.5 0Z" fill="#F5222D"/>
<path d="M85.2836 89.5805C84.8487 89.5805 84.4182 89.4946 84.0166 89.3278C83.615 89.161 83.2502 88.9167 82.9432 88.6087L31.2377 36.9231C30.6153 36.3032 30.2646 35.4615 30.2627 34.5831C30.2608 33.7047 30.608 32.8615 31.2278 32.2391C31.8476 31.6166 32.6893 31.2659 33.5678 31.264C34.4462 31.2622 35.2894 31.6094 35.9118 32.2292L87.6239 83.9347C88.0874 84.397 88.4032 84.9865 88.5312 85.6285C88.6592 86.2705 88.5938 86.936 88.3431 87.5408C88.0924 88.1455 87.6678 88.6622 87.1231 89.0253C86.5784 89.3885 85.9382 89.5817 85.2836 89.5805Z" fill="#F5222D"/>
<path d="M33.0556 89.0581C32.401 89.0593 31.7607 88.866 31.216 88.5029C30.6714 88.1398 30.2468 87.6231 29.9961 87.0183C29.7454 86.4136 29.6799 85.748 29.808 85.106C29.936 84.464 30.2518 83.8745 30.7153 83.4122L82.4274 31.7067C83.0508 31.1046 83.8858 30.7714 84.7525 30.7789C85.6192 30.7865 86.4483 31.1341 87.0612 31.747C87.6741 32.3599 88.0217 33.1889 88.0292 34.0556C88.0368 34.9223 87.7036 35.7573 87.1014 36.3808L35.3959 88.0863C35.0889 88.3942 34.7242 88.6386 34.3226 88.8053C33.921 88.9721 33.4905 89.058 33.0556 89.0581Z" fill="#F5222D"/>
</svg>