<svg width="119" height="119" viewBox="0 0 119 119" fill="none" xmlns="http://www.w3.org/2000/svg">
<path d="M59.5 6.61111C69.9604 6.61111 80.186 9.71299 88.8835 15.5245C97.581 21.336 104.36 29.5961 108.363 39.2603C112.366 48.9245 113.413 59.5587 111.373 69.8181C109.332 80.0775 104.295 89.5014 96.8981 96.8981C89.5015 104.295 80.0776 109.332 69.8181 111.373C59.5587 113.413 48.9245 112.366 39.2603 108.363C29.5961 104.36 21.336 97.581 15.5245 88.8835C9.71301 80.1859 6.61114 69.9604 6.61114 59.5C6.62688 45.4778 12.2041 32.0345 22.1193 22.1193C32.0345 12.2041 45.4778 6.62686 59.5 6.61111ZM59.5 0C47.732 0 36.2283 3.48961 26.4436 10.0276C16.6589 16.5655 9.03261 25.8581 4.52919 36.7303C0.0257805 47.6025 -1.15252 59.566 1.1433 71.1079C3.43912 82.6497 9.10595 93.2516 17.4272 101.573C25.7484 109.894 36.3503 115.561 47.8921 117.857C59.434 120.153 71.3975 118.974 82.2697 114.471C93.1419 109.967 102.435 102.341 108.972 92.5564C115.51 82.7717 119 71.268 119 59.5C119 51.6863 117.461 43.9492 114.471 36.7303C111.481 29.5115 107.098 22.9522 101.573 17.4271C96.0478 11.9021 89.4885 7.51932 82.2697 4.52917C75.0508 1.53901 67.3137 0 59.5 0Z" fill="#FFBF00"/>
<path d="M60.7697 95.8742H60.2408C54.2861 95.7751 48.4522 94.1782 43.2772 91.2308C38.1021 88.2834 33.7526 84.0803 30.6297 79.0092C30.1703 78.2623 30.0264 77.3635 30.2298 76.5105C30.4331 75.6575 30.967 74.9202 31.7139 74.4608C32.4608 74.0014 33.3597 73.8576 34.2127 74.0609C35.0657 74.2642 35.803 74.7981 36.2623 75.545C39.1953 80.3266 43.4624 84.1463 48.5383 86.5339C53.6142 88.9216 59.2775 89.773 64.8311 88.9834C70.3847 88.1938 75.5862 85.7976 79.7955 82.0898C84.0047 78.382 87.0381 73.5244 88.5221 68.1148C90.0061 62.7052 89.876 56.9798 88.1479 51.6432C86.4198 46.3065 83.1691 41.5917 78.7958 38.0788C74.4225 34.566 69.1175 32.4085 63.5338 31.8718C57.95 31.3352 52.3313 32.4429 47.369 35.0586C46.9844 35.2724 46.561 35.4072 46.1236 35.4552C45.6862 35.5032 45.2436 35.4634 44.8218 35.3381C44.4 35.2129 44.0074 35.0046 43.6672 34.7256C43.3269 34.4466 43.0457 34.1025 42.8402 33.7135C42.6346 33.3244 42.5089 32.8982 42.4702 32.4599C42.4315 32.0215 42.4808 31.5799 42.615 31.1609C42.7493 30.7418 42.9658 30.3538 43.252 30.0196C43.5382 29.6853 43.8882 29.4116 44.2816 29.2144C51.8101 25.2479 60.5159 24.1281 68.8031 26.0601C77.0903 27.9921 84.4034 32.8465 89.4016 39.7333C94.3998 46.6201 96.7481 55.0777 96.0161 63.5556C95.284 72.0334 91.5207 79.9633 85.4159 85.8914C78.8259 92.3197 69.9758 95.9044 60.7697 95.8742Z" fill="#FFBF00"/>
<path d="M32.4723 48.7638C31.9018 48.7634 31.3412 48.6154 30.8449 48.3342C30.3486 48.053 29.9335 47.6481 29.64 47.159C29.3465 46.6698 29.1846 46.113 29.17 45.5428C29.1554 44.9725 29.2887 44.4082 29.5568 43.9047C32.5718 38.2678 37.0474 33.5456 42.5146 30.2329C43.265 29.7796 44.1648 29.6431 45.0159 29.8532C45.8671 30.0634 46.5999 30.603 47.0531 31.3535C47.5063 32.1039 47.6429 33.0037 47.4328 33.8548C47.2226 34.706 46.683 35.4388 45.9325 35.892C41.4794 38.5843 37.8326 42.4252 35.3746 47.0119C35.0941 47.5387 34.6761 47.9798 34.1651 48.2882C33.6541 48.5967 33.0692 48.761 32.4723 48.7638Z" fill="#FFBF00"/>
<path d="M28.0563 55.8834C27.4799 55.8791 26.9147 55.7241 26.4167 55.4338C26.0132 55.2036 25.6628 54.8909 25.3882 54.5161C25.1137 54.1414 24.9212 53.7129 24.8234 53.2588L21.8947 39.6994C21.7097 38.842 21.8729 37.9462 22.3484 37.2092C22.8239 36.4721 23.5727 35.9541 24.4301 35.7691C25.2875 35.5841 26.1832 35.7473 26.9203 36.2228C27.6574 36.6983 28.1754 37.4471 28.3604 38.3045L30.4892 48.274L39.943 45.1205C40.775 44.8435 41.683 44.9083 42.4672 45.3007C43.2513 45.6931 43.8475 46.381 44.1246 47.2129C44.4016 48.0449 44.3368 48.9529 43.9444 49.737C43.552 50.5212 42.8641 51.1174 42.0321 51.3945L29.1008 55.7115C28.7639 55.8237 28.4113 55.8817 28.0563 55.8834Z" fill="#FFBF00"/>
</svg>